<svg xmlns="http://www.w3.org/2000/svg" xmlns:xlink="http://www.w3.org/1999/xlink" viewBox="0 0 210 350" width="210"  height="350" ><clipPath id="a"><path d="m0 0h210v350h-210z"/></clipPath><clipPath id="b"><path d="m101.01 132.2v133.77c2.84 7.03 9.13 16.71 22.35 17.05v-161.49z"/></clipPath><g clip-path="url(#a)"><path d="m14.82 276.79v2.52s51.68 24.76 51.68 24.76c7.36 3.51 15.91 3.53 23.29.05l104.72-49.42 3.53-6.74v23.11s-.16 3.47-3.43 5.36l-103.18 48.69c-8.36 3.94-18.04 3.92-26.38-.05l-50.23-24.07c-2.86-1.29-2.85-4.17-2.85-4.17v-22.35s2.85 2.31 2.85 2.31z" fill="#fff"/><path d="m78.29 329.07c-4.67 0-9.33-1.03-13.67-3.1l-50.23-24.07c-3.39-1.53-3.42-4.93-3.42-5.07v-22.34c0-.39.22-.74.57-.9.35-.17.76-.12 1.06.12l2.85 2.31c.23.19.37.48.37.78v1.89l51.11 24.49c7.12 3.39 15.3 3.41 22.43.04l104.42-49.28 3.37-6.44c.21-.41.68-.62 1.12-.51.45.11.76.51.76.97v10.81c0 .55-.45 1-1 1s-1-.45-1-1v-6.75l-1.64 3.14c-.1.19-.26.35-.46.44l-104.72 49.42c-7.68 3.62-16.48 3.6-24.15-.05l-51.68-24.76c-.35-.17-.57-.52-.57-.9v-2.04l-.85-.69v20.25c0 .09.05 2.26 2.26 3.26l50.25 24.08c8.1 3.86 17.4 3.88 25.52.05l103.18-48.69c2.67-1.54 2.85-4.38 2.86-4.5v-5.76c0-.55.45-1 1-1s1 .45 1 1v5.81c0 .21-.22 4.08-3.93 6.22l-103.25 48.73c-4.31 2.03-8.94 3.05-13.56 3.05z" fill="#2b2b2b"/><rect fill="#2b2b2b" height="24.5" rx="1.38" transform="matrix(-1 0 -0 -1 108.32 610.1)" width="2.88" x="52.72" y="292.8"/><rect fill="#2b2b2b" height="24.5" rx="1.38" transform="matrix(-1 -0 0 -1 70.55 596.24)" width="2.88" x="33.83" y="285.87"/><path d="m89.49 305.31 104.54-49.3c5.33-2.51 5.35-10.09.04-12.64l-53.81-25.75c-3.73-1.78-8.06-1.8-11.79-.03l-113.57 53.56c-3.9 1.84-3.92 7.38-.03 9.24l51.93 24.85c7.17 3.43 15.5 3.45 22.68.06z" fill="#f9d400"/><rect fill="#2b2b2b" height="27.1" rx="2.76" transform="matrix(-1 0 -0 -1 157.62 632.58)" width="5.77" x="75.93" y="302.74"/><rect fill="#2b2b2b" height="27.1" rx="2.76" transform="matrix(-1 -0 0 -1 304.47 570.3)" width="5.77" x="149.35" y="271.6"/><rect fill="#2b2b2b" height="27.1" rx="2.76" transform="matrix(-1 0 -0 -1 358.39 545.79)" width="5.77" x="176.31" y="259.34"/><path d="m14.82 270.93v2.52s51.68 24.76 51.68 24.76c7.36 3.51 15.91 3.53 23.29.05l104.72-49.42 3.53-6.74v7.69s-.16 3.47-3.43 5.36l-103.18 48.69c-8.36 3.94-18.04 3.92-26.38-.05l-50.23-24.07c-2.86-1.29-2.85-4.17-2.85-4.17v-6.92s2.85 2.31 2.85 2.31z" fill="#f9d400"/><path d="m78.29 307.79c-4.67 0-9.33-1.03-13.67-3.1l-50.23-24.07c-3.39-1.53-3.42-4.93-3.42-5.07v-6.92c0-.39.22-.74.57-.9.35-.17.76-.12 1.06.12l2.85 2.31c.23.19.37.48.37.78v2.52c0 .55-.45 1-1 1s-1-.45-1-1v-2.04l-.85-.69v4.83c0 .09.05 2.26 2.26 3.26l50.25 24.08c8.1 3.86 17.4 3.88 25.52.05l103.18-48.69c2.67-1.54 2.85-4.38 2.86-4.5v-3.57l-1.64 3.14c-.1.19-.26.35-.46.44l-104.72 49.42c-7.68 3.62-16.48 3.6-24.15-.05-.5-.24-.71-.83-.47-1.33s.83-.71 1.33-.47c7.12 3.39 15.3 3.41 22.43.04l104.42-49.28 3.37-6.44c.21-.41.68-.62 1.12-.51.45.11.76.51.76.97v7.69c0 .21-.22 4.08-3.93 6.22l-103.25 48.73c-4.31 2.03-8.94 3.05-13.56 3.05z" fill="#2b2b2b"/><path d="m89.49 298.39 104.54-49.3c5.33-2.51 5.35-10.09.04-12.64l-53.81-25.75c-3.73-1.78-8.06-1.8-11.79-.03l-113.57 53.56c-3.9 1.84-3.92 7.38-.03 9.24l51.93 24.85c7.17 3.43 15.5 3.45 22.68.06z" fill="#f9d400"/><path d="m78.21 301.93c-4.04 0-8.08-.9-11.84-2.7l-39.13-18.72c-.5-.24-.71-.84-.47-1.33s.83-.71 1.33-.47l39.13 18.72c6.92 3.31 14.88 3.34 21.82.06l104.54-49.3c2.15-1.01 3.43-3.03 3.44-5.41s-1.27-4.4-3.41-5.42l-53.8-25.75c-3.47-1.66-7.46-1.67-10.94-.03l-113.57 53.56c-1.47.7-2.36 2.08-2.36 3.71s.87 3.02 2.34 3.73l8.34 3.99c.5.24.71.84.47 1.33s-.83.71-1.33.47l-8.34-3.99c-2.15-1.03-3.48-3.15-3.48-5.53s1.35-4.5 3.51-5.51l113.57-53.56c4.02-1.9 8.64-1.89 12.65.04l53.8 25.75c2.81 1.35 4.55 4.12 4.54 7.23 0 3.12-1.77 5.88-4.58 7.21l-104.54 49.3c-3.72 1.75-7.71 2.63-11.7 2.63z" fill="#2b2b2b"/><rect fill="#2b2b2b" height="18.89" rx="2.76" transform="matrix(-1 -0 0 -1 387.43 468.37)" width="5.77" x="190.83" y="224.74"/><path d="m20.22 247.81v2.37s48.58 23.28 48.58 23.28c6.92 3.3 14.96 3.31 21.9.04l98.45-46.46 3.32-6.33v21.73s-.15 3.26-3.23 5.04l-97 45.78c-7.86 3.71-16.96 3.69-24.8-.05l-47.22-22.63c-2.69-1.21-2.68-3.92-2.68-3.92v-21.01s2.68 2.17 2.68 2.17z" fill="#fff"/><path d="m79.89 297.03c-4.4 0-8.79-.98-12.88-2.92l-47.22-22.63c-3.22-1.45-3.25-4.69-3.25-4.82v-21.01c0-.39.22-.74.57-.9s.76-.12 1.06.13l2.68 2.17c.23.19.37.48.37.78v1.74l48.01 23.01c6.68 3.18 14.34 3.2 21.04.04l98.15-46.32 3.16-6.04c.21-.41.67-.62 1.12-.51s.76.51.76.97v21.73c0 .2-.21 3.87-3.73 5.9l-97.07 45.81c-4.06 1.92-8.42 2.87-12.78 2.87zm-61.35-49.29v18.91c0 .08.05 2.09 2.09 3.01l47.24 22.64c7.6 3.62 16.33 3.64 23.94.05l97-45.78c2.47-1.43 2.65-4.07 2.65-4.18v-17.62s-1.43 2.73-1.43 2.73c-.1.19-.26.35-.46.44l-98.45 46.46c-7.24 3.41-15.53 3.4-22.75-.04l-48.58-23.28c-.35-.17-.57-.52-.57-.9v-1.89z" fill="#2b2b2b"/><rect fill="#2b2b2b" height="18.89" rx="1.38" transform="matrix(-1 -0 0 -1 108.32 560.06)" width="2.88" x="52.72" y="270.59"/><rect fill="#2b2b2b" height="18.89" rx="1.38" transform="matrix(-1 0 -0 -1 70.55 543.91)" width="2.88" x="33.83" y="262.51"/><rect fill="#2b2b2b" height="18.89" rx="2.76" transform="matrix(-1 -0 0 -1 157.62 577.65)" width="5.77" x="75.93" y="279.38"/><rect fill="#2b2b2b" height="18.89" rx="2.76" transform="matrix(-1 -0 0 -1 39.98 524.59)" width="5.77" x="17.11" y="252.85"/><path d="m14.82 247v2.52s51.68 24.76 51.68 24.76c7.36 3.51 15.91 3.53 23.29.05l104.72-49.42 3.53-6.74v7.69s-.16 3.47-3.43 5.36l-103.18 48.69c-8.36 3.94-18.04 3.92-26.38-.05l-50.23-24.07c-2.86-1.29-2.85-4.17-2.85-4.17v-6.92s2.85 2.31 2.85 2.31z" fill="#f9d400"/><path d="m78.29 283.85c-4.67 0-9.33-1.03-13.67-3.1l-50.23-24.07c-3.39-1.53-3.42-4.93-3.42-5.07v-6.92c0-.39.22-.74.57-.9.35-.17.76-.12 1.06.12l2.85 2.31c.23.19.37.48.37.78v2.52c0 .55-.45 1-1 1s-1-.45-1-1v-2.04l-.85-.69v4.83c0 .09.05 2.26 2.26 3.26l50.25 24.08c8.1 3.86 17.4 3.88 25.52.05l103.18-48.69c2.67-1.54 2.85-4.38 2.86-4.5v-3.57l-1.64 3.14c-.1.19-.26.35-.46.44l-104.72 49.42c-7.68 3.62-16.48 3.6-24.15-.05-.5-.24-.71-.83-.47-1.33s.83-.71 1.33-.47c7.12 3.39 15.3 3.41 22.43.04l104.42-49.28 3.37-6.44c.21-.41.68-.62 1.12-.51.45.11.76.51.76.97v7.69c0 .21-.22 4.08-3.93 6.22l-103.25 48.73c-4.31 2.03-8.94 3.05-13.56 3.05z" fill="#2b2b2b"/><path d="m89.49 274.46 104.54-49.3c5.33-2.51 5.35-10.09.04-12.64l-53.81-25.75c-3.73-1.78-8.06-1.8-11.79-.03l-113.57 53.56c-3.9 1.84-3.92 7.38-.03 9.24l51.93 24.85c7.17 3.43 15.5 3.45 22.68.06z" fill="#f9d400"/><path d="m78.21 278c-4.04 0-8.08-.9-11.84-2.7l-35.52-17c-.5-.24-.71-.84-.47-1.33s.83-.71 1.33-.47l35.52 17c6.92 3.31 14.88 3.34 21.82.06l104.54-49.3c2.15-1.01 3.43-3.03 3.44-5.41s-1.27-4.4-3.41-5.42l-53.8-25.75c-3.47-1.66-7.46-1.67-10.94-.03l-113.56 53.56c-1.47.69-2.36 2.08-2.36 3.71s.87 3.02 2.34 3.73l10.64 5.09c.5.24.71.84.47 1.33-.24.5-.83.71-1.33.47l-10.64-5.09c-2.15-1.03-3.48-3.15-3.48-5.53s1.35-4.5 3.51-5.51l113.57-53.56c4.02-1.9 8.64-1.89 12.65.04l53.8 25.75c2.81 1.35 4.55 4.12 4.54 7.23 0 3.12-1.77 5.88-4.58 7.21l-104.54 49.3c-3.72 1.75-7.71 2.63-11.7 2.63z" fill="#2b2b2b"/><rect fill="#2b2b2b" height="18.89" rx="2.76" transform="matrix(-1 -0 0 -1 387.43 420.79)" width="5.77" x="190.83" y="200.95"/><path d="m20.22 224.31v2.37s48.58 23.28 48.58 23.28c6.92 3.3 14.96 3.31 21.9.04l98.45-46.46 3.32-6.33v21.73s-.15 3.26-3.23 5.04l-97 45.78c-7.86 3.71-16.96 3.69-24.8-.05l-47.22-22.63c-2.69-1.21-2.68-3.92-2.68-3.92v-21.01s2.68 2.17 2.68 2.17z" fill="#fff"/><path d="m79.89 273.53c-4.4 0-8.79-.97-12.88-2.92l-47.22-22.63c-3.22-1.46-3.25-4.69-3.25-4.82v-21.01c0-.39.22-.74.57-.9.35-.17.76-.12 1.06.13l2.68 2.17c.24.19.37.48.37.78v1.74l48.01 23.01c6.68 3.18 14.34 3.2 21.04.04l98.15-46.32 3.16-6.04c.21-.41.67-.62 1.12-.51s.76.51.76.97v21.73c0 .2-.21 3.87-3.73 5.9l-97.07 45.81c-4.06 1.92-8.42 2.87-12.78 2.87zm-61.35-49.29v18.91c0 .08.05 2.09 2.09 3.01l47.24 22.64c7.6 3.62 16.33 3.64 23.94.05l97-45.78c2.47-1.43 2.65-4.07 2.65-4.18v-17.62s-1.43 2.73-1.43 2.73c-.1.19-.26.35-.46.44l-98.45 46.46c-7.24 3.41-15.53 3.4-22.75-.04l-48.58-23.28c-.35-.17-.57-.52-.57-.9v-1.89z" fill="#2b2b2b"/><rect fill="#2b2b2b" height="18.89" rx="1.38" transform="matrix(-1 -0 0 -1 108.32 512.48)" width="2.88" x="52.72" y="246.8"/><rect fill="#2b2b2b" height="18.89" rx="1.38" transform="matrix(-1 -0 0 -1 70.55 496.34)" width="2.88" x="33.83" y="238.73"/><rect fill="#2b2b2b" height="18.89" rx="2.76" transform="matrix(-1 0 -0 -1 157.62 530.07)" width="5.77" x="75.93" y="255.59"/><rect fill="#2b2b2b" height="18.89" rx="2.76" transform="matrix(-1 0 -0 -1 39.98 477.02)" width="5.77" x="17.11" y="229.07"/><path d="m14.82 223.06v2.52s51.68 24.76 51.68 24.76c7.36 3.51 15.91 3.53 23.29.05l104.72-49.42 3.53-6.74v7.69s-.16 3.47-3.43 5.36l-103.18 48.69c-8.36 3.94-18.04 3.92-26.38-.05l-50.23-24.07c-2.86-1.29-2.85-4.17-2.85-4.17v-6.92s2.85 2.31 2.85 2.31z" fill="#f9d400"/><path d="m78.29 259.92c-4.67 0-9.33-1.03-13.67-3.1l-50.23-24.07c-3.39-1.53-3.42-4.93-3.42-5.07v-6.92c0-.39.22-.74.57-.9.35-.17.76-.12 1.06.12l2.85 2.31c.23.19.37.48.37.78v2.52c0 .55-.45 1-1 1s-1-.45-1-1v-2.04l-.85-.69v4.83c0 .09.05 2.26 2.26 3.26l50.25 24.08c8.1 3.86 17.4 3.88 25.52.05l103.18-48.69c2.67-1.54 2.85-4.38 2.86-4.5v-3.57l-1.64 3.14c-.1.19-.26.35-.46.44l-104.72 49.42c-7.68 3.62-16.48 3.61-24.15-.05-.5-.24-.71-.83-.47-1.33s.83-.71 1.33-.47c7.12 3.39 15.3 3.41 22.43.04l104.42-49.28 3.37-6.44c.21-.41.68-.62 1.12-.51.45.11.76.51.76.97v7.69c0 .21-.22 4.08-3.93 6.22l-103.25 48.73c-4.31 2.03-8.94 3.05-13.56 3.05z" fill="#2b2b2b"/><path d="m89.49 250.53 104.54-49.3c5.33-2.51 5.35-10.09.04-12.64l-53.81-25.75c-3.73-1.78-8.06-1.8-11.79-.03l-113.57 53.56c-3.9 1.84-3.92 7.38-.03 9.24l51.93 24.85c7.17 3.43 15.5 3.45 22.68.06z" fill="#f9d400"/><path d="m78.21 254.07c-4.04 0-8.08-.9-11.84-2.7l-37.4-17.9c-.5-.24-.71-.84-.47-1.33.24-.5.83-.71 1.33-.47l37.4 17.9c6.93 3.31 14.88 3.33 21.82.06l104.54-49.3c2.15-1.01 3.43-3.03 3.44-5.41 0-2.37-1.27-4.4-3.41-5.42l-53.8-25.75c-3.47-1.66-7.46-1.67-10.94-.03l-113.56 53.56c-1.47.7-2.36 2.08-2.36 3.71s.87 3.02 2.34 3.73l7.33 3.51c.5.24.71.84.47 1.33s-.83.71-1.33.47l-7.33-3.51c-2.15-1.03-3.48-3.15-3.48-5.53s1.35-4.5 3.51-5.51l113.57-53.56c4.02-1.9 8.64-1.89 12.65.04l53.8 25.75c2.81 1.35 4.55 4.12 4.54 7.23s-1.77 5.88-4.58 7.21l-104.54 49.3c-3.72 1.76-7.71 2.63-11.7 2.63z" fill="#2b2b2b"/><rect fill="#2b2b2b" height="18.89" rx="2.76" transform="matrix(-1 0 -0 -1 387.43 373.22)" width="5.77" x="190.83" y="177.17"/><path d="m20.22 199.75v2.37s48.58 23.28 48.58 23.28c6.92 3.3 14.96 3.31 21.9.04l98.45-46.46 3.32-6.33v21.73s-.15 3.26-3.23 5.04l-97 45.78c-7.86 3.71-16.96 3.69-24.8-.05l-47.22-22.63c-2.69-1.21-2.68-3.92-2.68-3.92v-21.01s2.68 2.17 2.68 2.17z" fill="#fff"/><path d="m79.89 248.96c-4.4 0-8.79-.98-12.88-2.92l-47.22-22.63c-3.22-1.46-3.25-4.69-3.25-4.82v-21.01c0-.39.22-.74.57-.9s.76-.12 1.06.13l2.68 2.17c.23.19.37.48.37.78v1.74l48.01 23.01c6.68 3.18 14.35 3.2 21.04.04l98.15-46.32 3.16-6.04c.21-.41.67-.62 1.12-.51s.76.51.76.97v21.73c0 .2-.21 3.87-3.73 5.9l-97.07 45.81c-4.06 1.92-8.42 2.87-12.78 2.87zm-61.35-49.28v18.91c0 .08.05 2.08 2.09 3.01l47.24 22.64c7.6 3.62 16.33 3.64 23.94.05l97-45.77c2.47-1.43 2.65-4.07 2.65-4.18v-17.62s-1.43 2.73-1.43 2.73c-.1.19-.26.35-.46.44l-98.45 46.46c-7.24 3.41-15.53 3.4-22.75-.04l-48.58-23.28c-.35-.17-.57-.52-.57-.9v-1.89l-.68-.55z" fill="#2b2b2b"/><rect fill="#2b2b2b" height="18.89" rx="1.38" transform="matrix(-1 0 -0 -1 108.32 464.91)" width="2.88" x="52.72" y="223.01"/><rect fill="#2b2b2b" height="18.89" rx="1.38" transform="matrix(-1 -0 0 -1 70.55 448.76)" width="2.88" x="33.83" y="214.94"/><rect fill="#2b2b2b" height="18.89" rx="2.76" transform="matrix(-1 -0 0 -1 157.62 482.5)" width="5.77" x="75.93" y="231.81"/><rect fill="#2b2b2b" height="18.89" rx="2.76" transform="matrix(-1 0 -0 -1 39.98 429.44)" width="5.77" x="17.11" y="205.28"/><path d="m14.82 199.13v2.52s51.68 24.76 51.68 24.76c7.36 3.51 15.91 3.53 23.29.05l104.72-49.42 3.53-6.74v7.69s-.16 3.47-3.43 5.36l-103.18 48.69c-8.36 3.94-18.04 3.92-26.38-.05l-50.23-24.07c-2.86-1.29-2.85-4.17-2.85-4.17v-6.92s2.85 2.31 2.85 2.31z" fill="#f9d400"/><path d="m78.29 235.99c-4.67 0-9.33-1.03-13.67-3.1l-50.23-24.07c-3.39-1.53-3.42-4.93-3.42-5.07v-6.92c0-.39.22-.74.57-.9.35-.17.76-.12 1.06.12l2.85 2.31c.23.19.37.48.37.78v2.52c0 .55-.45 1-1 1s-1-.45-1-1v-2.04l-.85-.69v4.83c0 .09.05 2.26 2.26 3.26l50.25 24.08c8.1 3.86 17.4 3.88 25.52.05l103.18-48.69c2.67-1.54 2.85-4.38 2.86-4.5v-3.57l-1.64 3.14c-.1.19-.26.35-.46.44l-104.72 49.42c-7.68 3.62-16.48 3.6-24.15-.05-.5-.24-.71-.83-.47-1.33s.83-.71 1.33-.47c7.12 3.39 15.3 3.41 22.43.04l104.42-49.28 3.37-6.44c.21-.41.68-.62 1.12-.51.45.11.76.51.76.97v7.69c0 .21-.22 4.08-3.93 6.22l-103.25 48.73c-4.31 2.03-8.94 3.05-13.56 3.05z" fill="#2b2b2b"/><path d="m89.49 226.6 104.54-49.3c5.33-2.51 5.35-10.09.04-12.64l-53.81-25.75c-3.73-1.78-8.06-1.8-11.79-.03l-113.57 53.56c-3.9 1.84-3.92 7.38-.03 9.24l51.93 24.85c7.17 3.43 15.5 3.45 22.68.06z" fill="#f9d400"/><path d="m78.21 230.13c-4.04 0-8.08-.9-11.84-2.7l-37.83-18.1c-.5-.24-.71-.84-.47-1.33s.83-.71 1.33-.47l37.83 18.1c6.92 3.31 14.88 3.34 21.82.06l104.54-49.3c2.15-1.01 3.43-3.03 3.44-5.41s-1.27-4.4-3.41-5.42l-53.8-25.75c-3.47-1.66-7.46-1.67-10.94-.03l-113.56 53.56c-1.47.7-2.36 2.08-2.36 3.71s.87 3.02 2.34 3.73l4.01 1.92c.5.24.71.84.47 1.33s-.83.71-1.33.47l-4.01-1.92c-2.15-1.03-3.48-3.15-3.48-5.53s1.35-4.5 3.51-5.51l113.57-53.56c4.02-1.9 8.64-1.89 12.65.04l53.8 25.75c2.81 1.35 4.55 4.12 4.54 7.23 0 3.12-1.77 5.88-4.58 7.21l-104.54 49.3c-3.72 1.75-7.71 2.63-11.7 2.63z" fill="#2b2b2b"/><rect fill="#2b2b2b" height="18.89" rx="2.76" transform="matrix(-1 -0 0 -1 387.43 325.64)" width="5.77" x="190.83" y="153.38"/><path d="m20.22 175.44v2.37s48.58 23.28 48.58 23.28c6.92 3.3 14.96 3.31 21.9.04l98.45-46.46 3.32-6.33v21.73s-.15 3.26-3.23 5.04l-97 45.78c-7.86 3.71-16.96 3.69-24.8-.05l-47.22-22.63c-2.69-1.21-2.68-3.92-2.68-3.92v-21.01s2.68 2.17 2.68 2.17z" fill="#fff"/><path d="m79.89 224.65c-4.4 0-8.79-.98-12.88-2.92l-47.22-22.63c-3.22-1.45-3.25-4.69-3.25-4.82v-21.01c0-.39.22-.74.57-.9.35-.17.76-.12 1.06.13l2.68 2.17c.23.19.37.48.37.78v1.74l48.01 23.01c6.68 3.18 14.35 3.2 21.04.04l98.15-46.32 3.16-6.04c.21-.41.67-.62 1.12-.51s.76.51.76.97v21.73c0 .2-.21 3.87-3.73 5.9l-97.07 45.81c-4.06 1.92-8.42 2.87-12.78 2.87zm-61.35-49.28v18.91c0 .08.05 2.09 2.09 3.01l47.24 22.64c7.6 3.62 16.33 3.64 23.94.05l97-45.78c2.47-1.43 2.65-4.07 2.65-4.18v-17.62s-1.43 2.73-1.43 2.73c-.1.19-.26.35-.46.44l-98.45 46.46c-7.24 3.41-15.53 3.4-22.75-.04l-48.58-23.28c-.35-.17-.57-.52-.57-.9v-1.89z" fill="#2b2b2b"/><rect fill="#2b2b2b" height="18.89" rx="1.38" transform="matrix(-1 -0 0 -1 108.32 417.33)" width="2.88" x="52.72" y="199.22"/><rect fill="#2b2b2b" height="18.89" rx="1.38" transform="matrix(-1 -0 0 -1 70.55 401.19)" width="2.88" x="33.83" y="191.15"/><rect fill="#2b2b2b" height="18.89" rx="2.76" transform="matrix(-1 -0 0 -1 157.62 434.92)" width="5.77" x="75.93" y="208.02"/><rect fill="#2b2b2b" height="18.89" rx="2.76" transform="matrix(-1 0 -0 -1 39.98 381.87)" width="5.77" x="17.11" y="181.49"/><path d="m14.82 175.2v2.52s51.68 24.76 51.68 24.76c7.36 3.51 15.91 3.53 23.29.05l104.72-49.42 3.53-6.74v7.69s-.16 3.47-3.43 5.36l-103.18 48.69c-8.36 3.94-18.04 3.92-26.38-.05l-50.23-24.07c-2.86-1.29-2.85-4.17-2.85-4.17v-6.92s2.85 2.31 2.85 2.31z" fill="#f9d400"/><path d="m78.29 212.06c-4.67 0-9.33-1.03-13.67-3.1l-50.23-24.07c-3.39-1.53-3.42-4.93-3.42-5.07v-6.92c0-.39.22-.74.57-.9.35-.17.76-.12 1.06.12l2.85 2.31c.23.19.37.48.37.78v2.52c0 .55-.45 1-1 1s-1-.45-1-1v-2.04l-.85-.69v4.82c0 .09.05 2.26 2.26 3.26l50.25 24.08c8.1 3.86 17.4 3.88 25.52.05l103.18-48.69c2.67-1.54 2.85-4.38 2.86-4.5v-3.57l-1.64 3.14c-.1.19-.26.35-.46.44l-104.72 49.42c-7.68 3.62-16.48 3.6-24.15-.05-.5-.24-.71-.83-.47-1.33s.83-.71 1.33-.47c7.12 3.39 15.3 3.41 22.43.04l104.42-49.28 3.37-6.44c.21-.41.68-.62 1.12-.51.45.11.76.51.76.97v7.69c0 .21-.22 4.08-3.93 6.22l-103.25 48.73c-4.31 2.03-8.94 3.05-13.56 3.05z" fill="#2b2b2b"/><path d="m89.49 202.67 104.54-49.3c5.33-2.51 5.35-10.09.04-12.64l-53.81-25.75c-3.73-1.78-8.06-1.8-11.79-.03l-113.57 53.56c-3.9 1.84-3.92 7.38-.03 9.24l51.93 24.85c7.17 3.43 15.5 3.45 22.68.06z" fill="#f9d400"/><path d="m78.21 206.2c-4.04 0-8.08-.9-11.84-2.7l-36.53-17.48c-.5-.24-.71-.84-.47-1.33s.83-.71 1.33-.47l36.53 17.48c6.93 3.31 14.88 3.34 21.82.06l104.54-49.3c2.15-1.01 3.43-3.03 3.44-5.41s-1.27-4.4-3.41-5.42l-53.8-25.75c-3.47-1.66-7.46-1.67-10.94-.03l-113.56 53.56c-1.47.7-2.36 2.08-2.36 3.71s.87 3.02 2.34 3.73l7.18 3.44c.5.24.71.84.47 1.33s-.83.71-1.33.47l-7.18-3.44c-2.15-1.03-3.48-3.15-3.48-5.53s1.35-4.5 3.51-5.52l113.57-53.56c4.02-1.9 8.64-1.89 12.65.04l53.8 25.75c2.81 1.35 4.55 4.12 4.54 7.23 0 3.12-1.77 5.88-4.58 7.21l-104.54 49.3c-3.72 1.75-7.71 2.63-11.7 2.63z" fill="#2b2b2b"/><rect fill="#2b2b2b" height="18.89" rx="2.76" transform="matrix(-1 -0 0 -1 387.43 278.07)" width="5.77" x="190.83" y="129.59"/><path d="m20.22 152.08v2.37s48.58 23.28 48.58 23.28c6.92 3.3 14.96 3.31 21.9.04l98.45-46.46 3.32-6.33v21.73s-.15 3.26-3.23 5.04l-97 45.78c-7.86 3.71-16.96 3.69-24.8-.05l-47.22-22.63c-2.69-1.21-2.68-3.92-2.68-3.92v-21.01s2.68 2.17 2.68 2.17z" fill="#fff"/><path d="m79.89 201.3c-4.4 0-8.79-.97-12.88-2.92l-47.22-22.63c-3.22-1.46-3.25-4.69-3.25-4.82v-21.01c0-.39.22-.74.57-.9.35-.17.76-.12 1.06.13l2.68 2.17c.23.19.37.48.37.78v1.74l48.01 23.01c6.68 3.18 14.34 3.2 21.04.04l98.15-46.32 3.16-6.04c.21-.41.67-.62 1.12-.51s.76.51.76.97v21.73c0 .2-.21 3.87-3.73 5.9l-97.07 45.81c-4.06 1.92-8.42 2.87-12.78 2.87zm-61.35-49.29v18.91c0 .08.05 2.08 2.09 3.01l47.24 22.64c7.6 3.62 16.33 3.64 23.94.05l97-45.77c2.47-1.43 2.65-4.07 2.65-4.18v-17.62s-1.43 2.73-1.43 2.73c-.1.19-.26.35-.46.44l-98.45 46.46c-7.24 3.41-15.53 3.4-22.75-.04l-48.58-23.28c-.35-.17-.57-.52-.57-.9v-1.89l-.68-.55z" fill="#2b2b2b"/><rect fill="#2b2b2b" height="18.89" rx="1.38" transform="matrix(-1 -0 0 -1 108.32 369.76)" width="2.88" x="52.72" y="175.44"/><rect fill="#2b2b2b" height="18.89" rx="1.38" transform="matrix(-1 -0 0 -1 70.55 353.61)" width="2.88" x="33.83" y="167.36"/><rect fill="#2b2b2b" height="18.89" rx="2.76" transform="matrix(-1 -0 0 -1 157.62 387.35)" width="5.77" x="75.93" y="184.23"/><rect fill="#2b2b2b" height="18.89" rx="2.76" transform="matrix(-1 -0 0 -1 39.98 334.29)" width="5.77" x="17.11" y="157.7"/><path d="m14.82 151.27v2.52s51.68 24.76 51.68 24.76c7.36 3.51 15.91 3.53 23.29.05l104.72-49.42 3.53-6.74v7.69s-.16 3.47-3.43 5.36l-103.18 48.69c-8.36 3.94-18.04 3.92-26.38-.05l-50.23-24.07c-2.86-1.29-2.85-4.17-2.85-4.17v-6.92s2.85 2.31 2.85 2.31z" fill="#f9d400"/><path d="m78.29 188.13c-4.67 0-9.33-1.03-13.67-3.1l-50.23-24.07c-3.39-1.53-3.42-4.93-3.42-5.07v-6.92c0-.39.22-.74.57-.9.35-.17.76-.12 1.06.12l2.85 2.31c.23.19.37.48.37.78v1.89l51.11 24.49c7.12 3.39 15.3 3.41 22.43.04l104.42-49.28 3.37-6.44c.21-.41.68-.62 1.12-.51.45.11.76.51.76.97v7.69c0 .21-.22 4.08-3.93 6.22l-103.25 48.73c-4.31 2.03-8.94 3.05-13.56 3.05zm-65.32-37.07v4.83c0 .09.05 2.26 2.26 3.26l50.25 24.08c8.1 3.86 17.4 3.88 25.52.05l103.18-48.69c2.67-1.54 2.85-4.38 2.86-4.5v-3.57l-1.64 3.14c-.1.19-.26.35-.46.44l-104.72 49.42c-7.68 3.62-16.48 3.6-24.15-.05l-51.68-24.76c-.35-.17-.57-.52-.57-.9v-2.04l-.85-.69z" fill="#2b2b2b"/><path d="m89.49 178.73 104.54-49.3c5.33-2.51 5.35-10.09.04-12.64l-53.81-25.75c-3.73-1.78-8.06-1.8-11.79-.03l-113.57 53.57c-3.9 1.84-3.92 7.38-.03 9.24l51.93 24.85c7.17 3.43 15.5 3.45 22.68.06z" fill="#f9d400"/><path d="m78.21 182.27c-4.04 0-8.08-.9-11.84-2.7l-51.93-24.85c-2.15-1.03-3.48-3.15-3.48-5.53s1.35-4.5 3.51-5.51l113.57-53.56c4.02-1.9 8.64-1.89 12.65.04l53.8 25.75c2.81 1.35 4.55 4.12 4.54 7.23s-1.77 5.88-4.58 7.21l-104.54 49.3c-3.72 1.76-7.71 2.63-11.7 2.63zm56.12-91.57c-1.85 0-3.71.41-5.44 1.22l-113.57 53.56c-1.47.7-2.36 2.08-2.36 3.71s.87 3.02 2.34 3.73l51.93 24.85c6.93 3.31 14.88 3.33 21.82.06l.43.9-.43-.9 104.54-49.3c2.15-1.01 3.43-3.03 3.44-5.41 0-2.37-1.27-4.4-3.41-5.42l-53.8-25.75c-1.75-.84-3.62-1.25-5.5-1.25z" fill="#2b2b2b"/><rect fill="#2b2b2b" height="18.89" rx="2.76" transform="matrix(-1 -0 0 -1 387.43 230.49)" width="5.77" x="190.83" y="105.8"/><path d="m20.22 128.24v2.37s48.58 23.28 48.58 23.28c6.92 3.3 14.96 3.31 21.9.04l98.45-46.46 3.32-6.33v21.73s-.15 3.26-3.23 5.04l-97 45.78c-7.86 3.71-16.96 3.69-24.8-.05l-47.22-22.63c-2.69-1.21-2.68-3.92-2.68-3.92v-21.01s2.68 2.17 2.68 2.17z" fill="#fff"/><g fill="#2b2b2b"><path d="m79.89 177.46c-4.4 0-8.79-.97-12.88-2.92l-47.22-22.63c-3.22-1.46-3.25-4.69-3.25-4.82v-21.01c0-.39.22-.74.57-.9.35-.17.76-.12 1.06.13l2.68 2.17c.24.19.37.48.37.78v1.74l48.01 23.01c6.68 3.18 14.34 3.2 21.04.04l98.15-46.32 3.16-6.04c.21-.41.67-.62 1.12-.51s.76.51.76.97v21.73c0 .2-.21 3.87-3.73 5.9l-97.07 45.81c-4.06 1.92-8.42 2.87-12.78 2.87zm-61.35-49.29v18.91c0 .08.05 2.09 2.09 3.01l47.24 22.64c7.6 3.62 16.33 3.64 23.94.05l97-45.78c2.47-1.43 2.65-4.07 2.65-4.18v-17.62s-1.43 2.73-1.43 2.73c-.1.19-.26.35-.46.44l-98.45 46.46c-7.24 3.41-15.53 3.4-22.75-.04l-48.58-23.28c-.35-.17-.57-.52-.57-.9v-1.89z"/><rect height="18.89" rx="1.38" transform="matrix(-1 -0 0 -1 108.32 322.18)" width="2.88" x="52.72" y="151.65"/><rect height="18.89" rx="1.38" transform="matrix(-1 -0 0 -1 70.55 306.04)" width="2.88" x="33.83" y="143.58"/><rect height="18.89" rx="2.76" transform="matrix(-1 0 -0 -1 157.62 339.77)" width="5.77" x="75.93" y="160.44"/><rect height="18.89" rx="2.76" transform="matrix(-1 0 -0 -1 39.98 286.72)" width="5.77" x="17.11" y="133.92"/><rect height="18.89" rx="1.38" transform="matrix(-1 -0 0 -1 295.74 281.53)" width="2.88" x="146.43" y="131.32"/><rect height="18.89" rx="1.38" transform="matrix(-1 -0 0 -1 345.62 258.46)" width="2.88" x="171.37" y="119.79"/><rect height="18.89" rx="1.38" transform="matrix(-1 0 -0 -1 295.74 333.14)" width="2.88" x="146.43" y="157.13"/><rect height="18.89" rx="1.38" transform="matrix(-1 0 -0 -1 345.62 310.07)" width="2.88" x="171.37" y="145.59"/><rect height="18.89" rx="1.38" transform="matrix(-1 -0 0 -1 295.74 384.75)" width="2.88" x="146.43" y="182.93"/><rect height="18.89" rx="1.38" transform="matrix(-1 -0 0 -1 345.62 361.69)" width="2.88" x="171.37" y="171.4"/><rect height="18.89" rx="1.38" transform="matrix(-1 0 -0 -1 295.74 432.9)" width="2.88" x="146.43" y="207.01"/><rect height="18.89" rx="1.38" transform="matrix(-1 0 -0 -1 345.62 409.84)" width="2.88" x="171.37" y="195.48"/><rect height="18.89" rx="1.38" transform="matrix(-1 0 -0 -1 295.74 472.12)" width="2.88" x="146.43" y="226.62"/><rect height="18.89" rx="1.38" transform="matrix(-1 0 -0 -1 345.62 449.05)" width="2.88" x="171.37" y="215.08"/></g><path d="m14.82 127.34v2.52s51.68 24.76 51.68 24.76c7.36 3.51 15.91 3.53 23.29.05l104.72-49.42 3.53-6.74v7.69s-.16 3.47-3.43 5.36l-103.18 48.69c-8.36 3.94-18.04 3.92-26.38-.05l-50.23-24.07c-2.86-1.29-2.85-4.17-2.85-4.17v-6.92s2.85 2.31 2.85 2.31z" fill="#f9d400"/><path d="m78.29 164.19c-4.67 0-9.33-1.03-13.67-3.1l-50.23-24.07c-3.39-1.53-3.42-4.93-3.42-5.07v-6.92c0-.39.22-.74.57-.9.35-.17.76-.12 1.06.12l2.85 2.31c.23.19.37.48.37.78v2.52c0 .55-.45 1-1 1s-1-.45-1-1v-2.04l-.85-.69v4.83c0 .09.05 2.26 2.26 3.26l50.25 24.08c8.1 3.86 17.4 3.88 25.52.05l103.18-48.69c2.67-1.54 2.85-4.38 2.86-4.5v-3.57l-1.64 3.14c-.26.49-.86.68-1.35.42s-.68-.86-.42-1.35l3.53-6.74c.21-.41.68-.62 1.12-.51.45.11.76.51.76.97v7.69c0 .21-.22 4.08-3.93 6.22l-103.25 48.73c-4.31 2.03-8.94 3.05-13.56 3.05z" fill="#2b2b2b"/><path d="m78.19 158.27c-4.14 0-8.27-.92-12.12-2.75-.5-.24-.71-.83-.47-1.33s.83-.71 1.33-.47c7.12 3.39 15.3 3.41 22.43.04.5-.24 1.1-.02 1.33.48.24.5.02 1.1-.48 1.33-3.82 1.8-7.92 2.7-12.02 2.7z" fill="#2b2b2b"/><path d="m89.49 154.8 104.54-49.3c5.33-2.51 5.35-10.09.04-12.64l-53.81-25.75c-3.73-1.78-8.06-1.8-11.79-.03l-113.57 53.56c-3.9 1.84-3.92 7.38-.03 9.24l51.93 24.85c7.17 3.43 15.5 3.45 22.68.06z" fill="#f9d400"/><path d="m41.8 143.78c-.14 0-.29-.03-.43-.1l-26.93-12.89c-2.15-1.03-3.48-3.15-3.48-5.53s1.35-4.5 3.51-5.51l113.57-53.56c4.02-1.9 8.64-1.89 12.65.04l53.8 25.75c2.81 1.35 4.55 4.12 4.54 7.23 0 3.12-1.77 5.88-4.58 7.21l-23.63 11.14c-.5.24-1.09.02-1.33-.48s-.02-1.1.48-1.33l23.63-11.14c2.15-1.01 3.43-3.03 3.44-5.41s-1.27-4.4-3.41-5.42l-53.8-25.75c-3.47-1.66-7.46-1.67-10.94-.03l-113.57 53.55c-1.47.69-2.36 2.08-2.36 3.71s.87 3.02 2.34 3.73l26.93 12.89c.5.24.71.84.47 1.33-.17.36-.53.57-.9.57z" fill="#2b2b2b"/><path d="m78.21 158.34c-4.04 0-8.08-.9-11.84-2.7l-12.03-5.75c-.5-.24-.71-.84-.47-1.33s.83-.71 1.33-.47l12.03 5.75c6.92 3.31 14.88 3.34 21.82.06l73.85-34.83c.5-.24 1.09-.02 1.33.48s.02 1.1-.48 1.33l-73.85 34.83c-3.72 1.75-7.71 2.63-11.7 2.63z" fill="#2b2b2b"/><rect fill="#2b2b2b" height="18.89" rx="2.76" transform="matrix(-1 0 -0 -1 387.43 182.92)" width="5.77" x="190.83" y="82.02"/><path d="m20.22 103.64v2.37s48.58 23.28 48.58 23.28c6.92 3.3 14.96 3.31 21.9.04l98.45-46.46 3.32-6.33v21.73s-.15 3.26-3.23 5.04l-97 45.78c-7.86 3.71-16.96 3.69-24.8-.05l-47.22-22.63c-2.69-1.21-2.68-3.92-2.68-3.92v-21.01s2.68 2.17 2.68 2.17z" fill="#fff"/><path d="m79.89 152.86c-4.4 0-8.79-.98-12.88-2.92l-47.22-22.63c-3.22-1.46-3.25-4.69-3.25-4.82v-21.01c0-.39.22-.74.57-.9s.76-.12 1.06.13l2.68 2.17c.23.19.37.48.37.78v1.74l48.01 23.01c6.68 3.18 14.35 3.2 21.04.04l98.15-46.32 3.16-6.04c.21-.41.67-.62 1.12-.51s.76.51.76.97v21.73c0 .2-.21 3.87-3.73 5.9l-97.07 45.81c-4.06 1.92-8.42 2.87-12.78 2.87zm-61.35-49.29v18.91c0 .08.05 2.08 2.09 3.01l47.24 22.64c7.6 3.62 16.33 3.64 23.94.05l97-45.77c2.47-1.43 2.65-4.07 2.65-4.18v-17.62s-1.43 2.73-1.43 2.73c-.1.19-.26.35-.46.44l-98.45 46.46c-7.24 3.41-15.53 3.4-22.75-.04l-48.58-23.28c-.35-.17-.57-.52-.57-.9v-1.89l-.68-.55z" fill="#2b2b2b"/><rect fill="#2b2b2b" height="18.89" rx="2.76" transform="matrix(-1 0 -0 -1 157.62 292.2)" width="5.77" x="75.93" y="136.66"/><rect fill="#2b2b2b" height="18.89" rx="1.38" transform="matrix(-1 -0 0 -1 108.32 274.61)" width="2.88" x="52.72" y="127.86"/><rect fill="#2b2b2b" height="18.89" rx="1.38" transform="matrix(-1 -0 0 -1 70.55 258.46)" width="2.88" x="33.83" y="119.79"/><rect fill="#2b2b2b" height="18.89" rx="1.38" transform="matrix(-1 -0 0 -1 295.74 233.09)" width="2.88" x="146.43" y="107.1"/><rect fill="#2b2b2b" height="18.89" rx="1.38" transform="matrix(-1 0 -0 -1 345.62 210.02)" width="2.88" x="171.37" y="95.57"/><rect fill="#2b2b2b" height="18.89" rx="2.76" transform="matrix(-1 0 -0 -1 39.98 239.14)" width="5.77" x="17.11" y="110.13"/><path d="m14.82 103.4v2.52s51.68 24.76 51.68 24.76c7.36 3.51 15.91 3.53 23.29.05l104.72-49.42 3.53-6.74v7.69s-.16 3.47-3.43 5.36l-103.18 48.69c-8.36 3.94-18.04 3.92-26.38-.05l-50.23-24.07c-2.86-1.29-2.85-4.17-2.85-4.17v-6.92s2.85 2.31 2.85 2.31z" fill="#f9d400"/><path d="m82 133.75c-1.93 0-3.61-.45-4.93-1.35-2.59-1.77-3.75-5.06-3.43-9.79.04-.55.53-.98 1.06-.93.55.04.97.51.93 1.06-.27 3.97.6 6.67 2.56 8.01 2.36 1.61 6.54 1.27 11.17-.92.5-.24 1.1-.02 1.33.48.24.5.02 1.1-.48 1.33-2.98 1.41-5.79 2.12-8.21 2.12z" fill="#2b2b2b"/><path d="m78.29 140.26c-4.67 0-9.33-1.03-13.67-3.1l-50.23-24.07c-3.39-1.53-3.42-4.93-3.42-5.07v-6.92c0-.39.22-.74.57-.9.35-.17.76-.12 1.06.12l2.28 1.84 7.52-5.08c.46-.31 1.08-.19 1.39.27s.19 1.08-.27 1.39l-8.13 5.5c-.36.25-.85.23-1.19-.05l-1.22-.99v4.82c0 .09.05 2.26 2.26 3.26l50.25 24.08c8.1 3.86 17.4 3.88 25.52.05l103.18-48.69c2.67-1.54 2.85-4.38 2.86-4.5v-3.57l-1.64 3.14c-.26.49-.86.68-1.35.42s-.68-.86-.42-1.35l3.53-6.74c.21-.41.68-.62 1.12-.51.45.11.76.51.76.97v7.69c0 .21-.22 4.08-3.93 6.22l-103.25 48.73c-4.31 2.03-8.94 3.05-13.56 3.05z" fill="#2b2b2b"/><path d="m89.49 130.87 104.54-49.3c5.33-2.51 5.35-10.09.04-12.64l-53.81-25.75c-3.73-1.78-8.06-1.8-11.79-.03l-113.57 53.56c-3.9 1.84-3.92 7.38-.03 9.24l51.93 24.85c7.17 3.43 15.5 3.45 22.68.06z" fill="#f9d400"/><path d="m78.21 134.41c-4.04 0-8.08-.9-11.84-2.7l-28.17-13.48c-.5-.24-.71-.84-.47-1.33s.83-.71 1.33-.47l28.17 13.48c6.92 3.31 14.88 3.34 21.82.06l54.68-25.79c.5-.24 1.09-.02 1.33.48s.02 1.1-.48 1.33l-54.68 25.79c-3.72 1.75-7.71 2.63-11.7 2.63z" fill="#2b2b2b"/><path d="m27.82 113.15c-.14 0-.29-.03-.43-.1l-12.95-6.2c-2.15-1.03-3.48-3.15-3.48-5.53s1.35-4.5 3.51-5.51l113.57-53.56c4.02-1.9 8.64-1.89 12.65.04l20.63 9.87c.5.24.71.84.47 1.33-.24.5-.83.71-1.33.47l-20.63-9.87c-3.47-1.66-7.46-1.67-10.94-.03l-113.57 53.56c-1.47.7-2.36 2.08-2.36 3.71s.87 3.02 2.34 3.73l12.95 6.2c.5.24.71.84.47 1.33-.17.36-.53.57-.9.57z" fill="#2b2b2b"/><path d="m155.7 100.65c-.38 0-.73-.21-.91-.57-.24-.5-.02-1.1.48-1.33l38.33-18.08c2.15-1.01 3.43-3.03 3.44-5.41s-1.27-4.4-3.41-5.42l-22.94-10.98c-.5-.24-.71-.84-.47-1.33s.83-.71 1.33-.47l22.94 10.98c2.81 1.35 4.55 4.12 4.54 7.23 0 3.12-1.77 5.88-4.58 7.21l-38.33 18.08c-.14.06-.28.1-.43.1z" fill="#2b2b2b"/><path d="m123.11 289.58 71.83-34.34v-12.67l-71.83 34.35z" fill="#2b2b2b"/><path d="m123.43 268.53 54.86-25.83v-14.93l-54.86 25.83z" fill="#f9d400"/><path d="m123.43 269.53c-.19 0-.37-.05-.54-.16-.29-.18-.46-.5-.46-.84v-14.93c0-.39.22-.74.57-.9l35.73-16.82c.5-.24 1.09-.02 1.33.48s.02 1.1-.48 1.33l-35.15 16.55v12.72l52.86-24.89v-12.72l-10.5 4.94c-.5.24-1.1.02-1.33-.48-.24-.5-.02-1.1.48-1.33l11.92-5.61c.31-.14.67-.12.96.06s.46.5.46.84v14.93c0 .39-.22.74-.57.9l-54.86 25.83c-.13.06-.28.1-.43.1z" fill="#2b2b2b"/><path d="m123.43 244.31 54.86-25.83v-14.93l-54.86 25.83z" fill="#f9d400"/><path d="m123.43 245.31c-.19 0-.37-.05-.54-.16-.29-.18-.46-.5-.46-.84v-14.93c0-.39.22-.74.57-.9l35.15-16.55c.5-.24 1.09-.02 1.33.48s.02 1.1-.48 1.33l-34.58 16.28v12.72l52.86-24.89v-12.72l-7.76 3.65c-.5.24-1.1.02-1.33-.48-.24-.5-.02-1.1.48-1.33l9.18-4.32c.31-.15.67-.12.96.06s.46.5.46.84v14.93c0 .39-.22.74-.57.9l-54.86 25.83c-.13.06-.28.1-.43.1z" fill="#2b2b2b"/><path d="m123.43 220.42 54.86-25.83v-14.93l-54.86 25.82z" fill="#f9d400"/><path d="m123.43 221.42c-.19 0-.37-.05-.54-.16-.29-.18-.46-.5-.46-.84v-14.93c0-.39.22-.74.57-.9l10.07-4.74c.5-.24 1.09-.02 1.33.48s.02 1.1-.48 1.33l-9.49 4.47v12.72l52.86-24.89v-12.72l-32.12 15.12c-.5.24-1.1.02-1.33-.48-.24-.5-.02-1.1.48-1.33l33.55-15.79c.31-.14.67-.12.96.06s.46.5.46.84v14.93c0 .39-.22.74-.57.9l-54.86 25.83c-.13.06-.28.1-.43.1z" fill="#2b2b2b"/><path d="m123.43 196.92 54.86-25.83v-14.93l-54.86 25.83z" fill="#f9d400"/><path d="m123.43 197.92c-.19 0-.37-.05-.54-.16-.29-.18-.46-.5-.46-.84v-14.93c0-.39.22-.74.57-.9l54.86-25.83c.31-.14.67-.12.96.06s.46.5.46.84v14.93c0 .39-.22.74-.57.9l-11.2 5.27c-.5.24-1.1.02-1.33-.48-.24-.5-.02-1.1.48-1.33l10.63-5v-12.72l-52.86 24.89v12.72l35.02-16.49c.5-.24 1.1-.02 1.33.48.24.5.02 1.1-.48 1.33l-36.45 17.16c-.13.06-.28.1-.43.1z" fill="#2b2b2b"/><path d="m123.43 172.7 54.86-25.83v-14.93l-54.86 25.82z" fill="#f9d400"/><path d="m123.43 173.7c-.19 0-.37-.05-.54-.16-.29-.18-.46-.5-.46-.84v-14.93c0-.39.22-.74.57-.9l32.84-15.46c.5-.24 1.1-.02 1.33.48.24.5.02 1.1-.48 1.33l-32.27 15.19v12.72l52.86-24.89v-12.72l-10.06 4.74c-.5.24-1.1.02-1.33-.48-.24-.5-.02-1.1.48-1.33l11.49-5.41c.31-.15.67-.12.96.06s.46.5.46.84v14.93c0 .39-.22.74-.57.9l-54.86 25.83c-.13.06-.28.1-.43.1z" fill="#2b2b2b"/><path d="m127.5 97.91-33.41-16.47v-15.28l33.41 16.47z" fill="#f9d400"/><path d="m127.5 98.91c-.15 0-.3-.03-.44-.1l-33.41-16.47c-.34-.17-.56-.52-.56-.9v-15.28c0-.35.18-.67.47-.85s.66-.2.97-.05l33.41 16.47c.34.17.56.52.56.9v15.28c0 .35-.18.67-.47.85-.16.1-.34.15-.53.15zm-32.41-18.09 31.41 15.48v-13.05l-31.41-15.48z" fill="#2b2b2b"/><path d="m78.99 106.1v15.29l48.49-23.36v-15.28" fill="#f9d400"/><path d="m78.99 122.39c-.19 0-.37-.05-.53-.15-.29-.18-.47-.5-.47-.85v-15.28c0-.55.45-1 1-1s1 .45 1 1v13.69l46.49-22.39v-14.65c0-.55.45-1 1-1s1 .45 1 1v15.28c0 .38-.22.73-.57.9l-48.49 23.35c-.14.07-.29.1-.43.1z" fill="#2b2b2b"/><path d="m45.61 104.94 48.48-23.36v-15.28l-48.48 23.36z" fill="#f9d400"/><path d="m45.61 105.94c-.19 0-.37-.05-.53-.15-.29-.18-.47-.5-.47-.85v-15.28c0-.38.22-.73.57-.9l48.49-23.35c.31-.15.67-.13.97.05.29.18.47.5.47.85v15.28c0 .38-.22.73-.57.9l-48.49 23.35c-.14.07-.29.1-.43.1zm1-15.65v13.06l46.49-22.39v-13.06z" fill="#2b2b2b"/><path d="m55.93 110.02-10.35-5.1v-15.29l33.41 16.47v15.29l-16.11-7.95" fill="#f9d400"/><path d="m78.99 122.39c-.15 0-.3-.03-.44-.1l-16.11-7.94c-.5-.24-.7-.84-.45-1.34.25-.49.84-.7 1.34-.45l14.67 7.23v-13.05l-31.41-15.48v13.05l9.79 4.83c.5.24.7.84.45 1.34-.24.5-.84.7-1.34.45l-10.35-5.1c-.34-.17-.56-.52-.56-.9v-15.28c0-.35.18-.67.47-.85s.66-.2.97-.05l33.41 16.47c.34.17.56.52.56.9v15.28c0 .35-.18.67-.47.85-.16.1-.34.15-.53.15z" fill="#2b2b2b"/><path d="m109.13 91.62 18.72-9-33.41-16.47-48.86 23.48 33.41 16.47 24.92-11.97" fill="#f9d400"/><path d="m78.99 107.1c-.15 0-.3-.03-.44-.1l-33.41-16.47c-.34-.17-.56-.52-.56-.9s.22-.73.57-.9l48.86-23.49c.28-.13.6-.13.88 0l33.41 16.47c.34.17.56.52.56.9s-.22.73-.57.9l-18.72 9c-.5.24-1.1.03-1.33-.47-.24-.5-.03-1.1.47-1.33l16.87-8.11-31.13-15.35-46.57 22.39 31.13 15.35 24.48-11.77c.5-.24 1.1-.03 1.33.47s.03 1.1-.47 1.33l-24.92 11.98c-.14.07-.29.1-.43.1z" fill="#2b2b2b"/><path d="m12.11 288.32 32.72 15.71 22.2 22.35-53.92-26.09-1.14-3.46z" fill="#2b2b2b"/><path d="m101.01 265.97v56.53l22.35-10.67v-28.82c-13.21-.34-19.51-10.02-22.35-17.05z" fill="#fff"/><path d="m101.01 132.2v133.77c2.84 7.03 9.13 16.71 22.35 17.05v-161.49z" fill="#2b2b2b"/><g clip-path="url(#b)"><path d="m127.22 242.01 7.88-16.05-12.55 15.14 3.42 2.02z" fill="#2b2b2b"/><path d="m125.97 243.64c-.09 0-.18-.02-.27-.07l-3.43-2.02c-.13-.08-.22-.21-.25-.36s.01-.31.11-.42l12.55-15.14c.17-.21.46-.25.69-.11.22.14.3.43.19.67l-7.87 16.05c-.03.06-.07.12-.12.16l-1.25 1.1c-.1.09-.22.13-.35.13zm-2.63-2.68 2.57 1.51.89-.78 5.88-11.99z" fill="#fff"/><path d="m124.13 240.71 4.06-5.45.94-1.27" fill="#2b2b2b"/><path d="m124.13 241.24c-.11 0-.22-.03-.31-.1-.23-.17-.28-.5-.11-.73l5-6.73c.17-.23.5-.28.73-.11s.28.5.11.73l-5 6.73c-.1.14-.26.21-.42.21z" fill="#fff"/><path d="m125.97 243.12-6.56-3.86c-.58-.34-1.29-.35-1.87-.02l-7.11 4 4.83 6.82.96-2.84 7.71-2.29 2.05-1.81z" fill="#2b2b2b"/><path d="m115.26 250.58c-.17 0-.33-.08-.43-.22l-4.83-6.82c-.09-.12-.12-.27-.08-.42.03-.15.12-.27.25-.34l7.11-4c.74-.42 1.66-.41 2.39.02l6.56 3.86c.15.08.24.23.26.4s-.05.33-.17.44l-2.05 1.81c-.06.05-.12.09-.2.11l-7.45 2.22-.87 2.58c-.06.19-.23.32-.42.35-.02 0-.05 0-.08 0zm-4.07-7.17 3.9 5.51.63-1.86c.05-.16.18-.29.35-.33l7.59-2.26 1.42-1.25-5.93-3.49c-.41-.24-.93-.25-1.35-.01l-6.61 3.71z" fill="#fff"/><path d="m113.51 248.2s.44-1.4 1.09-3.24 1.13-3.17 1.19-3.52-5.23 2.58-5.23 2.58l2.96 4.18z" fill="#2b2b2b"/><path d="m113.51 248.72c-.17 0-.33-.08-.43-.22l-2.96-4.18c-.09-.12-.12-.27-.08-.42.03-.15.13-.27.26-.34 5.27-2.92 5.47-2.79 5.78-2.57.17.12.26.34.22.53-.05.33-.34 1.14-.92 2.8l-.29.81c-.64 1.83-1.08 3.22-1.08 3.22-.06.19-.22.33-.42.36-.03 0-.05 0-.08 0zm-2.19-4.53 2.02 2.85c.19-.58.45-1.36.77-2.26l.29-.81c.23-.64.44-1.23.59-1.7-.88.42-2.29 1.17-3.66 1.92z" fill="#fff"/><g opacity=".1"><path d="m113.51 248.2s.44-1.4 1.09-3.24 1.13-3.17 1.19-3.52-5.23 2.58-5.23 2.58l2.96 4.18z" fill="#2b2b2b"/><path d="m113.51 248.72c-.17 0-.33-.08-.43-.22l-2.96-4.18c-.09-.12-.12-.27-.08-.42.03-.15.13-.27.26-.34 5.27-2.92 5.47-2.79 5.78-2.57.17.12.26.34.22.53-.05.33-.34 1.14-.92 2.8l-.29.81c-.64 1.83-1.08 3.22-1.08 3.22-.06.19-.22.33-.42.36-.03 0-.05 0-.08 0zm-2.19-4.53 2.02 2.85c.19-.58.45-1.36.77-2.26l.29-.81c.23-.64.44-1.23.59-1.7-.88.42-2.29 1.17-3.66 1.92z" fill="#fff"/></g><path d="m119.8 246.15-3.59 1.07-.96 2.84-.9-1.27s2.35-6.54 2.91-8 .93-2.18 1.2-.96" fill="#2b2b2b"/><path d="m115.26 250.58c-.17 0-.33-.08-.43-.22l-.9-1.27c-.1-.14-.12-.32-.07-.48.02-.07 2.36-6.56 2.91-8.01.46-1.22.78-1.97 1.41-1.92.57.04.73.73.79 1.03.06.28-.12.56-.4.63-.19.04-.38-.02-.5-.16-.09.21-.2.47-.32.79-.49 1.27-2.37 6.51-2.81 7.73l.14.2.63-1.86c.05-.16.18-.29.35-.33l3.59-1.07c.28-.08.57.08.65.35.08.28-.08.57-.35.65l-3.33.99-.87 2.58c-.06.19-.23.32-.42.35-.02 0-.05 0-.08 0z" fill="#fff"/><path d="m118.78 241.18c.14.67.5 2.41.84 4.1" fill="#2b2b2b"/><path d="m119.62 245.8c-.24 0-.46-.17-.51-.42l-.84-4.1c-.06-.28.12-.56.41-.62.28-.06.56.12.62.41l.84 4.1c.06.28-.12.56-.41.62-.04 0-.07.01-.11.01z" fill="#fff"/><path d="m118.43 236.27-12.21-13.55 3.88 17.73.33 2.78 7.11-4c.47-.26 1.01-.31 1.51-.14z" fill="#2b2b2b"/><path d="m110.43 243.76c-.08 0-.16-.02-.24-.06-.16-.08-.26-.23-.28-.41l-.33-2.78-3.87-17.67c-.05-.23.06-.47.27-.58s.47-.06.63.12l12.21 13.55c.06.07.1.15.12.24l.62 2.82c.04.18-.02.38-.16.5-.14.13-.33.17-.52.11-.36-.12-.76-.08-1.09.1l-7.11 4c-.08.04-.17.07-.26.07zm-3.27-19.22 3.46 15.79.25 2.06 6.43-3.61c.34-.19.71-.29 1.09-.3l-.43-1.95-10.8-11.98z" fill="#fff"/><path d="m128.02 241.31-4.1 3.62-7.7 2.29 4.5 1.12 21.92-8.98z" fill="#2b2b2b"/><path d="m120.72 248.87s-.08 0-.13-.02l-4.5-1.13c-.23-.06-.39-.26-.4-.5 0-.24.15-.45.38-.51l7.59-2.26 4.01-3.54c.08-.07.17-.11.28-.13l14.62-1.95c.27-.04.51.13.58.38s-.06.52-.31.62l-21.92 8.98c-.06.03-.13.04-.2.04zm-2.52-1.69 2.47.62 18-7.38-10.43 1.39-3.98 3.51c-.06.05-.12.09-.2.11l-5.87 1.75z" fill="#fff"/><path d="m125.95 244.32 9.93-2.95" fill="#2b2b2b"/><path d="m125.95 244.85c-.23 0-.43-.15-.5-.38-.08-.28.08-.57.35-.65l9.93-2.95c.28-.08.57.08.65.35.08.28-.08.57-.35.65l-9.93 2.95s-.1.02-.15.02z" fill="#fff"/><path d="m113.01 256.69 7.45-6.68 6.17-.14 1.23-4.45-7.14 2.92-4.5-1.12z" fill="#2b2b2b"/><path d="m113.01 257.22c-.1 0-.2-.03-.29-.09-.2-.13-.29-.38-.21-.61l3.2-9.47c.09-.26.36-.41.62-.34l4.33 1.08 6.99-2.86c.19-.08.4-.04.55.09s.21.34.16.53l-1.23 4.45c-.06.22-.26.38-.49.38l-5.98.14-7.3 6.55c-.1.09-.22.13-.35.13zm3.55-9.38-2.41 7.12 5.96-5.34c.09-.08.21-.13.34-.13l5.78-.13.84-3.05-6.16 2.52c-.1.04-.22.05-.33.02l-4.03-1.01z" fill="#fff"/><g opacity=".1"><path d="m113.01 256.69 7.45-6.68 6.17-.14 1.23-4.45-7.14 2.92-4.5-1.12z" fill="#2b2b2b"/><path d="m113.01 257.22c-.1 0-.2-.03-.29-.09-.2-.13-.29-.38-.21-.61l3.2-9.47c.09-.26.36-.41.62-.34l4.33 1.08 6.99-2.86c.19-.08.4-.04.55.09s.21.34.16.53l-1.23 4.45c-.06.22-.26.38-.49.38l-5.98.14-7.3 6.55c-.1.09-.22.13-.35.13zm3.55-9.38-2.41 7.12 5.96-5.34c.09-.08.21-.13.34-.13l5.78-.13.84-3.05-6.16 2.52c-.1.04-.22.05-.33.02l-4.03-1.01z" fill="#fff"/></g><path d="m120.46 250.01 6.17-.14 1.23-4.45-7.14 2.92-.24 1.09" fill="#2b2b2b"/><path d="m120.46 250.54c-.28 0-.52-.23-.52-.51 0-.12.04-.23.1-.32-.07-.11-.09-.25-.07-.38l.23-1.08c.04-.17.15-.31.31-.37l7.14-2.93c.19-.08.4-.04.55.09s.21.34.16.53l-1.23 4.45c-.06.22-.26.38-.49.38l-6.17.14s0 0-.01 0zm.71-1.82-.16.75 5.22-.12.84-3.05z" fill="#fff"/><path d="m107.23 238.91-2.75-.16c-.09 0-.18.05-.22.13l-1.91 4.47 3.48-3.57c.13-.13.34-.09.41.08l6.77 16.84 2.24-6.64-7.67-10.95c-.08-.12-.22-.19-.36-.2z" fill="#2b2b2b"/><path d="m113.01 257.22c-.21 0-.41-.13-.49-.33l-6.61-16.44-3.19 3.27c-.18.18-.45.21-.67.07-.21-.14-.29-.41-.19-.64l1.91-4.47c.13-.29.41-.47.73-.45l2.74.16c.31.02.58.17.76.42l7.67 10.95c.1.14.12.31.07.47l-2.24 6.64c-.07.21-.26.35-.48.36 0 0 0 0-.01 0zm-6.45-17.83c.08.07.14.17.18.27l6.24 15.52 1.7-5.04-7.5-10.71zm-1.9-.11-.72 1.68 1.52-1.56s.05-.05.08-.07z" fill="#fff"/><path d="m105.84 239.77-3.48 3.57 4.41-2.21-.51-1.28c-.07-.17-.29-.21-.41-.08z" fill="#2b2b2b"/><path d="m102.35 243.87c-.16 0-.32-.08-.42-.22-.15-.21-.13-.49.05-.68l3.48-3.57c.18-.19.45-.27.7-.22.26.05.47.23.57.47l.51 1.28c.1.25 0 .54-.25.66l-4.41 2.21c-.07.04-.15.06-.23.06zm3.57-3.43-1.01 1.04 1.19-.6z" fill="#fff"/><g opacity=".2"><path d="m105.84 239.77-3.48 3.57 4.41-2.21-.51-1.28c-.07-.17-.29-.21-.41-.08z" fill="#2b2b2b"/><path d="m102.35 243.87c-.16 0-.32-.08-.42-.22-.15-.21-.13-.49.05-.68l3.48-3.57c.18-.19.45-.27.7-.22.26.05.47.23.57.47l.51 1.28c.1.25 0 .54-.25.66l-4.41 2.21c-.07.04-.15.06-.23.06zm3.57-3.43-1.01 1.04 1.19-.6z" fill="#fff"/></g><path d="m109.56 254.49-3.29-13.11.49-.24 4.69 11.66z" fill="#2b2b2b"/><path d="m109.56 255.01c-.05 0-.1 0-.15-.02-.18-.05-.31-.2-.36-.37l-3.29-13.1c-.06-.24.05-.49.27-.6l.5-.25c.13-.06.28-.07.42-.02s.25.16.3.29l4.69 11.66c.08.2.03.44-.14.59l-1.89 1.69c-.1.09-.22.13-.35.13zm-1.9-10.24 2.2 8.74.97-.87-3.17-7.88z" fill="#fff"/><g opacity=".1"><path d="m109.56 254.49-3.29-13.11.49-.24 4.69 11.66z" fill="#2b2b2b"/><path d="m109.56 255.01c-.05 0-.1 0-.15-.02-.18-.05-.31-.2-.36-.37l-3.29-13.1c-.06-.24.05-.49.27-.6l.5-.25c.13-.06.28-.07.42-.02s.25.16.3.29l4.69 11.66c.08.2.03.44-.14.59l-1.89 1.69c-.1.09-.22.13-.35.13zm-1.9-10.24 2.2 8.74.97-.87-3.17-7.88z" fill="#fff"/></g><path d="m110.14 230.04-2.35-4.4" fill="#2b2b2b"/><path d="m110.14 230.56c-.19 0-.37-.1-.46-.28l-2.35-4.39c-.14-.25-.04-.57.21-.71.26-.14.57-.04.71.21l2.35 4.39c.14.25.04.57-.21.71-.08.04-.16.06-.25.06z" fill="#fff"/><path d="m114.98 239.07-4.3-8.03" fill="#2b2b2b"/><path d="m114.98 239.59c-.19 0-.37-.1-.46-.28l-4.3-8.03c-.14-.25-.04-.57.21-.71.26-.14.57-.04.71.21l4.3 8.03c.14.25.04.57-.21.71-.08.04-.16.06-.25.06z" fill="#fff"/><path d="m114.17 239.34-3.17.89" fill="#2b2b2b"/><path d="m111 240.76c-.23 0-.44-.15-.5-.38-.08-.28.08-.57.36-.65l3.17-.89c.29-.08.57.08.65.36s-.08.57-.36.65l-3.17.89s-.1.02-.14.02z" fill="#fff"/><path d="m117.81 236.8-2.21 1.78" fill="#2b2b2b"/><path d="m115.6 239.11c-.15 0-.3-.07-.41-.19-.18-.23-.15-.56.08-.74l2.21-1.79c.22-.18.55-.15.74.08.18.23.15.56-.08.74l-2.21 1.79c-.1.08-.21.12-.33.12z" fill="#fff"/><path d="m97.86 198.42-6.98-14.23 11.13 13.42-3.04 1.79z" fill="#2b2b2b"/><path d="m98.97 199.86c-.11 0-.22-.04-.31-.12l-1.11-.98s-.08-.09-.11-.14l-6.98-14.23c-.1-.21-.03-.47.17-.59.2-.13.46-.09.61.09l11.13 13.42c.09.1.12.24.1.38s-.1.25-.22.32l-3.04 1.79c-.07.04-.15.06-.24.06zm-.73-1.73.79.69 2.28-1.34-8.28-9.98z" fill="#fff"/><path d="m100.6 197.27-3.59-4.84-.84-1.13" fill="#2b2b2b"/><path d="m100.6 197.73c-.14 0-.28-.06-.37-.19l-4.43-5.96c-.15-.21-.11-.5.1-.65.2-.15.5-.11.65.1l4.43 5.96c.15.21.11.5-.1.65-.08.06-.18.09-.28.09z" fill="#fff"/><path d="m98.97 199.4 5.81-3.42c.51-.3 1.14-.31 1.66-.02l6.3 3.54-4.28 6.05-.85-2.51-6.83-2.03-1.82-1.6z" fill="#2b2b2b"/><path d="m108.47 206.01s-.04 0-.07 0c-.17-.03-.32-.15-.37-.31l-.77-2.29-6.6-1.96c-.06-.02-.12-.05-.17-.1l-1.82-1.6c-.11-.1-.17-.24-.16-.39s.1-.28.23-.36l5.81-3.42c.65-.38 1.47-.39 2.12-.02l6.3 3.54c.12.06.2.17.23.3s0 .26-.07.37l-4.28 6.05c-.09.12-.23.2-.38.2zm-7.46-5.42 6.73 2c.14.04.26.15.31.3l.56 1.65 3.46-4.88-5.85-3.29c-.37-.21-.83-.2-1.2.01l-5.26 3.1 1.26 1.11z" fill="#fff"/><path d="m110.01 203.9s-.39-1.24-.96-2.87c-.58-1.64-1-2.81-1.05-3.12s4.64 2.29 4.64 2.29l-2.62 3.71z" fill="#2b2b2b"/><path d="m110.01 204.37s-.05 0-.07 0c-.17-.03-.32-.15-.37-.32 0 0-.39-1.23-.96-2.86l-.26-.74c-.52-1.46-.76-2.17-.81-2.46-.03-.18.05-.37.2-.47.27-.19.45-.31 5.12 2.28.12.06.2.17.23.3s0 .26-.07.37l-2.62 3.71c-.09.12-.23.2-.38.2zm-1.3-5.72c.14.41.32.93.52 1.49l.26.74c.28.79.51 1.49.68 2l1.79-2.52c-1.21-.67-2.47-1.33-3.25-1.7z" fill="#fff"/><g opacity=".1"><path d="m110.01 203.9s-.39-1.24-.96-2.87c-.58-1.64-1-2.81-1.05-3.12s4.64 2.29 4.64 2.29l-2.62 3.71z" fill="#2b2b2b"/><path d="m110.01 204.37s-.05 0-.07 0c-.17-.03-.32-.15-.37-.32 0 0-.39-1.23-.96-2.86l-.26-.74c-.52-1.46-.76-2.17-.81-2.46-.03-.18.05-.37.2-.47.27-.19.45-.31 5.12 2.28.12.06.2.17.23.3s0 .26-.07.37l-2.62 3.71c-.09.12-.23.2-.38.2zm-1.3-5.72c.14.41.32.93.52 1.49l.26.74c.28.79.51 1.49.68 2l1.79-2.52c-1.21-.67-2.47-1.33-3.25-1.7z" fill="#fff"/></g><path d="m104.44 202.09 3.18.95.85 2.51.79-1.12s-2.08-5.79-2.58-7.09c-.49-1.29-.82-1.93-1.06-.85" fill="#2b2b2b"/><path d="m108.47 206.01s-.04 0-.07 0c-.17-.03-.32-.15-.37-.31l-.77-2.29-2.95-.88c-.25-.07-.39-.33-.31-.58.07-.25.33-.39.58-.31l3.18.95c.14.04.26.15.31.3l.56 1.65.13-.18c-.39-1.09-2.06-5.72-2.49-6.85-.12-.3-.21-.53-.28-.7-.11.12-.28.18-.45.14-.25-.06-.41-.3-.35-.55.06-.26.2-.88.7-.91.57-.02.84.62 1.25 1.7.49 1.28 2.56 7.04 2.58 7.1.05.14.03.3-.06.43l-.79 1.12c-.09.12-.23.2-.38.2z" fill="#fff"/><path d="m105.34 197.68c-.12.59-.44 2.14-.75 3.64" fill="#2b2b2b"/><path d="m104.6 201.78s-.06 0-.09 0c-.25-.05-.41-.3-.36-.55.31-1.5.63-3.04.75-3.63.05-.25.3-.42.55-.36.25.05.41.3.36.55-.12.59-.44 2.14-.75 3.64-.04.22-.24.37-.46.37z" fill="#fff"/><path d="m105.65 193.33 10.83-12.01-3.44 15.71-.29 2.47-6.3-3.54c-.41-.23-.9-.27-1.34-.13l.55-2.5z" fill="#2b2b2b"/><path d="m112.75 199.97c-.08 0-.16-.02-.23-.06l-6.3-3.54c-.29-.16-.65-.2-.96-.09-.16.05-.33.02-.46-.1-.12-.11-.18-.28-.14-.44l.55-2.5c.02-.08.05-.15.11-.21l10.83-12.01c.14-.16.37-.2.56-.1s.29.31.24.51l-3.44 15.71-.29 2.42c-.02.15-.11.29-.25.36-.07.03-.14.05-.21.05zm-7.05-4.69c.34.01.67.1.97.27l5.7 3.2.21-1.78 3.07-14.04-9.57 10.62z" fill="#fff"/><path d="m97.15 197.79 3.63 3.21 6.84 2.03-3.99 1-19.44-7.96z" fill="#2b2b2b"/><path d="m103.63 204.5c-.06 0-.12-.01-.18-.03l-19.43-7.97c-.22-.09-.33-.32-.27-.55s.29-.37.51-.34l12.96 1.73c.09.01.18.05.25.11l3.55 3.14 6.73 2c.2.06.34.25.33.46s-.15.39-.35.44l-3.99 1s-.07.01-.11.01zm-15.92-7.5 15.96 6.54 2.19-.55-5.2-1.55c-.06-.02-.12-.05-.17-.1l-3.53-3.11z" fill="#fff"/><path d="m98.99 200.47-8.8-2.62" fill="#2b2b2b"/><path d="m98.99 200.93s-.09 0-.13-.02l-8.8-2.62c-.25-.07-.39-.33-.31-.58.07-.25.33-.39.58-.31l8.8 2.62c.25.07.39.33.31.58-.06.2-.25.33-.45.33z" fill="#fff"/><path d="m110.46 211.43-6.6-5.92-5.48-.12-1.09-3.95 6.34 2.59 3.99-1z" fill="#2b2b2b"/><path d="m110.46 211.9c-.11 0-.22-.04-.31-.12l-6.47-5.81-5.3-.12c-.21 0-.38-.14-.44-.34l-1.09-3.95c-.05-.17 0-.35.14-.47.13-.12.32-.15.49-.08l6.19 2.54 3.84-.96c.23-.06.47.07.55.3l2.84 8.4c.07.2 0 .42-.18.54-.08.05-.17.08-.26.08zm-11.72-6.97 5.13.12c.11 0 .22.04.3.12l5.28 4.74-2.14-6.31-3.57.89c-.1.02-.2.02-.29-.02l-5.46-2.24z" fill="#fff"/><g opacity=".1"><path d="m110.46 211.43-6.6-5.92-5.48-.12-1.09-3.95 6.34 2.59 3.99-1z" fill="#2b2b2b"/><path d="m110.46 211.9c-.11 0-.22-.04-.31-.12l-6.47-5.81-5.3-.12c-.21 0-.38-.14-.44-.34l-1.09-3.95c-.05-.17 0-.35.14-.47.13-.12.32-.15.49-.08l6.19 2.54 3.84-.96c.23-.06.47.07.55.3l2.84 8.4c.07.2 0 .42-.18.54-.08.05-.17.08-.26.08zm-11.72-6.97 5.13.12c.11 0 .22.04.3.12l5.28 4.74-2.14-6.31-3.57.89c-.1.02-.2.02-.29-.02l-5.46-2.24z" fill="#fff"/></g><path d="m103.86 205.51-5.48-.12-1.09-3.95 6.34 2.59.21.96" fill="#2b2b2b"/><path d="m103.86 205.98h-.01l-5.47-.13c-.21 0-.38-.14-.44-.34l-1.09-3.95c-.05-.17 0-.35.14-.47.13-.12.32-.15.49-.08l6.33 2.6c.14.06.25.18.28.33l.21.96c.03.12 0 .24-.06.34.06.08.09.18.09.29 0 .25-.21.45-.46.45zm-5.12-1.05 4.63.11-.14-.67-5.23-2.14.75 2.7z" fill="#fff"/><path d="m115.58 195.67 2.43-.14c.08 0 .16.04.19.12l1.69 3.96-3.09-3.17c-.11-.11-.3-.08-.36.07l-6 14.92-1.99-5.88 6.8-9.7c.07-.11.19-.17.32-.18z" fill="#2b2b2b"/><path d="m110.46 211.9s0 0-.01 0c-.19 0-.37-.13-.43-.32l-1.99-5.88c-.05-.14-.03-.29.06-.42l6.8-9.7c.16-.22.4-.36.67-.38l2.43-.14c.28-.02.54.14.65.4l1.7 3.96c.09.21.02.44-.17.57-.18.12-.43.1-.59-.06l-2.83-2.9-5.86 14.58c-.07.18-.24.29-.43.29zm-1.48-6.28 1.51 4.47 5.53-13.76c.04-.09.09-.17.16-.24l-.55.03-6.65 9.49zm8.1-9.58s.05.04.08.07l1.35 1.38-.64-1.49-.78.05z" fill="#fff"/><path d="m116.82 196.44 3.09 3.17-3.91-1.96.46-1.14c.06-.15.25-.19.36-.07z" fill="#2b2b2b"/><path d="m119.91 200.07c-.07 0-.14-.02-.21-.05l-3.91-1.96c-.22-.11-.31-.36-.22-.59l.46-1.14c.09-.22.28-.37.5-.42.23-.04.46.03.62.19l3.09 3.17c.16.16.18.42.04.6-.09.12-.23.19-.38.19zm-3.32-2.65 1.06.53-.9-.92zm-.11-.66s0 0 0 0zm0 0s0 0 0 0t0 0z" fill="#fff"/><g opacity=".2"><path d="m116.82 196.44 3.09 3.17-3.91-1.96.46-1.14c.06-.15.25-.19.36-.07z" fill="#2b2b2b"/><path d="m119.91 200.07c-.07 0-.14-.02-.21-.05l-3.91-1.96c-.22-.11-.31-.36-.22-.59l.46-1.14c.09-.22.28-.37.5-.42.23-.04.46.03.62.19l3.09 3.17c.16.16.18.42.04.6-.09.12-.23.19-.38.19zm-3.32-2.65 1.06.53-.9-.92zm-.11-.66s0 0 0 0zm0 0s0 0 0 0t0 0z" fill="#fff"/></g><path d="m113.52 209.48 2.92-11.62-.44-.22-4.16 10.34z" fill="#2b2b2b"/><path d="m113.52 209.94c-.11 0-.22-.04-.31-.12l-1.68-1.5c-.15-.13-.19-.34-.12-.52l4.15-10.34c.05-.12.15-.22.27-.26.12-.05.26-.04.37.02l.44.22c.2.1.3.32.24.53l-2.92 11.62c-.04.16-.16.28-.32.33-.04.01-.09.02-.14.02zm-1.12-2.09.86.77 1.95-7.75z" fill="#fff"/><g opacity=".1"><path d="m113.52 209.48 2.92-11.62-.44-.22-4.16 10.34z" fill="#2b2b2b"/><path d="m113.52 209.94c-.11 0-.22-.04-.31-.12l-1.68-1.5c-.15-.13-.19-.34-.12-.52l4.15-10.34c.05-.12.15-.22.27-.26.12-.05.26-.04.37.02l.44.22c.2.1.3.32.24.53l-2.92 11.62c-.04.16-.16.28-.32.33-.04.01-.09.02-.14.02zm-1.12-2.09.86.77 1.95-7.75z" fill="#fff"/></g><path d="m113 187.8 2.09-3.89" fill="#2b2b2b"/><path d="m113 188.27c-.07 0-.15-.02-.22-.06-.23-.12-.31-.4-.19-.63l2.09-3.89c.12-.23.4-.31.63-.19s.31.4.19.63l-2.09 3.89c-.08.16-.24.25-.41.25z" fill="#fff"/><path d="m108.71 195.81 3.82-7.12" fill="#2b2b2b"/><path d="m108.71 196.28c-.07 0-.15-.02-.22-.06-.23-.12-.31-.4-.19-.63l3.82-7.12c.12-.23.4-.31.63-.19s.31.4.19.63l-3.82 7.12c-.08.16-.24.25-.41.25z" fill="#fff"/><path d="m109.43 196.05 2.81.79" fill="#2b2b2b"/><path d="m112.24 197.31s-.08 0-.13-.02l-2.81-.79c-.25-.07-.39-.33-.32-.57.07-.25.33-.39.57-.32l2.81.79c.25.07.39.33.32.57-.06.2-.24.34-.45.34z" fill="#fff"/><path d="m106.2 193.79 1.96 1.59" fill="#2b2b2b"/><path d="m108.16 195.84c-.1 0-.21-.03-.29-.1l-1.96-1.58c-.2-.16-.23-.45-.07-.65s.46-.23.65-.07l1.96 1.58c.2.16.23.45.07.65-.09.11-.23.17-.36.17z" fill="#fff"/><path d="m97.01 157.1-7.87-16.05 12.55 15.13-3.43 2.02z" fill="#2b2b2b"/><path d="m98.26 158.73c-.12 0-.25-.04-.35-.13l-1.25-1.1c-.05-.05-.09-.1-.12-.16l-7.87-16.05c-.12-.24-.04-.53.19-.67.22-.14.52-.1.69.11l12.55 15.14c.1.12.14.27.11.42s-.12.28-.25.36l-3.43 2.02c-.08.05-.17.07-.27.07zm-.82-1.96.89.78 2.57-1.51-9.34-11.26z" fill="#fff"/><path d="m100.1 155.8-4.05-5.46-.95-1.27" fill="#2b2b2b"/><path d="m100.1 156.32c-.16 0-.32-.07-.42-.21l-5-6.73c-.17-.23-.12-.56.11-.73s.56-.12.73.11l5 6.73c.17.23.12.56-.11.73-.09.07-.2.1-.31.1z" fill="#fff"/><path d="m98.26 158.2 6.56-3.86c.58-.34 1.29-.35 1.87-.02l7.11 4-4.83 6.82-.96-2.84-7.71-2.29-2.05-1.81z" fill="#2b2b2b"/><path d="m108.97 165.66s-.05 0-.08 0c-.2-.03-.36-.16-.42-.35l-.87-2.58-7.45-2.22c-.07-.02-.14-.06-.2-.11l-2.05-1.81c-.13-.11-.19-.28-.17-.44.02-.17.11-.32.26-.4l6.56-3.86c.73-.43 1.65-.44 2.39-.02l7.11 4c.13.07.22.2.25.34.03.15 0 .3-.08.42l-4.83 6.82c-.1.14-.26.22-.43.22zm-8.4-6.12 7.59 2.26c.16.05.29.17.35.33l.63 1.86 3.9-5.51-6.61-3.71c-.42-.24-.94-.23-1.35.01l-5.93 3.49 1.42 1.25z" fill="#fff"/><path d="m110.72 163.28s-.44-1.4-1.09-3.24-1.13-3.17-1.19-3.52 5.23 2.58 5.23 2.58l-2.96 4.18z" fill="#2b2b2b"/><path d="m110.72 163.81s-.05 0-.08 0c-.2-.03-.36-.17-.42-.36 0 0-.44-1.39-1.08-3.22l-.28-.8c-.59-1.66-.87-2.48-.92-2.81-.03-.2.06-.42.22-.53.32-.22.5-.35 5.78 2.57.13.07.22.2.26.34.03.15 0 .3-.08.42l-2.96 4.18c-.1.14-.26.22-.43.22zm-1.47-6.45c.16.47.37 1.06.6 1.7l.28.8c.31.89.58 1.68.77 2.26l2.02-2.85c-1.37-.75-2.79-1.5-3.66-1.92z" fill="#fff"/><g opacity=".1"><path d="m110.72 163.28s-.44-1.4-1.09-3.24-1.13-3.17-1.19-3.52 5.23 2.58 5.23 2.58l-2.96 4.18z" fill="#2b2b2b"/><path d="m110.72 163.81s-.05 0-.08 0c-.2-.03-.36-.17-.42-.36 0 0-.44-1.39-1.08-3.22l-.28-.8c-.59-1.66-.87-2.48-.92-2.81-.03-.2.06-.42.22-.53.32-.22.5-.35 5.78 2.57.13.07.22.2.26.34.03.15 0 .3-.08.42l-2.96 4.18c-.1.14-.26.22-.43.22zm-1.47-6.45c.16.47.37 1.06.6 1.7l.28.8c.31.89.58 1.68.77 2.26l2.02-2.85c-1.37-.75-2.79-1.5-3.66-1.92z" fill="#fff"/></g><path d="m104.43 161.24 3.59 1.07.96 2.84.9-1.27s-2.35-6.54-2.91-8-.93-2.18-1.2-.96" fill="#2b2b2b"/><path d="m108.97 165.66s-.05 0-.08 0c-.2-.03-.36-.16-.42-.35l-.87-2.58-3.33-.99c-.28-.08-.44-.37-.35-.65.08-.28.37-.43.65-.35l3.59 1.07c.16.05.29.17.35.33l.63 1.86.14-.2c-.44-1.23-2.32-6.46-2.81-7.73-.12-.32-.23-.59-.32-.79-.12.14-.31.2-.5.16-.28-.06-.46-.34-.4-.63.07-.3.22-.99.79-1.03.64-.04.94.7 1.41 1.91.55 1.45 2.88 7.94 2.91 8.01.06.16.03.34-.07.48l-.9 1.27c-.1.14-.26.22-.43.22z" fill="#fff"/><path d="m105.45 156.26c-.14.67-.5 2.41-.84 4.1" fill="#2b2b2b"/><path d="m104.61 160.89s-.07 0-.11-.01c-.28-.06-.47-.34-.41-.62l.84-4.1c.06-.28.34-.47.62-.41s.47.34.41.62l-.84 4.1c-.05.25-.27.42-.51.42z" fill="#fff"/><path d="m105.8 151.36 12.21-13.55-3.88 17.73-.33 2.78-7.11-4c-.47-.26-1.01-.31-1.51-.14z" fill="#2b2b2b"/><path d="m113.8 158.84c-.09 0-.18-.02-.26-.07l-7.11-4c-.33-.19-.73-.22-1.09-.1-.18.06-.38.02-.52-.11s-.2-.32-.16-.5l.62-2.82c.02-.09.06-.17.12-.24l12.21-13.55c.16-.18.42-.22.63-.12.21.11.32.35.27.58l-3.88 17.73-.32 2.73c-.02.17-.13.33-.28.41-.07.04-.16.06-.24.06zm-7.95-5.28c.38.01.76.12 1.09.3l6.43 3.61.24-2 3.47-15.84-10.8 11.98z" fill="#fff"/><path d="m96.21 156.39 4.1 3.62 7.7 2.29-4.49 1.13-21.93-8.99z" fill="#2b2b2b"/><path d="m103.51 163.95c-.07 0-.14-.01-.2-.04l-21.92-8.99c-.24-.1-.38-.37-.31-.62s.31-.42.58-.38l14.62 1.95c.1.01.2.06.28.13l4.01 3.54 7.59 2.26c.23.07.38.28.38.51 0 .24-.17.44-.4.5l-4.5 1.13s-.08.02-.13.02zm-17.96-8.45 18 7.38 2.47-.62-5.87-1.75c-.07-.02-.14-.06-.2-.11l-3.98-3.51-10.43-1.39z" fill="#fff"/><path d="m98.29 159.41-9.94-2.95" fill="#2b2b2b"/><path d="m98.29 159.93s-.1 0-.15-.02l-9.93-2.95c-.28-.08-.44-.37-.35-.65.08-.28.38-.43.65-.35l9.93 2.95c.28.08.44.37.35.65-.07.23-.28.38-.5.38z" fill="#fff"/><path d="m111.22 171.78-7.44-6.68-6.18-.14-1.23-4.46 7.15 2.93 4.49-1.13z" fill="#2b2b2b"/><path d="m111.22 172.3c-.13 0-.25-.05-.35-.13l-7.3-6.55-5.98-.14c-.23 0-.43-.16-.49-.38l-1.23-4.45c-.05-.19 0-.4.16-.53.15-.13.36-.17.55-.09l6.98 2.86 4.33-1.08c.26-.06.54.08.62.34l3.2 9.47c.08.23 0 .47-.21.61-.09.06-.19.09-.29.09zm-13.22-7.86 5.78.13c.12 0 .25.05.34.13l5.96 5.34-2.41-7.12-4.03 1.01c-.11.03-.22.02-.33-.02l-6.15-2.52z" fill="#fff"/><g opacity=".1"><path d="m111.22 171.78-7.44-6.68-6.18-.14-1.23-4.46 7.15 2.93 4.49-1.13z" fill="#2b2b2b"/><path d="m111.22 172.3c-.13 0-.25-.05-.35-.13l-7.3-6.55-5.98-.14c-.23 0-.43-.16-.49-.38l-1.23-4.45c-.05-.19 0-.4.16-.53.15-.13.36-.17.55-.09l6.98 2.86 4.33-1.08c.26-.06.54.08.62.34l3.2 9.47c.08.23 0 .47-.21.61-.09.06-.19.09-.29.09zm-13.22-7.86 5.78.13c.12 0 .25.05.34.13l5.96 5.34-2.41-7.12-4.03 1.01c-.11.03-.22.02-.33-.02l-6.15-2.52z" fill="#fff"/></g><path d="m103.78 165.1-6.18-.14-1.23-4.46 7.15 2.93.23 1.08" fill="#2b2b2b"/><path d="m103.78 165.62s0 0-.01 0l-6.17-.14c-.23 0-.43-.16-.49-.38l-1.23-4.45c-.05-.19 0-.4.16-.53.15-.13.36-.17.55-.09l7.14 2.93c.16.07.28.21.31.37l.24 1.08c.03.14 0 .27-.07.38.07.09.11.2.1.32 0 .29-.24.51-.52.51zm-5.78-1.18 5.22.12-.16-.75-5.9-2.42z" fill="#fff"/><path d="m117 153.99 2.75-.16c.09 0 .18.05.22.13l1.91 4.47-3.48-3.57c-.13-.13-.34-.09-.41.08l-6.77 16.84-2.24-6.64 7.67-10.95c.08-.12.22-.19.36-.2z" fill="#2b2b2b"/><path d="m111.22 172.3s0 0-.01 0c-.22 0-.41-.15-.48-.36l-2.24-6.64c-.05-.16-.03-.33.07-.47l7.67-10.95c.18-.25.45-.41.76-.42l2.75-.16c.34 0 .6.16.73.45l1.91 4.47c.1.23.02.5-.19.64s-.49.11-.67-.07l-3.19-3.27-6.61 16.44c-.08.2-.27.33-.49.33zm-1.66-7.08 1.7 5.04 6.24-15.52c.04-.1.1-.19.18-.27l-.62.04zm9.12-10.8s.06.05.09.08l1.52 1.56-.72-1.69-.88.05zm-.66.81s0 0 0 0z" fill="#fff"/><path d="m118.39 154.86 3.48 3.57-4.41-2.21.51-1.28c.07-.17.29-.21.41-.08z" fill="#2b2b2b"/><path d="m121.88 158.96c-.08 0-.16-.02-.23-.06l-4.41-2.21c-.24-.12-.35-.41-.25-.66l.51-1.28c.1-.24.31-.42.57-.47s.52.03.7.22l3.48 3.57c.18.18.2.47.05.68-.1.14-.26.22-.42.22zm-3.75-2.99 1.19.6-1.01-1.04z" fill="#fff"/><g opacity=".2"><path d="m118.39 154.86 3.48 3.57-4.41-2.21.51-1.28c.07-.17.29-.21.41-.08z" fill="#2b2b2b"/><path d="m121.88 158.96c-.08 0-.16-.02-.23-.06l-4.41-2.21c-.24-.12-.35-.41-.25-.66l.51-1.28c.1-.24.31-.42.57-.47s.52.03.7.22l3.48 3.57c.18.18.2.47.05.68-.1.14-.26.22-.42.22zm-3.75-2.99 1.19.6-1.01-1.04z" fill="#fff"/></g><path d="m114.67 169.57 3.29-13.1-.49-.25-4.69 11.66z" fill="#2b2b2b"/><path d="m114.67 170.1c-.13 0-.25-.05-.35-.13l-1.89-1.69c-.16-.15-.22-.38-.14-.59l4.69-11.66c.05-.14.16-.24.3-.29s.29-.04.42.02l.5.25c.22.11.33.36.27.6l-3.29 13.1c-.04.18-.18.32-.36.37-.05.02-.1.02-.15.02zm-1.26-2.36.97.87 2.2-8.74-3.17 7.88z" fill="#fff"/><g opacity=".1"><path d="m114.67 169.57 3.29-13.1-.49-.25-4.69 11.66z" fill="#2b2b2b"/><path d="m114.67 170.1c-.13 0-.25-.05-.35-.13l-1.89-1.69c-.16-.15-.22-.38-.14-.59l4.69-11.66c.05-.14.16-.24.3-.29s.29-.04.42.02l.5.25c.22.11.33.36.27.6l-3.29 13.1c-.04.18-.18.32-.36.37-.05.02-.1.02-.15.02zm-1.26-2.36.97.87 2.2-8.74-3.17 7.88z" fill="#fff"/></g><path d="m114.09 145.12 2.36-4.39" fill="#2b2b2b"/><path d="m114.09 145.65c-.08 0-.17-.02-.25-.06-.25-.14-.35-.45-.21-.71l2.35-4.39c.14-.26.46-.35.71-.21s.35.45.21.71l-2.35 4.39c-.09.18-.28.28-.46.28z" fill="#fff"/><path d="m109.25 154.15 4.3-8.02" fill="#2b2b2b"/><path d="m109.25 154.68c-.08 0-.17-.02-.25-.06-.25-.14-.35-.45-.21-.71l4.3-8.03c.14-.26.46-.35.71-.21s.35.45.21.71l-4.3 8.03c-.09.18-.28.28-.46.28z" fill="#fff"/><path d="m110.06 154.42 3.17.9" fill="#2b2b2b"/><path d="m113.23 155.84s-.09 0-.14-.02l-3.17-.9c-.28-.08-.44-.37-.36-.65s.36-.44.65-.36l3.17.9c.28.08.44.37.36.65-.07.23-.28.38-.5.38z" fill="#fff"/><path d="m106.42 151.88 2.21 1.79" fill="#2b2b2b"/><path d="m108.63 154.19c-.12 0-.23-.04-.33-.12l-2.21-1.79c-.22-.18-.26-.51-.08-.74s.51-.26.74-.08l2.21 1.79c.22.18.26.51.08.74-.1.13-.25.19-.41.19z" fill="#fff"/></g><path d="m101.01 323.2c-.19 0-.37-.05-.53-.15-.29-.18-.47-.5-.47-.85v-190c0-.39.22-.74.57-.9l22.35-10.67c.31-.15.67-.13.96.06.29.18.47.5.47.85v190c0 .39-.22.74-.57.9l-22.35 10.67c-.14.07-.28.1-.43.1zm1-190.37v187.78l20.35-9.71v-187.78z" fill="#2b2b2b"/></g></svg>