<svg xmlns:xlink="http://www.w3.org/1999/xlink" xmlns="http://www.w3.org/2000/svg" id="_レイヤー_2" data-name="レイヤー 2" viewBox="0 0 200 55.8124" width="200"  height="55.8124" >
  <g id="_レイヤー_1-2" data-name="レイヤー 1">
    <g>
      <g>
        <path d="M1.2549,16.4053c-.0119-.143-.039-.3198-.0806-.5286-.0419-.2096-.0867-.416-.1344-.619-.0481-.2031-.0958-.3584-.1435-.4661h1.2907c.2392,0,.4094-.0419.5113-.125.1011-.0839.1521-.2392.1521-.4669v-3.9443c-.5496.2039-1.0518.3888-1.506.5557-.4542.1677-.7649.2754-.9322.3231l-.4123-1.6853c.2984-.06.7049-.1702,1.2191-.3321.5138-.1611,1.058-.3371,1.6314-.5286v-3.5859H.2331v-1.5241h2.6175V.143h1.5961v3.3352h1.9183v1.5241h-1.9183v3.0483c.4538-.1677.8632-.3231,1.2282-.4661.3642-.1439.6244-.2573.7797-.3412v1.5422c-.1435.0839-.3975.2031-.7621.3584s-.7797.3231-1.2459.5023v5.1454c0,.5615-.1558.9709-.4661,1.2282-.3112.2573-.783.3856-1.4164.3856h-1.3092ZM15.9035,16.4596c-.8607-.2992-1.6795-.6609-2.4564-1.0851-.7773-.4242-1.488-.9289-2.1337-1.5151-1.4103,1.1599-3.1136,2.0198-5.11,2.5821-.0596-.2039-.1702-.448-.3317-.7349-.1611-.2869-.3079-.5261-.439-.7177.9203-.2154,1.7839-.5105,2.5908-.887s1.5447-.8344,2.2143-1.372c-.478-.6092-.8874-1.2849-1.2282-2.0256-.3408-.7415-.589-1.548-.744-2.421h-1.3092v-1.4518h3.5325v-2.3133h-3.7655v-1.5422h3.7655V.1611h1.6137v2.8148h3.9262v1.5422h-3.9262v2.3133h2.7429l.5919.6092c-.6219,2.1275-1.6137,3.909-2.9763,5.3427.5738.4784,1.2282.9059,1.9631,1.2824.7353.3765,1.5447.7021,2.4296.9774-.1196.1192-.245.2746-.3765.4661-.1315.1907-.2483.3732-.3498.5467-.1015.1726-.1763.3075-.224.4036ZM11.3673,11.6899c.9203-.9922,1.6018-2.1275,2.0441-3.4067h-3.6578c.2869,1.303.825,2.4383,1.6137,3.4067Z" style="fill: #fff;"/>
        <path d="M21.6514,16.3873v-7.6379c-.49.4908-.9799.9265-1.4699,1.3087-.1196-.1669-.2869-.3642-.5023-.5911-.215-.2269-.4184-.4004-.6096-.5204.5138-.3584,1.0457-.804,1.5956-1.3359s1.058-1.0991,1.5241-1.7033c.4661-.6034.8307-1.1739,1.0938-1.7124l1.058.5565v-1.0399h2.474V.1611h1.5241v3.5505h2.4206v1.4518h-2.4206v10.7223h-1.5241V5.1635h-2.3844c-.335.5976-.7353,1.1953-1.2015,1.7929v9.4309h-1.578ZM20.5219,4.6258c-.1554-.2269-.3317-.4546-.5286-.6815-.1973-.2269-.3798-.4004-.5471-.5196.7173-.3708,1.4136-.8311,2.0889-1.3811.6753-.5491,1.2039-1.0876,1.5866-1.6137l1.2372.9322c-.3107.3708-.6811.7621-1.1114,1.1747s-.8817.8007-1.354,1.1657c-.4723.3642-.9294.6725-1.3716.9232ZM24.9327,13.3398c-.1677-.0723-.4032-.1496-.7082-.2335-.305-.083-.5409-.1315-.7082-.143.1554-.3107.3075-.7111.4571-1.2019.1496-.49.2869-1.0243.4127-1.6047.1254-.5796.2298-1.1649.3136-1.7568.0834-.5919.1373-1.1443.1615-1.6589l1.3264.1077c-.0358.6938-.1134,1.4469-.2331,2.2591-.1196.813-.2659,1.5965-.439,2.3495-.1735.753-.3679,1.3803-.5829,1.8826ZM30.0428,3.4782c-.1792-.3231-.4036-.684-.6725-1.0843s-.529-.7448-.7797-1.0317l1.0038-.6453c.2511.2631.5228.6009.8159,1.0136.2927.4119.5167.7612.6725,1.0481-.1319.0723-.3021.18-.5109.3231-.2096.143-.3856.2688-.529.3765ZM30.0604,13.0702c-.0358-.3823-.0958-.8541-.1792-1.4164-.0839-.5615-.1825-1.1468-.2959-1.7568-.1134-.6092-.2302-1.1772-.3494-1.7033-.1196-.5261-.2331-.9503-.3408-1.2726l1.3268-.2516c.1792.5261.3523,1.1509.52,1.8735.1673.7234.3227,1.4592.4661,2.2056.1435.7473.2511,1.414.3227,1.9993-.1073.0123-.2631.0386-.4661.0806-.2035.0419-.3975.0839-.5829.1258s-.3255.0806-.4213.1159ZM30.9569,16.3519c-.0119-.2277-.0567-.4998-.1344-.8163s-.1525-.5648-.224-.744h1.3626c.2511,0,.4275-.0419.529-.125.1015-.0839.1525-.2392.1525-.4669v-7.5483h-1.7929v-1.4518h5.0023v1.4518h-1.6137v8.0506c0,.5261-.1587.9322-.4752,1.2191-.3169.2869-.804.4308-1.4612.4308h-1.3449ZM31.1542,2.7071v-1.4518h4.3212v1.4518h-4.3212Z" style="fill: #fff;"/>
        <path d="M50.147,15.007c-1.0761.1907-2.1222.3231-3.1379.3946-1.0161.0715-1.9664.0658-2.8505-.0181-.885-.0839-1.6618-.2598-2.331-.5286-.6696-.2696-1.1924-.6486-1.5689-1.1386s-.5648-1.1123-.5648-1.8653c0-.9561.3736-1.7864,1.1205-2.4917s1.7362-1.3153,2.9673-1.8291c-.3227-.7169-.5557-1.6524-.6992-2.8057s-.1911-2.4892-.1435-4.0076h1.7929c-.0715.7053-.0986,1.4493-.0806,2.2328.0181.7826.0806,1.5233.1883,2.2229s.2511,1.2939.4304,1.7839c.5976-.2031,1.222-.3971,1.8735-.5829.6515-.185,1.3178-.3609,1.9993-.5286l.3765,1.7214c-1.0757.143-2.1041.356-3.084.6363-.9803.2811-1.8468.61-2.5998.9865s-1.3478.7859-1.7839,1.2282c-.4365.4423-.6544.8903-.6544,1.3441,0,.5623.2421,1.007.7263,1.3359.4838.3288,1.1472.5467,1.9898.6544.843.1077,1.8049.1143,2.8867.0181,1.0819-.0954,2.2204-.2869,3.4157-.5738-.0839.2277-.1496.5228-.1973.8878-.0477.3642-.0715.6725-.0715.9232Z" style="fill: #fff;"/>
        <path d="M63.1963,12.2818c-.0839-.0954-.2363-.2516-.4571-.4661-.2215-.2154-.4098-.3708-.5652-.4661-.49.06-1.0486.125-1.6762.1973-.6277.0715-1.2672.1406-1.9183.2055-.6519.0658-1.2672.12-1.8468.1619-.58.0419-1.0671.0748-1.4612.0986l-.2692-1.3087c.2988,0,.7711-.0214,1.4164-.0633.6457-.0419,1.3449-.0863,2.0979-.134v-1.2915h-2.4744v-1.1476h2.4744v-1.2545h1.0218c-.0119-.0362-.0177-.0806-.0177-.1348v-1.6943h-.825c-.3227.7654-.7473,1.4074-1.273,1.9278-.5261.5196-1.2011.9766-2.026,1.3712-.06-.1315-.1735-.3075-.3408-.5286s-.3169-.3913-.448-.5113c1.2787-.5253,2.1752-1.2792,2.6894-2.2591h-2.3491v-1.2011h3.5682v-1.0761h-2.7614v-1.1476h2.7614V.1611h1.5418v1.3984h2.5283v1.1476h-2.5283v1.0761h3.1736v1.2011h-2.4206v.9141c0,.1324.0362.2187.1077.2606.0719.0419.2031.0625.3946.0625.2869,0,.499-.0181.6363-.0534.1373-.0362.2331-.1167.2869-.2425s.0986-.3313.1344-.6182c.1435.06.3379.125.5829.1973.245.0715.4452.125.6005.1611-.0839.6815-.2659,1.1386-.5467,1.3712-.2811.2335-.6967.3502-1.2463.3502h-1.1295c-.2392,0-.4304-.0181-.5738-.0543v.7349h2.3848v1.1476h-2.3848v1.1657c.55-.0362,1.0547-.0748,1.5151-.1167.46-.0419.8278-.0806,1.1028-.1167v.753c.8965-.6568,1.5714-1.5233,2.026-2.5994-.55-.4184-1.0103-.7292-1.3807-.9322l.7888-1.0761c.2869.1677.6277.3888,1.0223.6634.0954-.3823.1673-.7859.215-1.2101s.0777-.8755.0896-1.354h-1.9364v-1.3441h1.9364V.2326h1.4345v2.8156h3.084c-.1677.8722-.2992,1.7568-.3946,2.6528-.0958.8969-.1254,1.7395-.0896,2.5287.0358.7884.173,1.4584.4123,2.0075.1315-.2746.2631-.5557.3946-.8426.1311-.2869.2331-.5376.3046-.753.0958.0962.2602.2368.4932.4217s.4271.3255.5829.4209c-.1558.4069-.344.8311-.5648,1.2734-.2215.4423-.4217.7826-.6009,1.0218-.1673.2392-.3675.365-.6005.3765-.2331.0123-.4456-.0715-.6367-.2507-.4299-.4308-.7378-1.0309-.9232-1.802s-.2721-1.6499-.2598-2.6356c.0115-.9865.0954-2.0108.2507-3.0754h-1.4522c-.0358,1.3153-.1973,2.4744-.4842,3.479.2869.2269.5586.4513.8159.6716.2569.222.4809.4217.6725.6009-.06.06-.1558.1677-.2869.3231-.1319.1554-.2602.3107-.3856.4661s-.2183.2803-.2779.3765c-.1315-.1554-.2931-.3198-.4842-.4932s-.3884-.356-.5915-.5467c-.5981,1.2306-1.4826,2.2352-2.6537,3.0121ZM56.1318,16.5311c-.1315-.1315-.3403-.2992-.6272-.5023s-.52-.3469-.6992-.4299c.3103-.2392.642-.5557.9947-.9503s.6815-.8073.9865-1.2372c.3046-.4308.5405-.8245.7082-1.1838l1.3984.7711c-.3584.6453-.7921,1.2849-1.3001,1.9187-.508.633-.9947,1.1715-1.4612,1.6137ZM60.6503,16.4234c-.0243-.3231-.0691-.7144-.1344-1.1747-.0662-.4595-.141-.9141-.2244-1.3622s-.1673-.8097-.2507-1.0851l1.506-.3946c.0954.3116.1883.6938.2779,1.1476.0896.4546.1702.9117.2421,1.372.0715.4595.1254.8632.1611,1.2101-.1073.0115-.2659.0329-.4752.0625s-.4151.0658-.6186.1077c-.2031.0419-.3646.0806-.4838.1167ZM64.505,16.37c-.0477-.3354-.1225-.7358-.224-1.2019-.1019-.4661-.2125-.9289-.3317-1.3893-.1196-.4604-.2392-.8393-.3588-1.1386l1.4884-.3946c.1192.2992.2421.6725.3675,1.1205.1258.4489.245.9059.3588,1.372.1134.4661.194.8846.2417,1.2553-.1073.0115-.2631.0386-.4661.0806-.2031.0411-.4032.0896-.6005.143-.1973.0543-.356.1044-.4752.1529ZM69.4897,16.4596c-.1677-.3116-.4008-.6905-.6996-1.1386-.2988-.4489-.6124-.8936-.9413-1.3359s-.6363-.8073-.9232-1.0942l1.1476-.9322c.3227.3231.6601.6996,1.0128,1.1295.3527.4308.6873.8607,1.0042,1.2915.3165.4299.5705.8122.7621,1.1468-.1196.06-.2692.1496-.4484.2696-.1792.1192-.3555.2384-.529.3584-.1735.1192-.3017.2211-.3851.305Z" style="fill: #fff;"/>
        <path d="M85.5686,15.5989c-1.1953-.1439-2.25-.5023-3.1646-1.0761s-1.6314-1.3145-2.1514-2.2229-.7802-1.9245-.7802-3.0483c0-.5976.1015-1.2159.305-1.8554.2031-.6396.5167-1.2644.9413-1.8743.4242-.6092.9528-1.1468,1.5866-1.6137-.7411.1324-1.4941.2664-2.2591.4036-.7649.1381-1.5032.2721-2.2143.4036-.7115.1315-1.3478.254-1.9097.3675s-1.0042.2121-1.3268.2959l-.3765-1.7749c.3946-.0362.9326-.0962,1.6137-.1792.6815-.0839,1.446-.1915,2.2952-.3231.8484-.1315,1.7268-.2721,2.6356-.4217.908-.1488,1.7868-.3017,2.6356-.4571.8484-.1546,1.6137-.3042,2.2948-.448.6815-.143,1.2191-.2688,1.6137-.3765l.4304,1.6853c-.1554.0123-.3617.0362-.6186.0715-.2573.0362-.5467.0781-.8693.1258-.6815.1077-1.3301.3379-1.9454.6905-.6157.3527-1.1628.7974-1.6409,1.3359-.478.5376-.8513,1.1443-1.1205,1.8193-.2688.6757-.4032,1.3844-.4032,2.1251,0,.9446.2388,1.7453.7173,2.4021.4776.6577,1.1205,1.1747,1.9274,1.5513s1.7058.6248,2.6985.744c-.1915.2154-.3765.4908-.5561.8245-.1792.3346-.2988.61-.3584.8254ZM87.0747,8.9286c-.1554-.2507-.3527-.5196-.5915-.8065-.2392-.2869-.4875-.5615-.7444-.8245s-.4928-.4784-.7082-.6462l.7892-.6453c.1907.1554.4242.374.6992.6544.2746.2811.5405.5713.7978.8698.2569.2992.4571.55.6005.753l-.8426.6453ZM88.5988,7.6017c-.1554-.2384-.3588-.499-.6096-.7793-.2511-.2811-.5085-.55-.7711-.8073-.2631-.2565-.5019-.4686-.7173-.6363l.7888-.6634c.1911.143.4275.356.7082.6363.2807.2811.5528.5648.8159.8517s.4661.5319.6096.7349l-.8245.6634Z" style="fill: #fff;"/>
        <path d="M95.7094,15.5808V6.5265h-2.9044v-1.5422h2.9044V.9857h1.6853v3.9986h2.7075V.5738h1.5956v4.4104h2.7433V.9857h1.6137v3.9986h3.0478v1.5422h-3.0478v5.3427h-5.9527v-5.3427h-2.7075v7.494h10.8835v1.5603h-12.5687ZM101.6978,10.3631h2.7433v-3.8366h-2.7433v3.8366Z" style="fill: #fff;"/>
        <path d="M113.5546,16.513c-.06-.0962-.1496-.2302-.2688-.4036-.1196-.1735-.2454-.3469-.3765-.5196-.1319-.1735-.2511-.3025-.3588-.3856,1.4103-.4308,2.4592-1.0761,3.1469-1.9368.6868-.8607,1.0128-2.0141.977-3.4601-.6934.5138-1.4612.989-2.3039,1.4255s-1.7124.8097-2.6089,1.1205c-.0481-.1315-.1229-.2894-.224-.4752-.1019-.185-.2092-.3617-.3227-.5286-.1139-.1677-.2125-.2869-.2959-.3592.8126-.2031,1.6014-.4834,2.3668-.8426.7645-.3584,1.476-.7736,2.1333-1.2454.6572-.4727,1.2195-.9651,1.6857-1.4797h-3.6936V.6815h12.2461v6.741h-3.7474c.5138.5261,1.1295,1.0136,1.8468,1.4617s1.4612.8278,2.2323,1.1386c.7707.3107,1.497.5376,2.1785.6815-.1435.1907-.305.4357-.4842.7349-.1792.2984-.3112.5615-.3946.7884-.753-.2384-1.5151-.5434-2.2858-.9141-.7711-.3699-1.5093-.7892-2.2147-1.2553v6.2396h-1.6314v-6.7057h1.0042c-.4188-.3223-.8102-.6634-1.1743-1.0218-.365-.3584-.6844-.7407-.9594-1.1476h-1.058c-.2631.4069-.5709.7925-.9232,1.1567-.3527.365-.744.7201-1.1743,1.0671l1.3803.1077c.0238,1.7329-.3703,3.1461-1.183,4.2403-.813,1.0934-1.9845,1.9327-3.5144,2.5188ZM115.0964,3.4963h3.6221v-1.5241h-3.6221v1.5241ZM115.0964,6.1319h3.6221v-1.5241h-3.6221v1.5241ZM120.3679,3.4963h3.6217v-1.5241h-3.6217v1.5241ZM120.3679,6.1319h3.6217v-1.5241h-3.6217v1.5241Z" style="fill: #fff;"/>
        <path d="M139.6954,15.8858c-.9203,0-1.7453-.0929-2.474-.2779-.7292-.1858-1.3063-.4752-1.7305-.8698s-.6363-.915-.6363-1.5603c0-.5376.173-1.0309.52-1.4789.3465-.448.8217-.8632,1.4255-1.2463.6034-.3823,1.2759-.7292,2.017-1.0399v-.1973c0-.5376-.1106-.9141-.3317-1.1295-.2211-.2146-.5052-.3346-.8517-.3584-.6096-.0362-1.2191.06-1.8287.2869s-1.1653.6034-1.6676,1.1295c-.215.2269-.4723.49-.7711.7892-.2988.2984-.5676.55-.8065.753l-1.2015-1.2019c.8484-.5968,1.6466-1.3383,2.3935-2.2229s1.3716-1.811,1.8739-2.7794c-.7292.0362-1.3959.06-1.9993.0723-.6038.0115-1.0551.0115-1.3535,0l-.0719-1.5956c.3823.0353.9474.0534,1.6943.0534s1.557-.0238,2.4296-.0715c.155-.4184.2779-.8311.3675-1.2372s.1402-.7949.1525-1.1657l1.6495.1077c-.0358.7292-.1792,1.4584-.4304,2.1875.9203-.06,1.7839-.1373,2.5908-.2335.8069-.0954,1.4193-.1973,1.8378-.3042l.1077,1.5414c-.335.0715-.774.1406-1.3178.2063-.5442.0658-1.1419.1258-1.7929.1792-.6519.0543-1.3178.1052-1.9993.1529-.1792.4061-.4008.8213-.6634,1.2454-.2631.425-.5319.8278-.8069,1.2109.2869-.1554.6067-.2721.9594-.3502.3523-.0773.684-.1167.9951-.1167.7049,0,1.2668.1973,1.6853.5919s.6692,1.0161.753,1.8645c.7053-.2507,1.4193-.4752,2.1427-.6716.723-.1973,1.3893-.3683,1.9993-.5113l.4838,1.5241c-.8245.1192-1.6257.2779-2.4025.4752-.7773.1973-1.506.4151-2.1875.6544v2.4564h-1.6314v-1.8472c-.7053.3354-1.2763.6848-1.7124,1.049-.4365.365-.6544.7201-.6544,1.0671,0,.4546.2717.7834.8159.9865.5438.2031,1.3178.3042,2.322.3042.3823,0,.8069-.0263,1.273-.0806.4661-.0534.9351-.125,1.4074-.2154.4719-.0896.8994-.1883,1.282-.2951-.0243.1069-.0358.2655-.0358.4752,0,.2088.0058.4209.0177.6363s.0238.388.0358.5196v.0723c-.5976.1546-1.243.2713-1.9364.3494-.693.0773-1.3388.1167-1.9364.1167Z" style="fill: #fff;"/>
        <path d="M149.4941,7.6198c-.06-.083-.1582-.1998-.2955-.3494-.1377-.1496-.2811-.2959-.4304-.439-.1496-.1439-.2779-.2516-.3856-.3231.3346-.2154.6873-.4867,1.0576-.8155s.7234-.6815,1.058-1.058.6096-.7382.825-1.0851l1.2368.8607c-.2507.3946-.5528.7925-.9051,1.1928-.3531.4004-.7144.7736-1.0851,1.1205-.3703.3469-.7292.6453-1.0757.8961ZM149.028,16.5665c-.0358-.1315-.0896-.2951-.1611-.4924-.0719-.1973-.1496-.3888-.2335-.5738-.0834-.1858-.1611-.314-.2331-.3856,1.303-.1077,2.5521-.3288,3.7474-.6634s2.2829-.7473,3.2632-1.2372c-.3227-.2869-.6248-.5919-.9055-.9141-.2807-.3231-.5352-.67-.7621-1.0399-1.0038.8007-2.0618,1.4584-3.1736,1.9722-.0477-.1077-.1315-.2392-.2507-.3946-.1196-.1554-.2454-.314-.3765-.4752-.1319-.1611-.2511-.2836-.3588-.3675.7411-.2746,1.4822-.6577,2.2233-1.1476s1.4164-1.0309,2.026-1.6228,1.0819-1.1682,1.4164-1.7305l1.363.6815c-.12.1915-.2544.3856-.4036.5829-.1496.1973-.3079.3921-.4752.5829h5.1815l.5919.6453c-.4784.6453-.9861,1.2372-1.5241,1.7749-.5376.5385-1.1057,1.0284-1.7033,1.4707.9684.49,2.0231.8698,3.1646,1.1386s2.2919.4209,3.4515.4571c-.0839.1077-.1735.2688-.2688.4842-.0958.2146-.1792.4299-.2511.6453-.0715.2154-.1196.3765-.1435.4842-1.3868-.0962-2.7223-.3264-4.0072-.6905-1.2849-.365-2.4473-.8755-3.4872-1.5332-1.088.61-2.2714,1.1032-3.5501,1.4797-1.2792.3765-2.6656.6659-4.1597.8689ZM150.6598,9.6643c-.0719-.1677-.1944-.3946-.3679-.6815s-.3255-.49-.4571-.61c1.2787-.4538,2.2977-1.0966,3.0569-1.9269.7592-.8311,1.1743-1.9697,1.2463-3.4157h-5.4508v-1.3449h7.0645V0h1.7929v1.6853h7.0464v1.3449h-5.0743v3.3171c0,.55-.1496.9503-.448,1.2011-.2992.2507-.7596.3765-1.3807.3765h-1.1657c-.0238-.2031-.0686-.4538-.1344-.753-.0658-.2984-.1344-.5319-.2059-.6996h1.0757c.2388,0,.4094-.0386.5109-.1159.1015-.0781.1525-.2302.1525-.4579v-2.8682h-2.1518c-.0715,1.5537-.5438,2.8986-1.4164,4.0339-.8726,1.1361-2.1037,2.0026-3.6932,2.6002ZM156.8632,12.3895c.8488-.5385,1.5599-1.1361,2.1337-1.7929h-3.9805c.5023.693,1.1176,1.2907,1.8468,1.7929ZM163.4077,7.7094c-.1677-.2269-.3798-.4809-.6367-.7621-.2573-.2803-.5319-.5648-.8245-.8517-.2931-.2869-.5771-.5467-.8517-.7793-.2754-.2335-.5142-.4151-.7173-.5475l1.0938-1.0038c.3465.2269.714.5023,1.1024.8245.3884.3231.7649.6577,1.1295,1.0046s.6782.6807.9413,1.0038c-.0958.0477-.2269.1463-.3942.2959-.1677.1496-.3288.2984-.4842.448s-.275.2721-.3584.3675Z" style="fill: #fff;"/>
        <path d="M179.051,15.7066c-.6934,0-1.2496-.0904-1.6676-.2696-.4184-.1792-.7144-.5015-.8874-.9676-.1735-.4661-.2483-1.118-.2244-1.9549.0238-.7045,0-1.2068-.0715-1.506-.0719-.2984-.2154-.4957-.4304-.5911-.4542-.2039-.8726-.0723-1.2549.3938-.5738.6815-1.1328,1.3449-1.6766,1.9902s-1.0251,1.2191-1.4432,1.7214c-.4188.5023-.7415.8846-.9684,1.1476l-1.3807-1.0399c.2869-.2631.6605-.6453,1.1209-1.1476.46-.5023.9651-1.0638,1.5151-1.6853.5496-.6215,1.0995-1.2611,1.6495-1.9187.5496-.6568,1.0576-1.2726,1.5237-1.8464.4665-.5738.8488-1.058,1.1476-1.4526-.3946.0715-.8517.1496-1.3716.2335s-1.049.1587-1.5866.2236c-.538.0658-1.0284.1233-1.4703.171-.4423.0477-.783.083-1.0218.1069l-.2692-1.5595c.275,0,.6482-.0148,1.1205-.0452.4723-.0296.989-.074,1.5513-.134.5615-.06,1.1324-.1282,1.712-.2063.58-.0773,1.1234-.1611,1.6318-.2507.508-.0896.9351-.1825,1.282-.2779l1.1834,1.0038c-.1319.1077-.3469.3313-.6457.6725-.2988.3403-.6453.7473-1.0399,1.2191-.3942.4719-.8069.9651-1.2368,1.4789.143-.0592.3313-.0649.5648-.0181.2331.0485.4213.12.5648.2154.2869.1554.4986.3979.6363.7259.1373.3297.194.8944.1706,1.6951-.0243.693.0115,1.2011.1073,1.5233.0958.3231.2602.5261.4932.61s.5348.1258.9055.1258c.2869,0,.6244-.0148,1.0128-.0452.3884-.0296.7769-.0748,1.1653-.134.3884-.06.7201-.12.9951-.18-.0596.1915-.0986.4661-.1163.8254-.0181.3584-.0152.6453.009.8607-.538.083-1.118.1521-1.7391.2055-.6219.0543-1.1419.0814-1.5599.0814ZM177.5807,3.6393c-.2511-.0592-.5919-.1611-1.0223-.3042-.4304-.1439-.8874-.305-1.3716-.4842-.4838-.1792-.9294-.356-1.3355-.5294-.4065-.1726-.7115-.3198-.9146-.439l.753-1.3803c.1673.1069.4361.2392.8069.3938.3703.1562.7826.3173,1.2372.4842.4542.1677.8965.3198,1.3268.4571.4304.1381.7769.2368,1.0399.2959l-.52,1.506Z" style="fill: #fff;"/>
        <path d="M192.4373,15.4016c-1.3268,0-2.3039-.245-2.9315-.7349s-.9413-1.0942-.9413-1.811c0-.4546.1134-.8426.3408-1.1657.2269-.3231.5257-.5672.8965-.7349.3703-.1677.7588-.2507,1.1653-.2507.7888,0,1.437.2713,1.9454.8155.508.5442.8097,1.2339.9055,2.0708.5738-.1907,1.0576-.5171,1.4522-.9774.3946-.4595.5915-1.049.5915-1.7658,0-.55-.1282-1.0333-.3851-1.4526-.2573-.4176-.6129-.7464-1.0671-.9857s-.9803-.3584-1.5776-.3584c-1.5661,0-2.869.448-3.909,1.3441-.215.1915-.5019.4341-.8603.7267-.3588.2927-.6934.5524-1.0042.7793l-1.1119-1.2011c.5619-.3346,1.1657-.7645,1.811-1.2907s1.2878-1.1057,1.9274-1.7395c.6396-.633,1.2463-1.2849,1.8201-1.9541.5734-.6692,1.0757-1.3211,1.506-1.9541-.5023.1192-1.0757.2359-1.7214.3494-.6453.1134-1.2759.2088-1.8916.2869s-1.1386.1282-1.5689.1521l-.2865-1.5776c.3227.0123.7259.0033,1.2101-.0271.4842-.0296.998-.074,1.5418-.134s1.0757-.1282,1.5956-.2063.9865-.1644,1.3988-.2598c.4123-.0962.714-.1858.9055-.2696l1.2368.8434c-.275.5376-.6305,1.1082-1.0666,1.7116-.4365.6042-.9174,1.2109-1.4432,1.8201-.5261.61-1.0699,1.1953-1.6318,1.7576.275-.1315.5796-.2392.9146-.3231.3346-.0839.6572-.1258.968-.1258.8726,0,1.6376.1735,2.2952.5204.6572.3469,1.1743.8245,1.5508,1.4345.3765.6092.5648,1.3203.5648,2.1333,0,.873-.2183,1.6524-.6544,2.3396-.4365.6881-1.0399,1.2282-1.811,1.6228s-1.6647.5919-2.6804.5919ZM192.1323,13.8775h.2154c-.0358-.5261-.1792-.9561-.4304-1.2907s-.5681-.5023-.9503-.5023c-.2511,0-.4571.0625-.6186.1883-.1611.1258-.2421.3075-.2421.5467,0,.2992.1554.5442.4661.7349.3107.1915.8307.2992,1.5599.3231Z" style="fill: #fff;"/>
      </g>
      <g>
        <path d="M45.7569,51.6675h5.8924l-8.1583-20.0386s-.103-.461-.8085-.9961c-.704-.5354-1.3761-.4883-1.3761-.4883h-5.2361s-.723-.0199-1.3574.428c-.6332.4486-.9481,1.2046-.9481,1.2046l-8.0834,19.8903h17.9184l-.7973-3.2416h-9.8882l5.7621-14.1585,7.0802,17.4002Z" style="fill: #fff;"/>
        <path d="M192.9737,55.8124h7.0263l-9.7284-23.897s-.1254-.5505-.9642-1.1881c-.8399-.6377-1.6412-.5827-1.6412-.5827h-6.2474s-.8605-.0232-1.6169.5111c-.756.5347-1.129,1.4357-1.129,1.4357l-8.7723,21.5836H.2092v2.1135h185.0653l-.7361-2.1135h-7.5771l7.5662-18.6123,8.4462,20.7497Z" style="fill: #fff;"/>
        <path d="M137.9654,51.6675h5.8917l-8.1587-20.0386s-.1026-.461-.8081-.9961c-.7025-.5354-1.375-.4883-1.375-.4883h-5.239s-.7223-.0199-1.3555.428c-.6339.4486-.9477,1.2046-.9477,1.2046l-8.0834,19.8903h17.9188l-.7987-3.2416h-9.8864l5.7595-14.1585,7.0825,17.4002Z" style="fill: #fff;"/>
        <path d="M18.6486,30.1678H.2092v21.4997h5.5292v-15.9679h3.9112v15.9679h5.5213l.0094-15.9679h2.131s.6841-.0165,1.238.6122c.5545.6279.5426,1.2661.5426,1.2661v14.0896h5.5217l.0071-16.0589s.0666-2.2872-1.8562-4.0232c-1.9101-1.7233-4.1159-1.4177-4.1159-1.4177" style="fill: #fff;"/>
        <path d="M163.9441,51.6413h-18.4401v-21.4979h5.5213l.0064,15.9657h3.9116v-15.9657h5.5247l.0067,15.9657h2.1314s.6827.0187,1.238-.6111c.5542-.6275.5441-1.2653.5441-1.2653v-14.0893h5.521l.0075,16.0582s.067,2.2861-1.8562,4.0231c-1.9108,1.724-4.1163,1.4166-4.1163,1.4166" style="fill: #fff;"/>
        <path d="M62.3497,44.4304l-.0045,7.2371h-5.521v-7.1353l-10.3222-14.3644h5.8265l5.2716,7.4191s.6037.8321,1.9603.8321c1.3593,0,1.9786-.8253,1.9786-.8253l5.336-7.4258h5.8441l-10.3694,14.2626Z" style="fill: #fff;"/>
        <path d="M107.1166,40.9162c0-.7788.3808-1.1331.3808-1.1331l8.9449-9.4831h-6.7694l-9.7497,10.4227.0064-10.5548h-5.5322v21.4997h5.5202l.0056-10.5117,9.7497,10.3418h6.7582l-8.9326-9.4509s-.382-.3423-.382-1.1305" style="fill: #fff;"/>
        <path d="M73.7328,51.6675h18.2532v-4.8769l-12.6386-.0093v-4.0719h10.2249v-3.6176l-10.2249-.0082v-2.297s-.0188-.6852.6096-1.2394c.6283-.5535,1.2657-.5422,1.2657-.5422h10.7364v-4.8616h-18.2263v21.5241Z" style="fill: #fff;"/>
      </g>
    </g>
  </g>
</svg>