<svg xmlns:xlink="http://www.w3.org/1999/xlink" xmlns="http://www.w3.org/2000/svg" id="_レイヤー_2" data-name="レイヤー 2" viewBox="0 0 200 55.7374" width="200"  height="55.7374" >
  <g id="_レイヤー_1-2" data-name="レイヤー 1">
    <g>
      <g>
        <path d="M1.2535,16.3835c-.0117-.1433-.0387-.3195-.0804-.5282-.0423-.209-.0869-.4149-.1344-.6177-.0475-.2029-.0957-.3581-.1432-.4655h1.2893c.2388,0,.4084-.0417.51-.1253.1015-.0834.1526-.2387.1526-.4655v-3.9392c-.5493.2031-1.0504.388-1.5041.5551-.4536.1673-.7641.2747-.9313.3223l-.412-1.6831c.2987-.0596.7042-.1701,1.2177-.3312s1.0563-.3371,1.6296-.5282v-3.5811H.233v-1.5219h2.6144V.1432h1.5933v3.3304h1.916v1.5219h-1.916v3.0439c.4536-.167.8627-.3223,1.2265-.4655.3644-.1432.6238-.2566.7793-.3402v1.5398c-.1432.0837-.3973.2031-.7611.3581-.3644.1553-.7787.3223-1.2447.5013v5.1389c0,.5609-.1549.9697-.4654,1.2265-.3104.2565-.7817.385-1.4143.385h-1.3075ZM15.8822,16.4372c-.8591-.2985-1.6772-.6597-2.453-1.0833s-1.4859-.928-2.1308-1.513c-1.4084,1.158-3.1097,2.0171-5.1031,2.5784-.0599-.2031-.1696-.4476-.331-.7341s-.3075-.5254-.439-.7162c.9196-.2149,1.7816-.5103,2.5874-.8863s1.5428-.8326,2.2118-1.3698c-.4777-.6088-.8867-1.283-1.2265-2.0233-.3404-.74-.5886-1.5457-.7435-2.4172h-1.3069v-1.4503h3.5275v-2.3098h-3.7605v-1.5399h3.7605V.1612h1.6115v2.8111h3.9213v1.5399h-3.9213v2.3098h2.7394l.5909.6088c-.6209,2.1248-1.6115,3.9034-2.9723,5.3358.5728.4776,1.2265.9042,1.9606,1.2802s1.5428.7014,2.426.9758c-.1191.1192-.2447.2745-.3756.4655-.1315.1908-.2482.3729-.3492.5461-.1015.1729-.1766.3072-.2242.4029ZM11.3524,11.6743c.919-.9907,1.5991-2.1246,2.041-3.402h-3.6525c.2864,1.3012.8233,2.4352,1.6115,3.402Z" style="fill: #2b2b2b;"/>
        <path d="M21.6643,16.3655v-7.6277c-.4894.4896-.9788.9252-1.4683,1.3071-.1197-.167-.2864-.364-.5012-.5909-.2154-.2266-.4184-.3998-.6091-.5193.5135-.3581,1.0446-.8027,1.5939-1.3339.5487-.531,1.0563-1.0981,1.5217-1.701.4659-.6026.8298-1.1728,1.0921-1.71l1.0569.5551v-1.0385h2.4706V.1612h1.5223v3.5453h2.4172v1.4503h-2.4172v10.7074h-1.5223V5.1568h-2.3814c-.3345.597-.7341,1.1938-1.1995,1.7905v9.4182h-1.5757ZM20.5364,4.6196c-.1555-.2266-.3316-.4535-.5282-.6804-.1972-.2266-.3791-.3998-.5463-.5192.7159-.3699,1.4113-.8295,2.0862-1.3787.6743-.5489,1.2024-1.0861,1.5845-1.6115l1.2353.9311c-.3104.3701-.6801.761-1.1103,1.1728-.4296.4118-.8803.7999-1.3515,1.1638-.4718.3643-.9284.6715-1.3697.9221ZM24.9412,13.3216c-.1678-.0716-.4032-.1491-.7077-.2328-.304-.0834-.5399-.1312-.7071-.1432.1549-.3103.3075-.7101.4566-1.1997.1491-.4893.2864-1.0234.412-1.6025.125-.5788.2295-1.1639.3134-1.7547.0833-.5909.1367-1.1429.1608-1.6563l1.3251.1074c-.0358.6924-.1133,1.4444-.2324,2.2561-.1197.8119-.2658,1.5936-.439,2.3456s-.3668,1.3787-.5816,1.8801ZM30.0438,3.4737c-.179-.3223-.4026-.6832-.6713-1.0833-.2688-.3998-.5282-.7431-.7787-1.0296l1.0029-.6446c.2506.2627.5217.5998.8145,1.0117.2922.4118.5158.761.6713,1.0475-.1315.0716-.3016.1791-.5105.3223s-.385.2686-.5282.376ZM30.062,13.053c-.0358-.3819-.0957-.8533-.179-1.4145-.0839-.5609-.1825-1.1459-.2958-1.7547s-.23-1.1756-.3492-1.701c-.1191-.5251-.2324-.949-.3398-1.2713l1.3245-.2507c.1796.5254.3521,1.149.5194,1.8711.1672.7224.3222,1.4565.4659,2.2024.1432.7461.2506,1.4117.3222,1.9965-.1074.012-.2629.0389-.4659.0805-.203.042-.3967.0837-.5816.1254-.1854.042-.3257.0806-.4208.1164ZM30.9569,16.3297c-.0117-.2269-.0563-.4986-.1338-.8147-.078-.3165-.1526-.564-.2242-.7431h1.3609c.2506,0,.4266-.0417.5282-.1253.1015-.0834.1526-.2387.1526-.4655v-7.5382h-1.791v-1.4504h4.9958v1.4504h-1.6115v8.0395c0,.5251-.1584.9311-.4748,1.2176s-.8028.4297-1.4589.4297h-1.3433ZM31.1541,2.7037v-1.4504h4.315v1.4504h-4.315Z" style="fill: #2b2b2b;"/>
        <path d="M50.1864,14.9868c-1.0745.1908-2.1191.3223-3.1337.3939s-1.9636.0655-2.8468-.0179c-.8838-.0837-1.6596-.2596-2.328-.5282-.6684-.2686-1.1907-.6474-1.5669-1.137-.3756-.4893-.564-1.1102-.564-1.8622,0-.9549.3732-1.7844,1.1191-2.4889.7459-.7042,1.7341-1.313,2.9635-1.8263-.3222-.7162-.5551-1.6501-.6983-2.8022-.1432-1.1518-.1913-2.4858-.1432-4.0019h1.7904c-.0716.7045-.0986,1.4475-.0804,2.2292.0176.782.0804,1.5219.1878,2.2203.1074.6983.2506,1.2923.4296,1.7816.5968-.2028,1.2206-.3967,1.8714-.5819.6502-.1849,1.3163-.3609,1.9964-.5282l.3762,1.7189c-1.0745.1432-2.1015.3553-3.0797.6356-.9788.2806-1.8444.6088-2.5962.9848-.7523.376-1.3462.785-1.7816,1.2265-.436.4418-.6537.8894-.6537,1.3429,0,.5612.2418,1.0058.7253,1.334.483.3284,1.1455.5461,1.987.6536s1.8028.1136,2.8831.0179c1.0804-.0954,2.2171-.2865,3.4107-.573-.0833.2269-.1491.5224-.1966.8863-.0481.3643-.0716.6715-.0716.9221Z" style="fill: #2b2b2b;"/>
        <path d="M63.2752,12.2652c-.0839-.0954-.2359-.2507-.4566-.4655-.2212-.2149-.409-.3699-.564-.4655-.4894.0599-1.0475.1253-1.6742.197s-1.2652.1404-1.916.2059c-.6508.0658-1.2652.1195-1.8438.1612-.5792.042-1.0657.0747-1.4595.0985l-.2688-1.3071c.2981,0,.7699-.0207,1.4149-.0626.6443-.0417,1.3427-.0864,2.0944-.1343v-1.2892h-2.4706v-1.1459h2.4706v-1.2534h1.0211c-.0123-.0358-.0182-.0806-.0182-.1343v-1.6921h-.8233c-.3228.7641-.7465,1.4056-1.2717,1.9248s-1.1995.9758-2.0234,1.3698c-.0599-.1312-.1731-.3072-.3398-.5282-.1672-.2207-.3163-.3909-.4478-.5103,1.277-.5251,2.1725-1.2772,2.686-2.2561h-2.3456v-1.1997h3.5627v-1.0743h-2.757v-1.1459h2.757V.1612h1.5399v1.3966h2.5252v1.1459h-2.5252v1.0743h3.1695v1.1997h-2.4172v.9132c0,.1315.0358.2179.1074.2596.0716.042.203.0627.3938.0627.2864,0,.4982-.0179.6355-.0537.1373-.0358.233-.1164.287-.2417.0534-.1253.098-.3313.1338-.6177.1438.0599.3374.1253.5821.197.2447.0716.4448.1253.5997.1611-.0833.6804-.2658,1.137-.5458,1.3698-.2811.2328-.696.3492-1.2447.3492h-1.1279c-.2388,0-.4296-.0179-.5733-.0537v.7341h2.3814v1.1459h-2.3814v1.1638c.5493-.0358,1.0534-.0744,1.5135-.1164.4589-.0417.8263-.0806,1.1009-.1164v.752c.8955-.6563,1.5698-1.5219,2.0234-2.5963-.5493-.4177-1.0088-.728-1.3785-.9311l.7875-1.0743c.2864.1673.6267.388,1.0205.6625.0957-.3819.1672-.7848.2148-1.2086.0475-.4236.0775-.8743.0898-1.3519h-1.9336v-1.3429h1.9336V.2328h1.4325v2.8112h3.0797c-.1672.8715-.2987,1.7547-.3938,2.65-.0957.8953-.1256,1.7368-.0898,2.5247.0358.7878.1731,1.4565.412,2.0054.1309-.2745.2623-.5551.3938-.8416s.233-.5372.3046-.752c.0951.0957.2594.2359.4924.4208.2324.1852.4266.3254.5816.4208-.1549.4059-.3427.8298-.564,1.2713-.2207.4417-.4208.782-.5997,1.0206-.1672.2389-.3668.3642-.5997.376-.233.012-.4448-.0716-.6355-.2507-.4296-.4297-.7371-1.0296-.9219-1.7995-.1854-.7699-.2717-1.6473-.26-2.6321.0117-.9848.0957-2.0082.2506-3.0708h-1.4501c-.0358,1.3132-.1972,2.4709-.4836,3.4736.2864.2269.5581.4507.8145.6715.257.221.4806.4208.6719.5998-.0604.0599-.1555.1673-.287.3223-.1315.1553-.2594.3105-.385.4655-.125.1553-.2177.2806-.2776.376-.1315-.155-.2922-.3192-.483-.4924-.1913-.1729-.3885-.355-.5909-.5461-.5974,1.2296-1.4806,2.2323-2.6502,3.0081ZM56.2203,16.5088c-.1315-.1315-.3398-.2985-.6267-.5013-.2864-.2031-.5188-.3464-.6978-.4297.3099-.2389.6414-.5551.9935-.949s.6801-.8057.9847-1.2355c.3046-.4297.5399-.8236.7071-1.1817l1.3967.7699c-.358.6446-.7911,1.2833-1.2981,1.9159-.5076.6326-.9935,1.1697-1.4595,1.6115ZM60.7325,16.4014c-.0241-.3223-.0687-.7134-.1344-1.1728s-.1403-.9132-.2236-1.3608c-.0833-.4476-.1672-.8085-.2506-1.0833l1.5041-.3939c.0951.3105.1878.6924.2776,1.1459.0892.4538.1702.9104.2418,1.3698s.125.8622.1608,1.2086c-.1074.0117-.2658.0327-.4742.0626-.2089.0297-.4149.0655-.6179.1075-.203.0417-.3644.0805-.4836.1164ZM64.5821,16.3476c-.0475-.3343-.1221-.7341-.2236-1.1996s-.2118-.928-.3316-1.3877c-.1191-.4594-.2388-.8385-.358-1.137l1.4865-.3939c.1191.2985.2418.6715.3668,1.1191.1256.4476.2447.9042.358,1.3698.1138.4655.1942.8833.2418,1.2534-.1074.0118-.2623.0386-.4654.0806-.203.0417-.4026.0895-.5997.1433-.1972.0537-.3556.1043-.4748.1522ZM69.5603,16.4372c-.1678-.3105-.4002-.6894-.6983-1.137-.2987-.4476-.6121-.8922-.9401-1.334-.3286-.4414-.6355-.8057-.9225-1.0922l1.1461-.9311c.3222.3223.6596.6983,1.0117,1.128.3521.4297.6866.8595,1.0029,1.2892.3157.4297.5698.8116.7605,1.1459-.1191.0596-.2682.1491-.4472.2686-.179.1192-.3556.2387-.5282.3581-.1737.1192-.3016.2207-.385.3044Z" style="fill: #2b2b2b;"/>
        <path d="M85.6696,15.5777c-1.1936-.1432-2.247-.5013-3.1601-1.0743s-1.6296-1.313-2.149-2.2203c-.5194-.907-.7787-1.9217-.7787-3.0439,0-.5967.1015-1.2145.3046-1.8532.2025-.6384.5158-1.2623.9401-1.8711.4231-.6088.9513-1.1459,1.5845-1.6115-.7406.1315-1.4923.2658-2.2564.4029-.7641.1374-1.5011.2717-2.2112.4029-.7101.1315-1.3456.2538-1.9066.3671-.5616.1136-1.0029.2121-1.3251.2954l-.3762-1.7726c.3938-.0358.9313-.0954,1.6115-.179.6807-.0834,1.4442-.1908,2.2922-.3223.8474-.1312,1.7247-.2714,2.632-.4208.9067-.1491,1.7846-.3013,2.632-.4566.8474-.155,1.6115-.3044,2.2922-.4476.6801-.1432,1.2171-.2686,1.6115-.376l.4296,1.6831c-.1555.012-.3615.0358-.6179.0716s-.5458.0778-.8685.1253c-.6801.1074-1.328.3374-1.9424.6894-.615.3522-1.1614.7968-1.6385,1.334-.4777.5372-.8503,1.1431-1.1191,1.8174-.2688.6745-.4026,1.3818-.4026,2.1218,0,.9431.2383,1.743.7159,2.3993.4771.6566,1.1191,1.1728,1.9248,1.5488s1.7036.6239,2.6948.7431c-.1913.2149-.3762.4896-.5551.8237-.179.334-.2981.6088-.358.8236ZM87.1736,8.9169c-.1555-.2507-.3521-.5193-.5909-.8057s-.4865-.5609-.7429-.8236c-.257-.2624-.4924-.4773-.7071-.6446l.7875-.6446c.1907.1553.4237.3732.6983.6536.2746.2806.5399.5702.7969.8684.2564.2985.4566.5492.5997.752l-.8415.6446ZM88.6953,7.5919c-.1549-.2386-.358-.4983-.6086-.7789-.2506-.2803-.5076-.5489-.7699-.8057-.2629-.2565-.5012-.4683-.7159-.6356l.7875-.6625c.1907.1432.4266.3553.7071.6357.2805.2806.5522.564.8151.8505.2623.2865.4654.5313.6086.7341l-.8239.6625Z" style="fill: #2b2b2b;"/>
        <path d="M95.8395,15.5598V6.5176h-2.9002v-1.5399h2.9002V.9848h1.6836v3.9929h2.7036V.573h1.5933v4.4047h2.7399V.9848h1.6115v3.9929h3.0439v1.5399h-3.0439v5.3358h-5.9447v-5.3358h-2.7036v7.4845h10.8682v1.5578h-12.5519ZM101.8199,10.3493h2.7399v-3.8318h-2.7399v3.8318Z" style="fill: #2b2b2b;"/>
        <path d="M113.7152,16.4909c-.0599-.0957-.1496-.23-.2688-.4029-.1191-.1732-.2447-.3464-.3756-.5193-.132-.1732-.2512-.3016-.3586-.385,1.4084-.4297,2.4559-1.0743,3.1425-1.9338s1.0117-2.0113.9759-3.4557c-.6925.5134-1.4595.9879-2.301,1.4235-.8415.4359-1.71.8088-2.605,1.1191-.0481-.1312-.1226-.2893-.2242-.4745-.1015-.1849-.2089-.3609-.3222-.5282-.1133-.167-.2118-.2865-.2952-.3581.8116-.2028,1.5991-.4834,2.3632-.8415.7641-.3581,1.4741-.7728,2.1308-1.2444.6567-.4714,1.2177-.9638,1.6831-1.4772h-3.6883V.6804h12.2291v6.7324h-3.7423c.5135.5254,1.1285,1.0117,1.8444,1.4593.7165.4476,1.4595.8267,2.2294,1.137.7699.3105,1.4947.5372,2.1754.6804-.1432.1911-.3046.4359-.4836.7341-.179.2985-.3104.5612-.3938.7878-.7523-.2386-1.5129-.543-2.2828-.9132-.7699-.3699-1.5076-.7878-2.2118-1.2534v6.231h-1.6291v-6.6966h1.0029c-.4184-.3223-.8092-.6625-1.1731-1.0206-.3644-.3581-.6837-.74-.9577-1.1459h-1.0569c-.2623.4059-.5698.7909-.9219,1.1549-.3521.3643-.7429.7193-1.1725,1.0653l1.3785.1075c.0241,1.7309-.3703,3.1424-1.1819,4.2346-.8116,1.0922-1.9818,1.9307-3.5093,2.5157ZM115.255,3.4916h3.6167v-1.522h-3.6167v1.522ZM115.255,6.1237h3.6167v-1.522h-3.6167v1.522ZM120.519,3.4916h3.6173v-1.522h-3.6173v1.522ZM120.519,6.1237h3.6173v-1.522h-3.6173v1.522Z" style="fill: #2b2b2b;"/>
        <path d="M139.8717,15.8642c-.919,0-1.7429-.0926-2.4706-.2775-.7283-.1852-1.3045-.4745-1.7282-.8684s-.6355-.9132-.6355-1.5578c0-.5372.1731-1.0296.5194-1.4772.3462-.4476.8204-.8622,1.4237-1.2444.6021-.3819,1.274-.728,2.014-1.0385v-.197c0-.5371-.1103-.9132-.331-1.128-.2212-.2149-.5047-.334-.8509-.3581-.6086-.0358-1.2171.0599-1.8262.2865-.6086.2269-1.1637.6029-1.6649,1.128-.2154.2269-.4718.4896-.7699.7878-.2987.2985-.5675.5492-.8057.752l-1.2001-1.1996c.8474-.5967,1.6443-1.3368,2.3908-2.2203.7459-.8832,1.3697-1.8084,1.8708-2.7753-.7283.0358-1.3937.0599-1.9964.0716-.6027.012-1.0534.012-1.3521,0l-.0716-1.5936c.382.0358.946.0537,1.6924.0537.7459,0,1.5545-.0238,2.426-.0716.1549-.4177.2776-.8295.3668-1.2355.0898-.4057.1403-.7937.1526-1.1638l1.6473.1074c-.0358.7282-.179,1.4565-.4296,2.1845.919-.0596,1.7816-.1371,2.5874-.2328.8057-.0954,1.4172-.197,1.835-.3044l.1074,1.5399c-.3345.0716-.7729.1405-1.3163.2059-.5428.0658-1.1396.1253-1.7904.1791s-1.3157.1046-1.9964.1522c-.179.406-.4002.8209-.6625,1.2444-.2623.4239-.5311.8267-.8057,1.2086.2864-.155.6056-.2714.9583-.3492.3515-.0775.6831-.1164.9935-.1164.7042,0,1.2652.197,1.6831.5909s.6684,1.0147.7523,1.8622c.7042-.2507,1.4172-.4745,2.1396-.6715.7218-.197,1.3873-.3671,1.9964-.5103l.4836,1.5219c-.8239.1195-1.6238.2775-2.3996.4745s-1.5041.4149-2.1842.6536v2.4531h-1.6296v-1.8443c-.7042.3344-1.274.6835-1.71,1.0475-.436.3643-.6532.7193-.6532,1.0654,0,.4538.2711.782.8145.9848.5428.2031,1.3157.3044,2.3186.3044.382,0,.8057-.0268,1.2711-.0806.4659-.0537.9342-.1253,1.4061-.2149.4712-.0895.8979-.188,1.2799-.2954-.0241.1074-.0358.2658-.0358.4745,0,.209.0059.4208.0182.6356.0117.2149.0235.3878.0358.5193v.0716c-.5974.155-1.2417.2714-1.9342.3492-.6925.0775-1.3368.1164-1.9336.1164Z" style="fill: #2b2b2b;"/>
        <path d="M149.7124,7.6098c-.0599-.0834-.1584-.1998-.2952-.3492-.1373-.1491-.2805-.2954-.4302-.4387-.1491-.1432-.277-.2507-.385-.3223.3345-.2149.6866-.4863,1.0569-.8147.3697-.3282.7218-.6804,1.0563-1.0564.3339-.376.6086-.7369.8233-1.0833l1.2359.8595c-.2506.3939-.5522.7909-.9043,1.1907-.3521.4001-.7136.773-1.0833,1.1191-.3703.3464-.7283.6446-1.0745.8953ZM149.247,16.5446c-.0358-.1315-.0898-.2954-.1614-.4924s-.1491-.388-.2324-.573c-.0839-.1852-.1614-.3133-.233-.385,1.301-.1074,2.5486-.3282,3.7423-.6625,1.1936-.334,2.2799-.7459,3.2587-1.2355-.3222-.2865-.6238-.5909-.9043-.9132s-.534-.6684-.7611-1.0385c-1.0023.7999-2.0586,1.4565-3.1689,1.9696-.0481-.1074-.1315-.2387-.2506-.3939-.1197-.155-.2447-.3134-.3762-.4745-.1315-.1612-.2506-.2834-.358-.3671.74-.2745,1.48-.6563,2.22-1.1459.74-.4893,1.4149-1.0296,2.0234-1.6204.6085-.5909,1.0804-1.1667,1.4143-1.7279l1.3609.6804c-.1191.1911-.2535.385-.4026.5819-.1496.197-.3075.3911-.4748.5819h5.1747l.5909.6446c-.4777.6446-.9847,1.2355-1.5223,1.7726-.537.5372-1.1038,1.0268-1.7007,1.4683.9671.4896,2.0199.8684,3.1601,1.137,1.1396.2686,2.2887.4208,3.4471.4566-.0839.1074-.1731.2686-.2688.4834s-.179.4297-.2506.6446-.1197.376-.1432.4834c-1.3849-.0957-2.7188-.3254-4.0022-.6894-1.2828-.3643-2.4436-.8743-3.4823-1.5309-1.0862.6088-2.2681,1.1012-3.5451,1.4772-1.2775.376-2.6625.6653-4.1542.8684ZM150.8761,9.651c-.0716-.167-.1937-.394-.3668-.6804-.1731-.2865-.3251-.4893-.4566-.6088,1.277-.4535,2.2945-1.095,3.0527-1.9248.7582-.8295,1.1731-1.9665,1.2447-3.411h-5.4435v-1.3429h7.055V0h1.7904v1.6831h7.0368v1.3429h-5.0673v3.3125c0,.5492-.1491.949-.4478,1.1997-.2981.2507-.7582.376-1.3785.376h-1.1637c-.0241-.2028-.0692-.4535-.1344-.752-.0657-.2982-.1344-.531-.206-.6983h1.0745c.2383,0,.4084-.0386.51-.1164.1015-.0775.1526-.2297.1526-.4566v-2.8649h-2.149c-.0716,1.5519-.5434,2.8948-1.4143,4.0287-.8715,1.1342-2.1015,1.9995-3.6889,2.5963ZM157.0713,12.3726c.848-.5372,1.5581-1.1339,2.1308-1.7906h-3.9747c.5012.6924,1.1162,1.2892,1.8438,1.7906ZM163.607,7.6993c-.1672-.2266-.3791-.4804-.6355-.761-.257-.2803-.5311-.564-.8233-.8505-.2928-.2865-.5763-.5461-.8509-.7789s-.5135-.4146-.7159-.5461l1.0921-1.0027c.3462.2269.713.5013,1.1009.8236.3879.3223.7641.6566,1.1285,1.0027.3638.3463.6772.6804.9401,1.0027-.0962.0478-.2271.1463-.3944.2954-.1672.1494-.328.2985-.4836.4476-.1549.1494-.2746.2717-.358.3671Z" style="fill: #2b2b2b;"/>
        <path d="M179.2785,15.6851c-.6925,0-1.2476-.0895-1.6654-.2686-.4178-.1791-.7136-.5014-.8861-.9669-.1731-.4655-.2482-1.116-.2242-1.9517.0241-.7042,0-1.2055-.0716-1.504-.0716-.2983-.2148-.4952-.4296-.5909-.4536-.2028-.8715-.0716-1.2535.394-.5728.6804-1.1308,1.3429-1.6742,1.9875-.5428.6446-1.0234,1.2176-1.4413,1.7189s-.74.8832-.9665,1.1459l-1.3791-1.0385c.2864-.2624.6596-.6446,1.1191-1.1459s.9642-1.0623,1.5129-1.6831c.5493-.6205,1.0986-1.2592,1.6478-1.9159.5487-.6563,1.0563-1.2713,1.5217-1.8443s.8474-1.0564,1.1461-1.4503c-.3944.0716-.8509.1494-1.3697.2328-.5194.0836-1.0475.1584-1.585.2238-.537.0657-1.0264.1225-1.4683.1701-.4413.0478-.7817.0837-1.0205.1074l-.2682-1.5578c.2741,0,.6473-.0148,1.1191-.0448.4712-.0297.9871-.0744,1.5487-.1343.561-.0596,1.1308-.1281,1.71-.2059.5786-.0775,1.1214-.1611,1.6291-.2507s.9342-.1819,1.2805-.2775l1.1819,1.0027c-.132.1074-.3468.3313-.6449.6715-.2987.3402-.6443.7461-1.0387,1.2176-.3938.4717-.8057.9641-1.2353,1.4772.1432-.0596.3316-.0655.564-.0179.233.0478.4208.1195.564.2149.287.1553.4982.397.6361.7252.1367.3284.1937.8925.1696,1.692-.0241.6924.0117,1.1997.1074,1.522s.26.5254.4929.6088c.2324.0837.534.1254.9037.1254.287,0,.6238-.0149,1.0117-.0448.3879-.0296.7758-.0744,1.1643-.1343.3873-.0596.7189-.1192.9935-.1791-.0599.1911-.0986.4655-.1162.8236-.0182.3581-.0153.6446.0088.8595-.537.0834-1.1162.1522-1.737.2059-.6209.0537-1.1396.0806-1.5575.0806ZM177.8102,3.6348c-.2506-.0596-.5909-.1611-1.0205-.3044-.4302-.1432-.8867-.3044-1.3703-.4834-.483-.1791-.9278-.355-1.3339-.5282-.4055-.1729-.7101-.3192-.9131-.4387l.7523-1.3787c.1667.1074.4354.2389.8057.3939.3697.1553.7817.3164,1.2353.4834.4536.1673.8955.3195,1.3251.4566.4296.1374.7758.2358,1.0387.2954l-.5194,1.504Z" style="fill: #2b2b2b;"/>
        <path d="M192.72,15.3807c-1.3251,0-2.301-.2448-2.9277-.7341-.6267-.4893-.9401-1.0923-.9401-1.8085,0-.4535.1133-.8416.3404-1.1638.2265-.3223.5252-.5668.8949-.7341.3703-.167.7582-.2507,1.1643-.2507.7875,0,1.4348.2717,1.9424.8147.5076.5433.8087,1.2327.9043,2.0681.5728-.1908,1.0563-.5162,1.4501-.9758.3944-.4594.5909-1.0475.5909-1.7637,0-.5489-.1279-1.0324-.385-1.4503-.2564-.4177-.6115-.7459-1.0651-.9848-.4536-.2386-.9788-.3581-1.5757-.3581-1.5639,0-2.8649.4476-3.9036,1.3429-.2148.1911-.5012.4328-.8591.7251-.358.2926-.6925.5523-1.0029.7789l-1.1103-1.1996c.561-.3341,1.1643-.7638,1.8086-1.2892.6449-.5251,1.2863-1.104,1.9248-1.7368.6385-.6326,1.2447-1.283,1.8174-1.9517.5728-.6684,1.0745-1.3188,1.5041-1.9517-.5012.1195-1.0745.2358-1.7188.3492-.6449.1136-1.2746.209-1.889.2865-.615.0778-1.1373.1284-1.5669.1522l-.2864-1.5757c.3222.012.7253.0031,1.2083-.0268.4836-.0297.997-.0744,1.5399-.1343.5434-.0596,1.0745-.1281,1.5939-.2059.5194-.0775.9847-.1639,1.3967-.2596.412-.0954.713-.1849.9043-.2686l1.2353.8415c-.2746.5372-.6297,1.1073-1.0651,1.71-.436.6029-.9166,1.2086-1.4419,1.8174-.5252.6088-1.068,1.1938-1.6291,1.7547.2746-.1312.5786-.2386.9131-.3223.3339-.0834.6561-.1253.9671-.1253.8709,0,1.6349.1732,2.2916.5193.6567.3463,1.1731.8236,1.5487,1.4324.3762.6088.564,1.3191.564,2.1307,0,.8715-.2177,1.6504-.6532,2.3366-.436.6866-1.0387,1.2265-1.8086,1.6204s-1.6625.5909-2.6766.5909ZM192.4154,13.8588h.2148c-.0358-.5251-.179-.9549-.4296-1.2892-.2506-.3341-.5675-.5013-.9489-.5013-.2506,0-.4566.0626-.6179.188-.1614.1253-.2418.3075-.2418.5461,0,.2985.1549.5433.4654.7341.3104.1911.8298.2985,1.5581.3223Z" style="fill: #2b2b2b;"/>
      </g>
      <g>
        <path d="M45.965,51.5981h5.8845l-8.1473-20.0115s-.1029-.4604-.8074-.9948c-.7031-.5347-1.3742-.4876-1.3742-.4876h-5.229s-.722-.0198-1.3556.4274c-.6324.448-.9468,1.203-.9468,1.203l-8.0724,19.8635h17.8942l-.7962-3.2372h-9.8749l5.7544-14.1394,7.0706,17.3767Z"/>
        <path d="M192.9832,55.7374h7.0168l-9.7153-23.8647s-.1252-.5497-.9629-1.1865c-.8388-.6369-1.639-.5819-1.639-.5819h-6.239s-.8594-.0232-1.6147.5104c-.755.534-1.1275,1.4337-1.1275,1.4337l-8.7605,21.5545H.4788v2.1106h184.8156l-.7351-2.1106h-7.5669l7.556-18.5872,8.4348,20.7217Z"/>
        <path d="M138.0492,51.5981h5.8837l-8.1476-20.0115s-.1025-.4604-.807-.9948c-.7015-.5347-1.3732-.4876-1.3732-.4876h-5.2319s-.7214-.0198-1.3537.4274c-.6331.448-.9464,1.203-.9464,1.203l-8.0724,19.8635h17.8946l-.7976-3.2372h-9.873l5.7517-14.1394,7.0729,17.3767Z"/>
        <path d="M18.8933,30.1274H.4788v21.4707h5.5218v-15.9463h3.9059v15.9463h5.5139l.0093-15.9463h2.1281s.6832-.0165,1.2363.6114c.5538.6271.5418,1.2643.5418,1.2643v14.0706h5.5143l.0071-16.0372s.0666-2.2841-1.8537-4.0177c-1.9075-1.7209-4.1104-1.4158-4.1104-1.4158" style="fill: #d1003b;"/>
        <path d="M163.9927,51.572h-18.4152v-21.4689h5.5139l.0064,15.9442h3.9063v-15.9442h5.5173l.0067,15.9442h2.1285s.6818.0187,1.2363-.6103c.5535-.6267.5434-1.2636.5434-1.2636v-14.0703h5.5135l.0075,16.0365s.0669,2.283-1.8537,4.0177c-1.9083,1.7216-4.1108,1.4147-4.1108,1.4147"/>
        <path d="M62.5355,44.3708l-.0045,7.2273h-5.5135v-7.1256l-10.3083-14.3451h5.8186l5.2645,7.4091s.6029.8309,1.9577.8309c1.3575,0,1.976-.8242,1.976-.8242l5.3288-7.4158h5.8362l-10.3554,14.2434Z"/>
        <path d="M107.242,40.8613c0-.7778.3803-1.1315.3803-1.1315l8.9329-9.4703h-6.7602l-9.7366,10.4086.0064-10.5405h-5.5247v21.4707h5.5127l.0056-10.4975,9.7366,10.3278h6.7491l-8.9205-9.4382s-.3815-.3418-.3815-1.1289"/>
        <path d="M73.9032,51.5981h18.2285v-4.8703l-12.6215-.0093v-4.0664h10.2111v-3.6127l-10.2111-.0082v-2.2939s-.0188-.6843.6088-1.2378c.6275-.5527,1.264-.5415,1.264-.5415h10.7219v-4.855h-18.2017v21.495Z"/>
      </g>
    </g>
  </g>
</svg>