<svg xmlns:xlink="http://www.w3.org/1999/xlink" xmlns="http://www.w3.org/2000/svg" id="_レイヤー_2" data-name="レイヤー 2" viewBox="0 0 271.4497 146.3276" width="271.4497"  height="146.3276" >
  <g id="menu">
    <g>
      <g>
        <path d="M8.4502,41.1309v-24.2827H1.1606v-5.4067h7.2896V1.207h5.8896v10.2344h6.0347V0h5.5996v11.4414h6.2275V1.207h5.6001v10.2344h7.5308v5.4067h-7.5308v13.9517h-17.4272v-13.9517h-6.0347v18.8271h28.4824v5.4556H8.4502ZM25.9741,25.5376h6.2275v-8.6895h-6.2275v8.6895Z" style="fill: #fff;"/>
        <path d="M57.2422,43.4961c-.2256-.3862-.5391-.8613-.9414-1.4243-.4028-.5635-.8369-1.127-1.3032-1.6895-.4668-.5635-.9097-1.0215-1.3276-1.376,3.5723-1.0293,6.3076-2.5986,8.207-4.7065,1.8984-2.1074,2.8638-4.8833,2.8965-8.3276-1.7705,1.2876-3.6934,2.4702-5.769,3.5483-2.0757,1.0786-4.2085,2.02-6.3965,2.8242-.2578-.6436-.6602-1.4644-1.207-2.4624-.5474-.9971-1.0942-1.7861-1.6411-2.3652,3.0244-.7402,5.9053-1.9067,8.6411-3.5,2.7354-1.5933,5.0205-3.3071,6.855-5.1411h-9.4136V.2896h34.4688v18.5864h-9.8965c1.4482,1.3516,3.0972,2.5747,4.9482,3.6685,1.8501,1.0947,3.7412,2.0117,5.6724,2.752,1.9307.7407,3.7168,1.2715,5.3584,1.5933-.5796.644-1.1753,1.4888-1.7861,2.5342-.6118,1.0464-1.0786,1.9717-1.3999,2.7759-1.7065-.6108-3.4761-1.3594-5.3105-2.2446-1.8345-.8848-3.6045-1.8745-5.3101-2.9692v15.8345h-5.7446v-18.1997h2.3652c-1.0947-.8691-2.1084-1.7939-3.0415-2.7759-.9336-.9814-1.7544-1.9712-2.4619-2.9688h-1.6411c-1.4482,2.0273-3.3154,3.9585-5.6001,5.793l3.7656.3379c.064,4.6665-1.0464,8.5127-3.3311,11.5376-2.2856,3.0249-5.5034,5.3418-9.6553,6.9517ZM61.7319,7.7725h8.4482v-3.1377h-8.4482v3.1377ZM61.7319,14.5308h8.4482v-3.1377h-8.4482v3.1377ZM75.9731,7.7725h8.4482v-3.1377h-8.4482v3.1377ZM75.9731,14.5308h8.4482v-3.1377h-8.4482v3.1377Z" style="fill: #fff;"/>
        <path d="M103.5435,24.3311v-6.083h42.3857v6.083h-42.3857Z" style="fill: #fff;"/>
        <path d="M165.4805,42.2891c-.6118-1.0303-1.4243-2.1406-2.438-3.3311-1.0137-1.1899-2.0762-2.3247-3.1865-3.4033-1.1099-1.0776-2.1646-1.9707-3.1616-2.6792l3.6689-3.3311c.7397.4829,1.5444,1.103,2.4136,1.8589.8691.7563,1.7539,1.561,2.6553,2.4136.9004.853,1.7295,1.6821,2.4858,2.4863.7559.8047,1.376,1.5132,1.8589,2.124l-4.2964,3.8618Z" style="fill: #fff;"/>
        <path d="M5.2158,99.1001l-5.0688-3.1382c.6758-.8687,1.4399-1.9707,2.293-3.3066.8525-1.335,1.7139-2.7593,2.583-4.2725.8687-1.5122,1.6729-3.0005,2.4136-4.4653.7402-1.4644,1.335-2.7593,1.7861-3.8862l4.6348,2.9932c-.4189,1.062-.9658,2.3013-1.6416,3.7173-.6758,1.4165-1.4165,2.8804-2.2207,4.3931-.8047,1.5132-1.6172,2.9614-2.438,4.3447-.8203,1.3838-1.6011,2.5908-2.3413,3.6206ZM9.3677,71.2935c-1.1587-1.2554-2.5269-2.5586-4.1035-3.9102-1.5771-1.3521-3.0415-2.4619-4.3931-3.3311l3.5239-4.1519c.9976.6445,2.0435,1.376,3.1382,2.1968,1.0938.8208,2.1313,1.6411,3.1138,2.4619.9814.8208,1.8262,1.5854,2.5342,2.293-.5151.4829-1.1665,1.1753-1.9551,2.0762-.7891.9014-1.4082,1.6895-1.8584,2.3652ZM11.9263,78.7764c-.4829-.6436-1.1348-1.376-1.9551-2.1968-.8208-.8208-1.5693-1.4399-2.2451-1.8584,1.6089-.9331,3.2178-2.0596,4.8276-3.3794,1.6089-1.3193,3.1538-2.7437,4.6343-4.2725,1.48-1.5283,2.792-3.0894,3.9346-4.6826,1.1421-1.5933,2.0352-3.1138,2.6792-4.562l5.7446.6758c.7402,1.062,1.7456,2.2612,3.0176,3.5967,1.271,1.3359,2.7031,2.6792,4.2964,4.0308,1.5933,1.3521,3.2505,2.5913,4.9722,3.7173,1.7217,1.127,3.3711,2.0117,4.9482,2.6553-.708.6758-1.4321,1.5049-2.1724,2.4858-.7407.9824-1.3359,1.8428-1.7861,2.583-1.0942-.6108-2.189-1.2954-3.2827-2.0518-1.0942-.7559-2.189-1.5688-3.2827-2.438v4.5381h-17.9585v-3.9585c-2.0601,1.8667-4.1841,3.5723-6.3721,5.1172ZM22.209,102.3828v-16.0273h-7.2417v-5.0205h27.0342v12.8408c0,1.6738-.499,2.8965-1.4966,3.6689s-2.4619,1.1587-4.3931,1.1587h-4.5376c-.0322-.5142-.1133-1.126-.2412-1.8345-.1294-.7075-.2656-1.3999-.4106-2.0757-.1445-.6758-.3135-1.2227-.5068-1.6416h4.1035c.6436,0,1.1021-.104,1.376-.3135.2729-.209.4102-.6196.4102-1.231v-5.5518h-8.3999v16.0273h-5.6963ZM19.457,72.5967h16.124c-1.7061-1.4155-3.3149-2.9204-4.8276-4.5137-1.5132-1.5928-2.7998-3.1777-3.8618-4.7549-.9014,1.5771-1.9878,3.146-3.2588,4.7065-1.2715,1.5615-2.6636,3.0825-4.1758,4.562Z" style="fill: #fff;"/>
        <path d="M60.3755,100.8862c-.7085-.4512-1.626-.9097-2.752-1.376-1.127-.4668-2.1084-.7964-2.9448-.9897.8364-1.1899,1.7056-2.7109,2.6069-4.562.9004-1.8501,1.8022-3.9102,2.7036-6.1792.9004-2.2686,1.7695-4.6343,2.6064-7.0962s1.5933-4.8833,2.269-7.2656c-1.8345.1616-3.5649.2739-5.1895.3379-1.6255.0649-2.9688.0649-4.0312,0l-.5308-5.793c1.3193.1289,2.9849.1772,4.9966.145,2.0107-.0317,4.0952-.145,6.2515-.3379.418-1.6733.7485-3.2178.9897-4.6348.2412-1.4155.3936-2.6709.4585-3.7651l6.0347.8203c-.1294.9341-.3223,1.9722-.5796,3.1138-.2578,1.1431-.5474,2.374-.8687,3.6934,1.3188-.2251,2.5586-.4746,3.7168-.7485,1.1587-.2729,2.1401-.5552,2.9448-.8447l.8691,5.4067c-.998.3223-2.293.6519-3.8862.9897s-3.3232.6357-5.1895.8931c-.7085,2.543-1.4966,5.1582-2.3657,7.8447-.8687,2.6875-1.77,5.3027-2.7031,7.8447-.9341,2.543-1.8589,4.8843-2.7759,7.0239-.9175,2.1411-1.7944,3.9663-2.6309,5.4795ZM93.106,98.8584c-3.4761.5469-6.751.6763-9.8242.3862-3.0737-.2896-5.7446-.917-8.0137-1.8823-2.269-.9658-3.9668-2.1724-5.0928-3.6206l2.9448-4.3452c1.126,1.1587,2.7109,2.1001,4.7549,2.8242,2.0435.7241,4.4414,1.1431,7.1929,1.2554,2.752.1128,5.7524-.1367,9.0034-.7485-.3218.8052-.5718,1.8188-.748,3.0415-.1772,1.2236-.25,2.2529-.2173,3.0894ZM91.6577,81.769c-1.062-.3535-2.2856-.6675-3.6689-.9414-1.3843-.2729-2.8408-.4902-4.3691-.6514-1.5288-.1606-3.0254-.2656-4.4893-.314-1.4648-.0483-2.7925-.04-3.9829.0239l.7241-5.6479c1.1587-.064,2.5181-.0557,4.0791.0239,1.561.0811,3.1865.2017,4.876.3623,1.6895.1611,3.2983.3618,4.8276.6035,1.5283.2412,2.8398.4907,3.9341.748l-1.9307,5.793Z" style="fill: #fff;"/>
        <path d="M119.2666,93.7896c-1.6099.9014-3.1221,1.2637-4.5381,1.0864-1.4165-.1768-2.6714-1.0864-3.7651-2.7275-.998-1.5449-1.9155-3.3628-2.752-5.4551-.8369-2.0918-1.5532-4.3125-2.1479-6.6621-.5962-2.3486-1.0464-4.6987-1.3521-7.0483-.3062-2.3486-.4424-4.5537-.4102-6.6133l5.8896.0479c-.0967,1.5776-.0483,3.2993.1445,5.1655.1934,1.8672.499,3.7495.9175,5.6484.418,1.8994.917,3.6611,1.4966,5.2861.5791,1.6255,1.207,2.9854,1.8828,4.0791.4502.7725.9414,1.2153,1.4722,1.3276.5312.1133,1.1021-.0239,1.7139-.4102.7725-.5146,1.585-1.2231,2.438-2.1245.8521-.9004,1.5688-1.7695,2.1479-2.6064.1606.4824.4263,1.0303.7969,1.6411.3696.6118.7725,1.207,1.2065,1.7861.4346.5796.8286,1.0464,1.1831,1.3999-.8691,1.2876-1.8589,2.479-2.9692,3.5728-1.1104,1.0942-2.229,1.9634-3.355,2.6064ZM137.5146,84.7622c-.3223-.9331-.8208-2.0918-1.4966-3.4756s-1.4482-2.8242-2.3174-4.3208c-.8687-1.4966-1.7378-2.8799-2.6064-4.1519-.8691-1.271-1.6738-2.2603-2.4141-2.9688l4.6343-2.9448c.8042.8047,1.6973,1.8828,2.6797,3.2344.981,1.3521,1.9468,2.7925,2.8965,4.3208.9487,1.5288,1.7935,3.0098,2.5342,4.4414.7402,1.4321,1.271,2.6475,1.5933,3.6445-.998.1934-2.0034.4995-3.0171.9175-1.0142.4185-1.8428.853-2.4863,1.3032Z" style="fill: #fff;"/>
        <path d="M153.0303,78.5347c-.2256-.4502-.5479-.9814-.9658-1.5928-.4185-.6113-.8687-1.207-1.3516-1.7866-.4829-.5791-.9336-1.0454-1.3516-1.3999,1.9951-.7725,4.0469-1.7778,6.1548-3.0171,2.1079-1.2388,4.1436-2.6069,6.1069-4.1035,1.9629-1.4966,3.7173-3.0244,5.2622-4.5859,1.5449-1.5605,2.7349-3.0332,3.5723-4.4175l5.4551.7725c1.0298,1.3843,2.3491,2.8003,3.9585,4.2485,1.6089,1.4482,3.3711,2.8237,5.2861,4.1274,1.9146,1.3032,3.8696,2.4863,5.8657,3.5483,1.9951,1.062,3.9102,1.9307,5.7446,2.6069-.4829.3857-.998.9097-1.5449,1.5688-.5474.6597-1.0547,1.3276-1.5205,2.0034-.4668.6758-.8135,1.2549-1.0381,1.7378-1.2549-.5469-2.5508-1.1904-3.8862-1.9312-1.3359-.7397-2.6792-1.5444-4.0308-2.4136v4.1035h-23.3169v-4.2485c-1.481.998-2.9448,1.9072-4.3931,2.7275-1.4482.8208-2.7842,1.5049-4.0068,2.0518ZM187.6919,102.769c-.3862-.7407-.8931-1.5615-1.521-2.4619-.6274-.9019-1.3271-1.8179-2.0996-2.752-1.481.2578-3.1865.5312-5.1172.8208-1.9312.2896-3.9751.5791-6.1313.8687-2.1562.29-4.2886.5552-6.396.7969-2.1084.2412-4.0718.4502-5.8896.6274-1.8188.1763-3.3721.314-4.6587.4102l-1.1104-5.7446c.7075,0,1.585-.0239,2.6309-.0723,1.0454-.0483,2.1802-.1206,3.4033-.2173.7402-1.126,1.5044-2.4619,2.2935-4.0068.7881-1.5449,1.4883-3.0088,2.0996-4.3931h-11.8755v-5.1655h39.5376v5.1655h-11.6348c.8691.6758,1.8345,1.5288,2.897,2.5586,1.062,1.0303,2.1396,2.1323,3.2344,3.3066,1.0938,1.1753,2.0996,2.3257,3.0171,3.4517.917,1.127,1.6489,2.1084,2.1963,2.9448-.4185.2573-.9497.6279-1.5928,1.1104-.6445.4829-1.272.9731-1.8828,1.4727-.6118.4985-1.0786.9248-1.3999,1.2793ZM162.7817,72.79h20.3721c-1.9634-1.3516-3.8301-2.8076-5.5996-4.3691-1.7705-1.5605-3.2671-3.1294-4.4897-4.7065-1.0947,1.4482-2.5586,2.9688-4.3931,4.562-1.8345,1.5928-3.7979,3.0977-5.8896,4.5137ZM167.8989,94.4658c2.1558-.1934,4.2964-.4106,6.4204-.6519,2.1245-.2417,4.0552-.4746,5.793-.7002-1.3838-1.4155-2.6064-2.5103-3.6685-3.2827l3.7651-3.186h-8.2549c-.5479,1.2554-1.1826,2.5669-1.9067,3.9346-.7241,1.3682-1.4409,2.6631-2.1484,3.8862Z" style="fill: #fff;"/>
        <path d="M211.4434,102.0449v-16.0757c-.9014.8047-1.8345,1.6011-2.7998,2.3896-.9653.7891-1.9634,1.5371-2.9932,2.2446-.4185-.6436-1.0303-1.3999-1.8345-2.269-.8047-.8687-1.4966-1.5444-2.0757-2.0273,1.2866-.7402,2.647-1.6655,4.0791-2.7759,1.4316-1.1104,2.8398-2.333,4.2241-3.6689,1.3833-1.335,2.6387-2.687,3.7656-4.0552,1.126-1.3677,2.0273-2.647,2.7031-3.8379h-12.2134v-5.2139h7.0962v-8.4478h5.6001v8.4478h4.4414l2.6069,2.1729c-1.3521,3.0254-3.1064,5.9858-5.2622,8.8823.8364.5796,1.7456,1.1826,2.7275,1.8105.9814.6274,1.9229,1.2065,2.8242,1.7378.9004.5308,1.6411.958,2.2207,1.2793-.3223.3223-.7002.7646-1.1348,1.3276-.4341.5635-.853,1.1426-1.2549,1.7378-.4028.5957-.7168,1.103-.9414,1.5205-.8691-.5791-1.8511-1.2466-2.9448-2.0034-1.0947-.7559-2.1724-1.5039-3.2344-2.2446v19.0688h-5.6001ZM221.0503,100.5v-5.5518h10.8618v-16.7998h-8.1587v-5.5518h8.1587v-14.2407h5.8413v14.2407h8.3999v5.5518h-8.3999v16.7998h9.7031v5.5518h-26.4062Z" style="fill: #fff;"/>
        <path d="M264.3535,101.6104c-1.2876,0-2.4624-.314-3.5244-.9414s-1.915-1.4805-2.5586-2.5586c-.644-1.0781-.9653-2.2764-.9653-3.5967,0-1.3188.314-2.5103.9414-3.5723s1.48-1.9067,2.5586-2.5342c1.0776-.6279,2.2607-.9414,3.5483-.9414,1.3193,0,2.5176.3218,3.5962.9653,1.0781.644,1.9312,1.4966,2.5586,2.5586.6279,1.062.9414,2.2373.9414,3.5239,0,1.3203-.3218,2.5186-.9653,3.5967-.644,1.0781-1.5049,1.9312-2.5825,2.5586-1.0791.6274-2.2617.9414-3.5483.9414ZM264.3535,98.9067c1.2227,0,2.2607-.4258,3.1138-1.2793.8521-.8521,1.2793-1.874,1.2793-3.0654,0-1.1899-.4272-2.2207-1.2793-3.0894-.853-.8691-1.8911-1.3037-3.1138-1.3037-1.1914,0-2.2134.4272-3.0654,1.2793-.8535.853-1.2793,1.8911-1.2793,3.1138,0,1.1914.4258,2.2134,1.2793,3.0654.8521.8535,1.874,1.2793,3.0654,1.2793Z" style="fill: #fff;"/>
      </g>
      <g>
        <path d="M0,132.5425v-2.1411h5.0312c-.1943-.4019-.4087-.811-.6445-1.2271-.2358-.4155-.4438-.7202-.6235-.9146l2.2456-1.0605c.2769.3608.5889.8457.9355,1.4556.3462.6099.6304,1.1924.8525,1.7466h2.7861c.2075-.3047.4224-.6621.6445-1.0708.2212-.4087.4326-.811.6338-1.2061.2007-.395.3501-.7241.4473-.9878l2.5781.6445c-.1528.3608-.3677.7798-.6445,1.2583-.2773.478-.5615.9321-.8525,1.3618h5.5308v2.1411H0ZM1.2891,146.1611v-12.3916h7.7134v10.354c0,1.3584-.8247,2.0376-2.4741,2.0376h-1.2266c-.0142-.208-.0488-.4575-.104-.7485-.0557-.291-.1143-.5786-.1768-.8628-.0625-.2837-.1353-.5093-.2183-.6758h1.1021c.2769,0,.4746-.0415.5923-.1245s.1768-.2563.1768-.52v-1.4346h-3.0146v4.3662H1.2891ZM3.6592,136.9922h3.0146v-1.3516h-3.0146v1.3516ZM3.6592,140.0483h3.0146v-1.3306h-3.0146v1.3306ZM10.6245,142.5645v-8.5249h2.4116v8.5249h-2.4116ZM13.2441,146.1611c-.0142-.2217-.0488-.4854-.104-.79-.0557-.3052-.1182-.6064-.187-.9043-.0698-.2979-.1455-.5371-.229-.7173h1.5596c.2773,0,.478-.0449.603-.1353.1245-.0898.187-.2666.187-.5303v-9.481h2.4121v10.396c0,1.4414-.8525,2.1621-2.5576,2.1621h-1.6841Z" style="fill: #fff;"/>
        <path d="M24.2178,145.6416c-.2778-.2358-.6377-.4854-1.0815-.7485-.4434-.2632-.8452-.4644-1.2056-.603.5679-.6099,1.0356-1.2231,1.4033-1.8398.3672-.6167.6548-1.2822.8628-1.9961s.3569-1.521.4473-2.4224c.0898-.9009.1348-1.9546.1348-3.1602v-6.5913h2.5161v6.5913c0,1.3721-.0488,2.5674-.1455,3.5864-.0972,1.0186-.2637,1.9268-.499,2.7236-.2358.7974-.5513,1.5488-.9463,2.2559s-.8906,1.4414-1.4863,2.2041ZM30.9331,143.791v-14.8452h2.5161v14.8452h-2.5161ZM37.0879,145.7871v-17.7354h2.5156v17.7354h-2.5156Z" style="fill: #fff;"/>
        <path d="M47.6372,146.3276l-.3535-2.2041c.2773-.0137.6445-.0381,1.1021-.0728.4575-.0342.9565-.0728,1.4971-.1143v-1.4556c-.7764.3052-1.5664.5928-2.3701.8633-.8042.27-1.6084.5093-2.4121.7173-.0552-.2915-.1802-.6479-.374-1.0708-.1943-.4229-.3813-.7451-.5615-.9668.915-.1523,1.937-.4058,3.0669-.7593,1.1294-.3535,2.2002-.7446,3.2124-1.1743h-5.7178v-1.8716h8.7739v-.8525h-1.0396c-.0278-.2354-.0801-.5332-.1558-.894-.0767-.3604-.1562-.6372-.2393-.8315h.811c.2354,0,.374-.0762.4155-.2285.0278-.0278.0449-.1177.0522-.2705.0068-.1523.0103-.2632.0103-.3325h-1.7466v2.8691h-2.1831v-2.8691h-1.4761v2.5156h-2.1626v-4.1377h3.6387v-.7275h-4.5532v-1.5801h1.1436c-.2495-.1523-.5063-.291-.7695-.416-.2632-.1245-.4854-.2144-.665-.27.2217-.2358.4575-.5371.707-.9048.249-.3667.4746-.7378.6753-1.1123.2012-.374.3501-.6997.4473-.9771l2.0791.5405c-.0557.125-.1143.2529-.1768.3848s-.1284.2671-.1973.4053h1.3096v-1.3306h2.1831v1.3306h3.8672v1.5801h-3.8672v.7695h4.3457v1.5801h-4.3457v.7275h3.8882v2.4951c0,.4854-.1455.8735-.4365,1.1646h.8525v1.3721h7.4019v1.8716h-2.5366l1.1851,1.1016c-.3052.2358-.6655.4888-1.0811.7593-.416.27-.8252.5229-1.2271.7588.6099.3188,1.2612.6099,1.9546.873.6929.2637,1.4204.4854,2.1831.6655-.2495.2217-.5024.5371-.7588.9458-.2568.4087-.4404.7725-.5513,1.0918-1.1641-.333-2.2764-.7871-3.3369-1.3618-1.0605-.5752-2.0239-1.251-2.8901-2.0273-.8662-.7759-1.5977-1.6216-2.1934-2.5366-.582.3745-1.2061.7275-1.8711,1.0605v2.2871c.8589-.0972,1.6699-.1943,2.4326-.291.7617-.0972,1.3579-.1943,1.7881-.2915v2.0171c-.541.1108-1.1924.2251-1.9546.3428-.7627.1177-1.563.2319-2.4014.3433-.8389.1108-1.6426.2109-2.4121.3013-.769.0903-1.438.1562-2.0063.1978ZM46.5977,130.8794h2.8276v-.7695h-2.2661c-.0972.1392-.1909.2739-.2808.4058-.0903.1318-.1841.2529-.2808.3638ZM57.7627,141.4829c.291-.1797.624-.3979.998-.6548.3745-.2563.7207-.502,1.0396-.7378h-3.5137c.2217.249.4575.4883.707.7173.2495.2285.5059.4541.769.6753ZM56.6816,134.7466v-6.8198h2.2246v6.8198h-2.2246ZM58.9688,137.5327c-.0142-.3188-.0728-.6929-.1768-1.1226s-.2114-.7764-.3223-1.0396h1.1851c.2773,0,.4746-.042.5928-.125.1177-.083.1768-.2563.1768-.5195v-7.3813h2.2456v8.1714c0,.7065-.2051,1.2197-.6138,1.5386s-1.022.478-1.8398.478h-1.2476Z" style="fill: #fff;"/>
        <path d="M70.2607,146.2026v-10.6035c-.3052.416-.6133.8042-.9253,1.1641-.3115.3608-.6206.6797-.9253.9565-.2217-.2495-.5059-.5195-.8521-.8105-.3467-.2915-.6655-.52-.9565-.6865.3877-.3184.8003-.7554,1.2368-1.3096.437-.5542.8735-1.1675,1.3101-1.8403.4365-.6719.8491-1.3545,1.2373-2.0479.3877-.6929.7202-1.3516.998-1.9751.2769-.624.4707-1.1504.582-1.5801l2.2661.769c-.3467,1.0952-.8457,2.2456-1.4971,3.4517v3.8047c.4575-.4849.915-1.0845,1.3726-1.7983.457-.7139.8901-1.4624,1.2993-2.2456.4087-.7832.7588-1.542,1.0498-2.2769.2915-.7344.4922-1.3721.603-1.9126l2.3081.686c-.125.4712-.2773.9531-.4575,1.4448-.1802.4922-.3813.9878-.603,1.4868h7.7764v2.3076h-5.5723v2.2251h4.8652v2.2246h-4.8652v2.2246h4.9067v2.3081h-4.9067v3.9712h-2.4741v-12.9536h-.894c-.4575.8042-.9395,1.5669-1.4453,2.2871-.5059.7212-1.0156,1.3379-1.5283,1.8506-.1523-.1797-.3604-.3706-.6235-.5718-.2637-.2007-.5337-.3848-.811-.5508v10.0005h-2.4741Z" style="fill: #fff;"/>
        <path d="M91.2368,146.3276c-.2773-.1802-.6411-.3711-1.0913-.5718-.4507-.2012-.8354-.3433-1.1543-.4263.6934-.9009,1.2061-2.0234,1.5391-3.3682.3325-1.3442.4985-2.7515.4985-4.2207v-5.9673h7.5059v7.0898h-5.1562c-.0693,1.5942-.2876,3.0015-.6548,4.2207-.3677,1.2202-.8628,2.3008-1.4868,3.2437ZM90.1348,130.3389v-2.1206h8.8369v2.1206h-8.8369ZM93.3994,136.7217h2.7861v-2.7651h-2.7861v2.7651ZM104.1069,146.2026v-10.3125h-1.8296c-.0415,1.5942-.2842,3.0254-.7275,4.2935-.4438,1.2686-1.0225,2.3809-1.7363,3.3369-.7139.9565-1.5073,1.7744-2.3804,2.4536-.125-.1528-.3052-.3364-.541-.5508-.2358-.2153-.4854-.4263-.7485-.6343s-.4985-.3672-.7065-.478c.8315-.5825,1.5767-1.2651,2.2349-2.0483.6582-.7827,1.1748-1.7358,1.5493-2.8589.374-1.1226.561-2.4878.561-4.0957v-6.6948c.8452-.042,1.7363-.1353,2.6719-.2808s1.8398-.3257,2.7134-.5405c.873-.2148,1.6147-.4541,2.2246-.7173l1.2891,2.0581c-.5684.2222-1.2266.4336-1.9751.6343-.7485.2012-1.5073.374-2.2769.5195-.769.1455-1.4795.2534-2.1309.3223v2.9941h6.4243v2.2871h-2.2036v10.3125h-2.4121Z" style="fill: #fff;"/>
        <path d="M124.9404,146.1611v-4.7817c-.4302.6099-.9014,1.2026-1.4141,1.7773-.5127.5757-.9702,1.0435-1.3721,1.4038-.1807-.2217-.4473-.4751-.8008-.7593-.3535-.2837-.6621-.4814-.9253-.5923.3882-.2632.8076-.6309,1.2583-1.1021.4502-.4712.8901-.9771,1.3203-1.5181.4292-.5405.7827-1.0396,1.0601-1.4966h-2.5366v-2.1001h3.4102v-1.3721h-3.7842v-1.9341h2.2246c-.1113-.3599-.2324-.7173-.3638-1.0703-.1318-.3535-.2529-.6621-.3638-.9253l1.6841-.499h-2.7031v-1.9131h3.2227v-1.9961h2.4326v1.9961h3.2227v1.9131h-2.7856l1.7256.4365c-.0972.3052-.2114.6377-.3433.998s-.2671.7139-.4053,1.0601h2.1206v1.9341h-3.5762v1.3721h3.1187v2.1001h-2.8481c.2354.2773.5332.582.894.9146.3604.3325.731.6484,1.1123.9463.3809.2979.731.5371,1.0498.7173-.1387.1108-.3052.2671-.499.4678-.1943.2012-.374.4087-.5405.6235-.1665.2153-.2983.3989-.395.5513-.2495-.1943-.5479-.4575-.894-.79-.3467-.333-.6792-.6724-.998-1.019v4.6572h-2.3076ZM125.4395,133.686h1.1436c.1797-.4155.3564-.8696.5298-1.3618.1733-.4917.2944-.8696.3643-1.1328h-2.9316c.1523.291.3115.6724.478,1.1436s.3047.9219.416,1.3511ZM130.5332,146.3276c-.2495-.2217-.5859-.4644-1.0083-.7275-.4229-.2637-.7798-.4438-1.0708-.541.7344-.665,1.3164-1.4346,1.7466-2.3076.4292-.873.7344-1.8989.9146-3.0771s.2705-2.5576.2705-4.1377v-6.5493c.7344,0,1.5283-.0625,2.3804-.187.8525-.125,1.6772-.3047,2.4746-.5405.7969-.2358,1.4795-.5127,2.0479-.832l1.5176,2.0586c-.4854.208-1.0811.4126-1.7881.6133-.7065.2012-1.4312.3779-2.1724.5303-.7417.1528-1.4243.2495-2.0483.291v2.8691h6.0298v2.2456h-1.9546v10.2295h-2.3911v-10.2295h-1.7046c-.0142,2.4121-.2983,4.4497-.8525,6.1128-.5547,1.6636-1.3516,3.0566-2.3911,4.1792Z" style="fill: #fff;"/>
        <path d="M151.5078,146.2861v-4.7612h-8.1714v-2.1831h8.1714v-1.5596c-.0698-.0552-.1387-.104-.208-.1455s-.1387-.083-.208-.125c.6099-.499,1.1958-1.084,1.7568-1.7568.5615-.6719,1.0708-1.3755,1.5283-2.1104.4575-.7344.8247-1.4204,1.1021-2.0581h-6.4453l1.6006.7065c-.0972.2222-.2046.4404-.3223.6553s-.2388.4399-.3638.6758c.3745.3325.7866.6582,1.2373.9771.4502.3188.8765.5962,1.2788.8315-.1392.1387-.3052.3262-.499.5615-.1943.2358-.3818.4678-.5615.6963-.1802.229-.3257.4194-.4365.5718-.3052-.1797-.6655-.4258-1.0815-.7378-.4155-.312-.8247-.6411-1.2266-.9878-.4712.624-.9634,1.2134-1.4761,1.7676-.5132.5542-1.0259,1.0327-1.5386,1.4346-.2222-.2358-.52-.5098-.894-.8213-.3745-.312-.6934-.5513-.9565-.7173.5957-.4575,1.1851-1.0015,1.7676-1.6323.582-.6304,1.1152-1.2925,1.6006-1.9854.4854-.6934.8804-1.3584,1.1851-1.9961h-4.1167v-2.1211h7.2773v-2.2246h2.5156v2.2246h7.3394v2.1211h-5.0107l1.4556.603c-.2217.5269-.4922,1.0601-.811,1.6006.6099.5132,1.3237,1.0293,2.1416,1.5493.8179.5195,1.6079.96,2.3701,1.3203-.2217.2358-.4678.5371-.7378.9043-.2705.3672-.4888.7104-.6553,1.0293-.4155-.2217-.8765-.4956-1.3823-.8213-.5063-.3257-1.0083-.6758-1.5073-1.0503-.499-.374-.9497-.7412-1.3516-1.1016-.3052.4297-.6104.8418-.915,1.2368s-.6167.7661-.9355,1.1123v1.3726h8.1714v2.1831h-8.1714v4.7612h-2.5156Z" style="fill: #fff;"/>
        <path d="M166.9683,146.2026c-.0142-.2217-.0488-.4814-.104-.7793-.0557-.2983-.1182-.5928-.187-.8838-.0698-.291-.1455-.5269-.229-.707h1.2271c.2769,0,.4639-.0483.561-.1455.0972-.0967.1455-.2632.1455-.499v-3.8257c-.4019.1665-.7725.312-1.1123.4365-.3398.125-.6064.2153-.8003.2705l-.582-2.4741c.2769-.0693.6372-.1699,1.0811-.3018.4434-.1313.9146-.2876,1.4136-.4678v-3.7842h-2.3076v-2.1831h2.3076v-3.5342h2.3496v3.5342h1.7256v2.1831h-1.7256v2.9526c.3462-.1382.6616-.2666.9463-.3848.2837-.1177.5093-.2183.6753-.3013v2.3076c-.1802.0972-.4121.2153-.6963.3535-.2842.1387-.5928.2842-.9253.4365v5.7388c0,.7207-.2148,1.2437-.6445,1.5698-.4297.3252-1.0605.4883-1.8921.4883h-1.2266ZM177.3643,146.1821v-4.9487c-.4302.5688-.9048,1.1196-1.4243,1.6533-.52.5337-1.0469,1.0186-1.5801,1.4551-.5342.437-1.0435.7866-1.5283,1.0503-.125-.1943-.291-.4092-.499-.6445-.208-.2358-.4194-.4575-.6343-.6655s-.3984-.3604-.5508-.4575c.5542-.2769,1.1436-.665,1.7671-1.1641.624-.499,1.2231-1.0464,1.7983-1.6426.5752-.5957,1.0571-1.1714,1.4453-1.7256h-3.5137v-2.0796h4.7197v-1.8711h2.3286v1.8711h4.9897v2.0796h-3.8047c.4155.5405.9043,1.0811,1.4658,1.6216s1.1396,1.0361,1.7358,1.4868c.5962.4502,1.1504.8003,1.6636,1.0498-.1528.0972-.3325.2598-.5405.4888-.208.2285-.4126.4678-.6133.7173-.2012.2495-.3643.4707-.4888.665-.6792-.374-1.4209-.9282-2.2246-1.6631-.8042-.7349-1.5317-1.5107-2.1831-2.3286v5.0522h-2.3286ZM173.0396,130.7754c-.0557-.3188-.1494-.6997-.2808-1.1436-.1318-.4434-.2598-.811-.3848-1.1021.9009,0,1.8535-.0381,2.8589-.1143,1.0049-.0762,1.9927-.1802,2.9629-.312.9702-.1313,1.8608-.2837,2.6719-.457.8105-.1733,1.479-.3643,2.0063-.5718l1.4346,1.9956c-.7349.208-1.5664.4092-2.4951.603-.9287.1943-1.8994.3677-2.9106.52-1.0122.1523-2.0205.2808-3.0254.3848-1.0054.1035-1.9512.1699-2.8379.1973ZM174.4116,135.6821c-.0972-.3184-.2427-.71-.4365-1.1748-.1943-.4639-.3921-.9248-.5928-1.3823-.2012-.4575-.3843-.832-.5508-1.123l2.0581-.769c.1943.3188.3984.7002.6138,1.1436.2144.4438.4121.8872.5923,1.3306.1802.4438.3257.8247.4365,1.1436-.291.083-.6514.2046-1.0811.3638-.4297.1597-.7764.3154-1.0396.4678ZM177.6553,134.9131c-.0557-.333-.1455-.7349-.2705-1.2061-.1245-.4712-.2598-.939-.4053-1.4033s-.2739-.8423-.3848-1.1333l2.1626-.499c.1382.3325.2803.7246.4258,1.1748.146.4507.2808.8975.4058,1.3408.1245.4438.2148.8252.27,1.1436-.3047.042-.6792.1216-1.1226.2393-.4438.1182-.8042.2324-1.0811.3433ZM182.2295,135.7656c-.2637-.1802-.6069-.3569-1.0293-.5303-.4229-.1733-.7729-.3018-1.0498-.3848.2212-.374.4707-.8525.748-1.4346s.541-1.1714.7905-1.7676c.2495-.5957.4365-1.1016.561-1.5176l2.3081.79c-.1665.4575-.3813.9844-.6445,1.5801-.2637.5962-.5444,1.1821-.8423,1.7568-.2983.5757-.5786,1.0781-.8418,1.5078Z" style="fill: #fff;"/>
        <path d="M190.999,146.2861c-.3467-.2222-.7417-.4473-1.1851-.6758-.4438-.229-.8389-.3921-1.1851-.4888.7759-1.0254,1.3545-2.2661,1.7358-3.7217s.5718-3.2085.5718-5.2603v-8.2334h15.6562v16.0093c0,1.4834-.894,2.2251-2.6821,2.2251h-1.5801c-.0142-.2358-.0488-.5132-.104-.832-.0557-.3188-.1143-.6304-.1768-.9355-.0625-.3047-.1353-.5542-.2183-.7485h1.4556c.291,0,.4917-.0444.603-.1348.1104-.0903.166-.2808.166-.5718v-3.4932h-4.1372v6.0503h-2.4746v-6.0503h-4.0957c-.1387,1.3862-.395,2.6299-.7695,3.7319-.374,1.1021-.9009,2.145-1.5801,3.1294ZM193.4731,137.2622h3.9712v-2.4741h-3.9502v1.9131c0,.1802-.0073.3672-.021.561ZM193.4941,132.5635h3.9502v-2.4326h-3.9502v2.4326ZM199.9189,132.5635h4.1372v-2.4326h-4.1372v2.4326ZM199.9189,137.2622h4.1372v-2.4741h-4.1372v2.4741Z" style="fill: #fff;"/>
        <path d="M218.1445,145.7036c-.1802-.291-.4297-.6309-.7485-1.0186s-.6377-.6929-.9561-.915c1.8989-.79,3.3091-1.8535,4.231-3.1914.9219-1.3374,1.4033-3.0669,1.4448-5.1875h-3.6382v4.1377h-2.4951v-4.1167c-.6792,0-1.3345.0034-1.9648.0103-.6309.0073-1.1851.0142-1.6636.021-.478.0068-.8213.0176-1.0288.0308v-2.4946c.1523,0,.4604.0068.9248.0205.4644.0142,1.0259.0244,1.6846.0312.6582.0073,1.3408.0176,2.0479.0312,0-.6372-.0034-1.2544-.0103-1.8506-.0073-.5957-.0176-1.126-.0312-1.5903-.0142-.4644-.0347-.8008-.0625-1.0083h2.6821c-.0142.2075-.0278.5474-.0415,1.0186-.0142.4712-.0244,1.0083-.0312,1.6113-.0073.603-.0103,1.2163-.0103,1.8403h3.6382c0-.4854-.0068-1.0396-.0205-1.6636-.0142-.6235-.0278-1.23-.0415-1.8193-.0142-.5889-.0283-1.0566-.042-1.4033h2.5991v4.8652c.6792-.0137,1.334-.0239,1.9648-.0312.6304-.0068,1.1919-.0137,1.6841-.0205.4917-.0068.856-.0176,1.0918-.0312v2.4946c-.2222-.0132-.5791-.0239-1.0708-.0308-.4922-.0068-1.0571-.0137-1.6948-.021-.6377-.0068-1.2959-.0103-1.9751-.0103-.0415,2.5503-.603,4.647-1.6841,6.2896s-2.6753,2.9766-4.7822,4.002Z" style="fill: #fff;"/>
        <path d="M241.3164,145.0176v-9.0024c-1.0532.7207-2.1309,1.3896-3.2329,2.0063s-2.1797,1.1538-3.2329,1.6113c-.1113-.208-.2637-.4502-.4575-.728-.1943-.2769-.3989-.5474-.6133-.8105-.2153-.2632-.4263-.4712-.6343-.624,1.2061-.4292,2.4536-.9907,3.7427-1.6841,1.2891-.6929,2.5327-1.4624,3.7319-2.3076,1.1987-.8457,2.2974-1.7329,3.2954-2.6616.998-.9282,1.8091-1.8506,2.4326-2.7651l2.1626,1.4761c-.5962.79-1.2861,1.5698-2.0688,2.3394-.7832.769-1.6255,1.5142-2.5264,2.2349v10.9155h-2.5991Z" style="fill: #fff;"/>
        <path d="M257.1948,145.3296v-16.7583h2.5366v6.3003l.936-1.3311c.3325.2358.7725.5303,1.3198.8838.5479.3535,1.1333.7139,1.7573,1.0811.6235.3677,1.2266.7036,1.8086,1.0088.582.3047,1.0742.5337,1.4761.686-.166.1523-.3569.3711-.5718.6548-.2148.2842-.4126.5752-.5923.873-.1802.2983-.3257.5513-.4365.7593-.333-.1802-.7456-.4126-1.2373-.6968-.4922-.2837-1.0117-.5991-1.5596-.9458-.5474-.3467-1.0742-.6895-1.5801-1.0293-.5059-.3394-.9458-.6479-1.3203-.9253v9.4395h-2.5366Z" style="fill: #fff;"/>
      </g>
    </g>
  </g>
</svg>