<svg xmlns:xlink="http://www.w3.org/1999/xlink" xmlns="http://www.w3.org/2000/svg" id="_レイヤー_2" data-name="レイヤー 2" viewBox="0 0 32 32" width="32"  height="32" >
  <g id="_レイヤー_1-2" data-name="レイヤー 1">
    <g>
      <rect width="32" height="32" style="fill: none;"/>
      <path d="M23.8781,8.2822c-1.3878-.9049-2.3895-2.3527-2.702-4.0404-.0675-.3647-.1046-.74-.1046-1.1239h-4.4294l-.0071,17.7515c-.0745,1.9879-1.7105,3.5833-3.7162,3.5833-.6234,0-1.2104-.1559-1.7271-.4278-1.1851-.6237-1.9962-1.8659-1.9962-3.2955,0-2.0531,1.6704-3.7235,3.7234-3.7235.3832,0,.7509.0632,1.0986.1721v-4.522c-.3599-.049-.7255-.0796-1.0986-.0796-4.4955,0-8.1528,3.6574-8.1528,8.1529,0,2.7582,1.3781,5.1992,3.4805,6.6752,1.3242.9297,2.935,1.4776,4.6723,1.4776,4.4955,0,8.1528-3.6572,8.1528-8.1528v-9.0015c1.7373,1.2469,3.8657,1.9817,6.1624,1.9817v-4.4294c-1.2372,0-2.3895-.3678-3.3559-.9979Z" style="fill: #fff;"/>
    </g>
  </g>
</svg>