<svg xmlns:xlink="http://www.w3.org/1999/xlink" xmlns="http://www.w3.org/2000/svg" viewBox="0 0 94 114" width="94"  height="114" ><path d="m0 0h94v114h-94z" fill="none"/><path d="m86.44 32.71v20.06c0 8.42-16.85 15.25-37.65 15.25s-37.65-6.83-37.65-15.25v-20.06" fill="#fff"/><path d="m48.8 69.02c-21.67 0-38.65-7.14-38.65-16.25v-20.06h2v20.06c0 7.72 16.78 14.25 36.65 14.25s36.65-6.52 36.65-14.25v-20.06h2v20.06c0 9.11-16.98 16.25-38.65 16.25z" fill="#2b2b2b"/><path d="m66.45 46.18c-5.27 1.13-11.27 1.78-17.65 1.78-20.79 0-37.65-6.83-37.65-15.25s16.85-15.25 37.65-15.25 37.65 6.83 37.65 15.25c0 4.72-5.3 8.95-13.63 11.74" fill="#fff"/><path d="m48.8 48.95c-21.67 0-38.65-7.14-38.65-16.25s16.98-16.25 38.65-16.25 38.65 7.14 38.65 16.25c0 5.01-5.22 9.64-14.31 12.69-.52.18-1.09-.11-1.27-.63s.11-1.09.63-1.27c8.11-2.72 12.95-6.76 12.95-10.79 0-7.72-16.78-14.25-36.65-14.25s-36.65 6.52-36.65 14.25 16.78 14.25 36.65 14.25c6.08 0 12.12-.61 17.44-1.75.54-.12 1.07.23 1.19.77s-.23 1.07-.77 1.19c-5.46 1.18-11.64 1.8-17.86 1.8z" fill="#2b2b2b"/><ellipse cx="49.12" cy="31.23" fill="#2b2b2b" rx="15.93" ry="5.35"/><path d="m49.12 37.58c-8.41 0-16.93-2.18-16.93-6.35s8.52-6.35 16.93-6.35 16.93 2.18 16.93 6.35-8.52 6.35-16.93 6.35zm0-10.69c-9.11 0-14.93 2.57-14.93 4.35s5.82 4.35 14.93 4.35 14.93-2.57 14.93-4.35-5.82-4.35-14.93-4.35z" fill="#2b2b2b"/><path d="m30.21 10.39v-5.94h10.34v27.25h-6.65v-21.31h-3.7z" fill="#f9d400"/><path d="m40.55 32.7h-6.65c-.55 0-1-.45-1-1v-20.31h-2.7c-.55 0-1-.45-1-1v-5.94c0-.55.45-1 1-1h10.34c.55 0 1 .45 1 1v27.25c0 .55-.45 1-1 1zm-5.65-2h4.65v-25.25h-8.34v3.94h2.7c.55 0 1 .45 1 1v20.32z" fill="#2b2b2b"/><path d="m48.1 7.59c1.65-2.46 4.32-3.7 8.01-3.7s6.35 1.23 8.01 3.7c1.65 2.46 2.48 5.84 2.48 10.12s-.83 7.73-2.48 10.19c-1.66 2.46-4.32 3.7-8.01 3.7s-6.35-1.23-8.01-3.7c-1.66-2.46-2.48-5.86-2.48-10.19s.83-7.65 2.48-10.12zm11.41 4.31c-.55-1.36-1.68-2.04-3.4-2.04s-2.85.68-3.4 2.04-.82 3.29-.82 5.8c0 1.69.1 3.09.3 4.2s.6 2 1.21 2.69 1.51 1.03 2.71 1.03 2.1-.34 2.71-1.03c.61-.68 1.01-1.58 1.21-2.69s.3-2.51.3-4.2c0-2.51-.27-4.45-.82-5.8z" fill="#f9d400"/><g fill="#2b2b2b"><path d="m56.11 32.59c-4.02 0-6.99-1.39-8.84-4.14-1.76-2.62-2.65-6.24-2.65-10.75s.89-8.05 2.65-10.67c1.84-2.75 4.82-4.14 8.84-4.14s6.99 1.39 8.84 4.14c1.76 2.62 2.65 6.21 2.65 10.67s-.89 8.13-2.65 10.75c-1.84 2.75-4.82 4.14-8.84 4.14zm-7.18-24.44c-1.53 2.29-2.31 5.5-2.31 9.56s.78 7.35 2.31 9.63c1.47 2.19 3.82 3.25 7.18 3.25s5.71-1.06 7.18-3.25c1.53-2.28 2.31-5.53 2.31-9.63s-.78-7.27-2.31-9.56c-1.47-2.19-3.82-3.25-7.18-3.25s-5.71 1.06-7.18 3.25zm7.18 18.47c-1.49 0-2.65-.46-3.45-1.36-.73-.82-1.22-1.89-1.45-3.18-.21-1.16-.31-2.63-.31-4.38 0-2.67.29-4.69.89-6.18.49-1.21 1.64-2.66 4.32-2.66s3.83 1.45 4.32 2.66c.6 1.49.89 3.51.89 6.18 0 1.74-.11 3.21-.31 4.38-.23 1.29-.72 2.36-1.45 3.18-.8.9-1.97 1.36-3.45 1.36zm0-15.75c-1.69 0-2.21.75-2.47 1.41-.5 1.23-.75 3.06-.75 5.43 0 1.63.1 2.98.28 4.02.17.92.49 1.66.98 2.2.42.47 1.06.69 1.96.69s1.54-.23 1.96-.69c.48-.54.81-1.28.98-2.2.19-1.05.28-2.4.28-4.02 0-2.37-.25-4.2-.75-5.43-.26-.66-.78-1.41-2.47-1.41z"/><path d="m15.7 10.05h-2.37l-3.16-4.77v4.77h-2.37v-8.53h2.37l3.16 4.83v-4.83h2.37z"/><path d="m19 9.71c-.54-.28-.96-.69-1.26-1.21s-.46-1.14-.46-1.85.16-1.31.47-1.84c.31-.52.73-.93 1.27-1.21s1.14-.42 1.82-.42 1.28.14 1.82.42.96.69 1.27 1.21c.31.53.47 1.14.47 1.84s-.16 1.32-.47 1.85-.74.93-1.28 1.22-1.15.42-1.83.42-1.29-.14-1.82-.42zm2.65-2c.22-.25.33-.6.33-1.06s-.11-.81-.33-1.05-.49-.36-.82-.36-.59.12-.81.36-.33.59-.33 1.05.1.82.31 1.07.48.36.81.36.61-.12.83-.37z"/><path d="m25.86 9.8c-.25-.23-.38-.52-.38-.88s.13-.65.38-.88.59-.35 1.01-.35.74.12 1 .35c.25.23.38.53.38.88s-.13.64-.38.87-.59.35-1 .35-.76-.12-1.01-.34z"/><path d="m44.86 91.74c-.07-.18-.17-.39-.31-.63s-.29-.47-.45-.69-.31-.39-.44-.5c1.24-.36 2.27-.87 3.1-1.51s1.47-1.46 1.92-2.46.73-2.22.82-3.68l-4.66.15-.05-2.01 4.75-.1v-3.93h2.06v3.88l4.56-.1c-.01.09-.03.35-.05.77s-.05.93-.08 1.54-.07 1.25-.11 1.92-.08 1.33-.11 1.96-.06 1.17-.09 1.63c-.02.45-.04.76-.05.92s.02.28.09.37.22.13.45.13h.58c.22 0 .39-.05.53-.14.14-.1.25-.31.34-.63s.17-.83.24-1.52c.28.18.61.34.97.48s.71.25 1.04.34c-.08 1.01-.24 1.77-.47 2.29s-.54.86-.91 1.04c-.38.18-.83.26-1.36.26h-1.75c-.69 0-1.2-.12-1.53-.36s-.48-.65-.44-1.24c.02-.38.05-.83.08-1.37s.08-1.32.14-2.35.14-2.38.24-4.04l-2.33.07c-.08 1.67-.37 3.11-.88 4.33-.51 1.21-1.24 2.24-2.2 3.09s-2.17 1.55-3.62 2.12z"/><path d="m64.85 85.85c-.22-.09-.51-.18-.87-.27s-.66-.15-.9-.17c.11-.28.22-.64.31-1.08.1-.44.18-.9.26-1.4.08-.49.14-.97.18-1.44.04-.46.06-.87.06-1.21l1.82.1c0 .37-.02.81-.06 1.3s-.1 1-.17 1.51-.16 1.01-.27 1.47c-.11.47-.23.86-.37 1.17zm-.09 5.94c-.16-.21-.39-.44-.69-.72-.3-.27-.59-.49-.88-.65.74-.54 1.33-1.12 1.78-1.74.45-.61.78-1.33.99-2.14s.31-1.8.31-2.95v-7.1h2.01v4.39l1.53-.56c.18.32.38.75.59 1.31s.41 1.11.59 1.67v-6.4h2.01v4.04l1.67-.61c.14.24.28.55.44.94s.32.81.48 1.24c.16.44.29.85.41 1.25v-7.27h2.03v15.2h-2.03v-6.74c-.24.07-.51.15-.81.25s-.54.18-.71.26c-.07-.26-.16-.58-.26-.97-.11-.39-.23-.79-.37-1.22-.14-.42-.28-.84-.43-1.23-.14-.4-.28-.73-.42-1v9.45h-2.01v-5.48c-.24.07-.49.14-.76.23-.27.08-.48.16-.64.23-.07-.32-.17-.73-.31-1.23s-.3-1.01-.48-1.53-.35-.98-.52-1.36v2.25c0 1.35-.14 2.53-.41 3.52s-.67 1.88-1.19 2.63-1.16 1.43-1.92 2.04z"/><path d="m47.12 102.91-1.88-2.63v2.63h-1.67v-6h1.67v2.59l1.86-2.59h1.92l-2.21 2.91 2.32 3.09h-2.02z"/><path d="m55.51 96.91-2.11 4.09v1.91h-1.68v-1.91l-2.11-4.09h1.91l1.06 2.32 1.06-2.32h1.88z"/><path d="m57.87 96.91v3.48c0 .32.08.57.23.75s.38.26.69.26.54-.09.69-.27c.16-.18.23-.43.23-.74v-3.48h1.67v3.48c0 .55-.12 1.02-.35 1.41s-.55.68-.95.88-.84.29-1.33.29-.92-.1-1.31-.29c-.38-.2-.68-.49-.9-.87-.22-.39-.33-.86-.33-1.41v-3.48h1.66z"/><path d="m63.11 102.48c-.45-.33-.69-.81-.72-1.43h1.78c.02.21.08.36.19.46s.25.14.42.14c.15 0 .28-.04.38-.12s.15-.18.15-.32c0-.18-.08-.31-.25-.41s-.43-.2-.8-.32c-.39-.13-.71-.26-.95-.38s-.45-.3-.63-.54-.27-.54-.27-.92.1-.72.29-.99.46-.48.8-.62.73-.21 1.16-.21c.7 0 1.26.16 1.67.49.42.33.64.78.67 1.38h-1.81c0-.18-.06-.32-.17-.41s-.24-.14-.4-.14c-.12 0-.23.04-.31.11s-.12.18-.12.32c0 .11.04.21.13.29s.2.15.33.21.32.13.58.23c.38.13.69.26.94.39s.46.31.64.54.27.52.27.87-.09.68-.27.96-.44.51-.77.67c-.34.17-.74.25-1.2.25-.7 0-1.27-.17-1.72-.5z"/><path d="m73.52 96.91v6h-1.67v-2.41h-2.03v2.41h-1.67v-6h1.67v2.26h2.03v-2.26z"/><path d="m76.44 96.91v3.48c0 .32.08.57.23.75s.38.26.69.26.54-.09.69-.27c.16-.18.23-.43.23-.74v-3.48h1.67v3.48c0 .55-.12 1.02-.35 1.41s-.55.68-.95.88-.84.29-1.33.29-.92-.1-1.31-.29c-.38-.2-.68-.49-.9-.87-.22-.39-.33-.86-.33-1.41v-3.48h1.66z"/></g><path d="m36.47 89.74c0-7.07-5.73-12.81-12.81-12.81s-12.81 5.73-12.81 12.81c0 2.61.78 5.03 2.12 7.05h21.37c1.34-2.02 2.12-4.44 2.12-7.05z" fill="#f9d400"/><path d="m34.35 97.29h-21.38c-.17 0-.32-.08-.42-.22-1.44-2.18-2.2-4.71-2.2-7.33 0-7.34 5.97-13.31 13.31-13.31s13.31 5.97 13.31 13.31c0 2.61-.76 5.15-2.2 7.33-.09.14-.25.22-.42.22zm-21.11-1h20.83c1.24-1.96 1.89-4.22 1.89-6.55 0-6.79-5.52-12.31-12.31-12.31s-12.31 5.52-12.31 12.31c0 2.33.65 4.59 1.89 6.55z" fill="#2b2b2b"/><path d="m12.97 96.79c2.29 3.47 6.22 5.76 10.69 5.76s8.4-2.29 10.69-5.76z" fill="#28bc64"/><path d="m23.66 103.05c-4.48 0-8.63-2.24-11.1-5.98-.1-.15-.11-.35-.02-.51s.26-.26.44-.26h21.38c.18 0 .35.1.44.26s.08.36-.02.51c-2.48 3.75-6.63 5.98-11.1 5.98zm-9.71-5.76c2.33 3 5.89 4.76 9.71 4.76s7.39-1.76 9.71-4.76z" fill="#2b2b2b"/><path d="m28.57 96.79h-7.06v-12.71h7.06zm-7.07-8.76h-4.24v8.76h4.24" fill="#fff"/><path d="m28.57 97.29h-11.3c-.28 0-.5-.22-.5-.5v-8.76c0-.28.22-.5.5-.5h3.74v-3.46c0-.28.22-.5.5-.5h7.06c.28 0 .5.22.5.5v12.71c0 .28-.22.5-.5.5zm-6.57-1h6.06v-11.71h-6.06zm-4.23 0h3.24v-7.76h-3.24z" fill="#2b2b2b"/><path d="m26.73 94.63h-.85c-.28 0-.5-.22-.5-.5s.22-.5.5-.5h.85c.28 0 .5.22.5.5s-.22.5-.5.5zm-2.54 0h-.85c-.28 0-.5-.22-.5-.5s.22-.5.5-.5h.85c.28 0 .5.22.5.5s-.22.5-.5.5zm2.54-2.58h-.85c-.28 0-.5-.22-.5-.5s.22-.5.5-.5h.85c.28 0 .5.22.5.5s-.22.5-.5.5zm-2.54 0h-.85c-.28 0-.5-.22-.5-.5s.22-.5.5-.5h.85c.28 0 .5.22.5.5s-.22.5-.5.5zm2.54-2.59h-.85c-.28 0-.5-.22-.5-.5s.22-.5.5-.5h.85c.28 0 .5.22.5.5s-.22.5-.5.5zm-2.54 0h-.85c-.28 0-.5-.22-.5-.5s.22-.5.5-.5h.85c.28 0 .5.22.5.5s-.22.5-.5.5zm2.54-2.58h-.85c-.28 0-.5-.22-.5-.5s.22-.5.5-.5h.85c.28 0 .5.22.5.5s-.22.5-.5.5zm-2.54 0h-.85c-.28 0-.5-.22-.5-.5s.22-.5.5-.5h.85c.28 0 .5.22.5.5s-.22.5-.5.5z" fill="#2b2b2b"/></svg>