<svg xmlns:xlink="http://www.w3.org/1999/xlink" xmlns="http://www.w3.org/2000/svg" viewBox="0 0 94 114" width="94"  height="114" ><path d="m0 0h94v114h-94z" fill="none"/><path d="m84.65 32.85v20.06c0 8.42-16.85 15.25-37.65 15.25s-37.65-6.83-37.65-15.25v-20.06" fill="#fff" stroke="#2b2b2b" stroke-linecap="round" stroke-linejoin="round" stroke-width="2"/><path d="m64.65 46.32c-5.27 1.13-11.27 1.78-17.65 1.78-20.79 0-37.65-6.83-37.65-15.25s16.85-15.25 37.65-15.25 37.65 6.83 37.65 15.25c0 4.72-5.3 8.95-13.63 11.74" fill="#fff" stroke="#2b2b2b" stroke-linecap="round" stroke-linejoin="round" stroke-width="2"/><ellipse cx="46.67" cy="31.37" fill="#2b2b2b" rx="15.93" ry="5.35" stroke="#2b2b2b" stroke-miterlimit="10" stroke-width="2"/><path d="m37.44 11.35c0-1.34.35-2.57 1.05-3.68s1.75-1.99 3.17-2.65 3.16-.99 5.23-.99 3.8.33 5.21.99 2.46 1.54 3.15 2.65 1.05 2.33 1.05 3.68-.32 2.51-.95 3.51-1.49 1.78-2.56 2.35c1.34.65 2.38 1.54 3.1 2.67s1.08 2.46 1.08 3.98c0 1.77-.45 3.29-1.34 4.57-.9 1.28-2.11 2.26-3.64 2.93s-3.23 1.01-5.1 1.01-3.57-.34-5.1-1.01-2.74-1.65-3.64-2.93-1.34-2.81-1.34-4.57c0-1.54.36-2.88 1.08-4.01s1.74-2.01 3.06-2.63c-2.34-1.24-3.51-3.2-3.51-5.86zm6.61 9.58c-.72.63-1.08 1.51-1.08 2.63 0 1.05.35 1.9 1.06 2.58s1.66 1.01 2.86 1.01 2.13-.34 2.82-1.01 1.03-1.53 1.03-2.58-.35-1.97-1.06-2.61c-.71-.65-1.64-.97-2.78-.97s-2.12.32-2.84.95zm5.17-10.98c-.59-.56-1.36-.84-2.33-.84s-1.75.29-2.33.86-.88 1.37-.88 2.39.3 1.74.9 2.3 1.37.84 2.31.84 1.72-.29 2.31-.86c.6-.57.9-1.34.9-2.31 0-1.02-.29-1.81-.88-2.37z" fill="#f9d400" stroke="#2b2b2b" stroke-linecap="round" stroke-linejoin="round" stroke-width="2"/><g fill="#2b2b2b"><path d="m20.48 10.19h-2.37l-3.16-4.77v4.77h-2.37v-8.53h2.37l3.16 4.83v-4.83h2.37z"/><path d="m23.78 9.85c-.54-.28-.96-.69-1.26-1.21s-.46-1.14-.46-1.85.16-1.31.47-1.84c.31-.52.73-.93 1.27-1.21s1.14-.42 1.82-.42 1.28.14 1.82.42.96.69 1.27 1.21c.31.53.47 1.14.47 1.84s-.16 1.32-.47 1.85-.74.93-1.28 1.22-1.15.42-1.83.42-1.29-.14-1.82-.42zm2.65-2c.22-.25.33-.6.33-1.06s-.11-.81-.33-1.05-.49-.36-.82-.36-.59.12-.81.36-.33.59-.33 1.05.1.82.31 1.07.48.36.81.36.61-.12.83-.37z"/><path d="m30.64 9.94c-.25-.23-.38-.52-.38-.88s.13-.65.38-.88.59-.35 1.01-.35.74.12 1 .35c.25.23.38.53.38.88s-.13.64-.38.87-.59.35-1 .35-.76-.12-1.01-.34z"/><path d="m46.22 91.26v-15.08h6.66v5.48h-4.73v9.6h-1.92zm1.93-12.96h2.88v-.71h-2.88zm0 1.95h2.88v-.71h-2.88zm9.55 10.99c-.01-.23-.05-.49-.11-.8s-.13-.57-.2-.8c-.28.38-.5.72-.65 1.04-.69-.24-1.31-.6-1.86-1.07-.55-.48-1-1-1.35-1.58-.35.65-.83 1.2-1.43 1.67-.6.46-1.34.83-2.21 1.09-.09-.21-.24-.46-.44-.78-.2-.31-.39-.56-.54-.74.78-.19 1.42-.45 1.91-.78s.86-.74 1.11-1.23h-3.06v-1.41h3.51c.02-.12.04-.26.05-.4s.02-.29.03-.43h-3.13v-1.41h1.87c-.12-.21-.26-.43-.39-.63s-.27-.38-.39-.53l1.46-.66c.17.23.37.52.59.88s.4.68.54.94h.99c.16-.26.33-.57.5-.94.18-.36.3-.66.38-.9l1.58.51c-.08.22-.18.44-.29.67s-.23.45-.34.66h1.77v1.41h-3.27c0 .15 0 .29-.03.43-.02.14-.04.27-.06.41h3.81v1.41h-3.06c.32.41.71.77 1.17 1.1s1.01.58 1.63.77c-.02.02-.05.05-.08.09-.03.03-.05.07-.08.1h.68c.23 0 .37-.03.43-.09s.09-.2.09-.4v-7.17h-4.77v-5.48h6.69v13.33c0 .59-.16 1.03-.47 1.31s-.82.43-1.52.43h-1.07zm-1.77-12.94h2.91v-.71h-2.91zm0 1.95h2.91v-.71h-2.91z"/><path d="m65.97 90.63v-9.96h4.15v-2.13h-4.95v-1.74h15.41v1.74h-5.33v2.13h4.55v9.96h-13.82zm1.96-1.8h9.91v-2.47c-.18.22-.41.36-.67.44s-.58.12-.94.12h-1.28c-.54 0-.94-.09-1.2-.26s-.38-.49-.38-.93v-3.25h-1.34c-.05.84-.18 1.57-.4 2.18s-.54 1.16-.97 1.63-.96.93-1.61 1.36c-.14-.16-.31-.35-.51-.56s-.4-.4-.6-.54v2.28zm0-2.76c.69-.46 1.21-.96 1.57-1.48.35-.52.56-1.23.61-2.11h-2.18zm4.1-5.4h1.33v-2.13h-1.33zm3.65 4.38h.34c.26 0 .44-.09.53-.26.09-.18.17-.56.24-1.15.14.07.3.14.49.2.19.07.38.14.56.21v-1.57h-2.59v2.16c0 .14.03.24.08.31.06.07.17.1.34.1z"/><path d="m48.74 103.06-1.88-2.63v2.63h-1.67v-6h1.67v2.59l1.86-2.59h1.92l-2.21 2.91 2.32 3.09h-2.02z"/><path d="m55.53 102.08h-2.13l-.32.98h-1.75l2.19-6h1.92l2.18 6h-1.76l-.32-.98zm-.42-1.28-.65-1.94-.64 1.94z"/><path d="m63.92 103.06h-1.67l-2.22-3.35v3.35h-1.67v-6h1.67l2.22 3.4v-3.4h1.67z"/><path d="m65.74 102.62c-.45-.33-.69-.81-.72-1.43h1.78c.02.21.08.36.19.46s.25.14.42.14c.15 0 .28-.04.38-.12s.15-.18.15-.32c0-.18-.08-.31-.25-.41s-.43-.2-.8-.32c-.39-.13-.71-.26-.95-.38s-.45-.3-.63-.54-.27-.54-.27-.92.1-.72.29-.99.46-.48.8-.62.73-.21 1.16-.21c.7 0 1.26.16 1.67.49.42.33.64.78.67 1.38h-1.81c0-.18-.06-.32-.17-.41s-.24-.14-.4-.14c-.12 0-.23.04-.31.11s-.12.18-.12.32c0 .11.04.21.13.29s.2.15.33.21.32.13.58.23c.38.13.69.26.94.39s.46.31.64.54.27.52.27.87-.09.68-.27.96-.44.51-.77.67c-.34.17-.74.25-1.2.25-.7 0-1.27-.17-1.72-.5z"/><path d="m74.33 102.08h-2.13l-.32.98h-1.75l2.19-6h1.92l2.18 6h-1.76l-.32-.98zm-.42-1.28-.65-1.94-.64 1.94z"/><path d="m78.83 97.05v6h-1.67v-6z"/></g><path d="m38.22 89.88c0-7.07-5.73-12.81-12.81-12.81s-12.81 5.73-12.81 12.81c0 2.61.78 5.03 2.12 7.05h21.37c1.34-2.02 2.12-4.44 2.12-7.05z" fill="#f9d400" stroke="#2b2b2b" stroke-linecap="round" stroke-linejoin="round"/><path d="m14.72 96.93c2.29 3.47 6.22 5.76 10.69 5.76s8.4-2.29 10.69-5.76z" fill="#28bc64" stroke="#2b2b2b" stroke-linecap="round" stroke-linejoin="round"/><path d="m30.32 96.93h-7.06v-12.71h7.06zm-7.07-8.76h-4.24v8.76h4.24" fill="#fff" stroke="#2b2b2b" stroke-linecap="round" stroke-linejoin="round"/><path d="m25.09 94.27h.85m1.69 0h.85m-3.39-2.58h.85m1.69 0h.85m-3.39-2.59h.85m1.69 0h.85m-3.39-2.58h.85m1.69 0h.85" fill="none" stroke="#2b2b2b" stroke-linecap="round" stroke-linejoin="round"/></svg>