<svg xmlns:xlink="http://www.w3.org/1999/xlink" xmlns="http://www.w3.org/2000/svg" id="_レイヤー_2" data-name="レイヤー 2" viewBox="0 0 32 32" width="32"  height="32" >
  <g id="_レイヤー_1-2" data-name="レイヤー 1">
    <g>
      <rect width="32" height="32" style="fill: none;"/>
      <path d="M16,4.8196c3.6414,0,4.0727.0137,5.5107.0793,1.3298.0607,2.0519.2826,2.5323.4695.6368.2476,1.091.5427,1.5682,1.0199.4771.4772.7729.9314,1.0199,1.5682.1869.4805.4089,1.2025.4695,2.5323.0656,1.4381.0793,1.8693.0793,5.5107s-.0137,4.0726-.0793,5.5107c-.0607,1.3298-.2826,2.0519-.4695,2.5323-.2476.6368-.5427,1.091-1.0199,1.5682-.4772.4771-.9314.7729-1.5682,1.0199-.4805.1869-1.2025.4088-2.5323.4695-1.438.0656-1.8693.0793-5.5107.0793s-4.0726-.0137-5.5107-.0793c-1.3298-.0607-2.0519-.2825-2.5323-.4695-.6368-.2477-1.091-.5428-1.5682-1.0199-.4771-.4772-.7729-.9314-1.0199-1.5682-.187-.4805-.4089-1.2025-.4695-2.5323-.0656-1.438-.0793-1.8693-.0793-5.5107s.0137-4.0726.0793-5.5107c.0607-1.3298.2825-2.0519.4695-2.5323.2476-.6368.5427-1.091,1.0199-1.5682.4772-.4771.9314-.7729,1.5682-1.0199.4805-.1869,1.2025-.4089,2.5323-.4695,1.438-.065,1.8693-.0793,5.5107-.0793ZM16,2.3627c-3.7036,0-4.1682.0159-5.6227.0819-1.4518.0662-2.4427.2968-3.3102.6341-.8969.3487-1.6572.815-2.4154,1.573-.7581.7581-1.2248,1.5184-1.573,2.4154-.3372.8675-.5679,1.859-.6341,3.3102-.0661,1.4545-.0819,1.9191-.0819,5.6227s.0159,4.1683.0819,5.6228c.0662,1.4517.2968,2.4427.6341,3.3101.3487.897.815,1.6572,1.573,2.4154.7581.7581,1.519,1.2243,2.4154,1.5731.8675.3372,1.859.5679,3.3102.6341,1.4545.0661,1.9191.0819,5.6227.0819s4.1683-.0159,5.6228-.0819c1.4517-.0662,2.4427-.2968,3.3101-.6341.897-.3488,1.6572-.815,2.4154-1.5731.7581-.7581,1.2243-1.5189,1.5731-2.4154.3372-.8674.5679-1.8589.6341-3.3101.0661-1.4545.0819-1.9191.0819-5.6228s-.0159-4.1682-.0819-5.6227c-.0662-1.4518-.2968-2.4427-.6341-3.3102-.3488-.8969-.815-1.6572-1.5731-2.4154-.7581-.7581-1.5189-1.2243-2.4154-1.573-.8674-.3372-1.8589-.5679-3.3101-.6341-1.4545-.0661-1.9191-.0819-5.6228-.0819ZM16,8.9972c-3.8676,0-7.0028,3.1352-7.0028,7.0028s3.1352,7.0029,7.0028,7.0029,7.0029-3.1352,7.0029-7.0029-3.1352-7.0028-7.0029-7.0028ZM16,20.546c-2.5104,0-4.5459-2.035-4.5459-4.546s2.0355-4.5459,4.5459-4.5459,4.546,2.035,4.546,4.5459-2.0355,4.546-4.546,4.546ZM23.2794,7.0841c-.904,0-1.6365.7324-1.6365,1.6365s.7324,1.6365,1.6365,1.6365,1.6365-.7325,1.6365-1.6365-.7324-1.6365-1.6365-1.6365Z" style="fill: #fff;"/>
    </g>
  </g>
</svg>