<svg width="37" height="32" viewBox="0 0 37 32" fill="none" xmlns="http://www.w3.org/2000/svg">
<path opacity="0.7" d="M16.6962 4.33452C17.7147 7.39022 16.6748 10.4744 14.3741 11.2294C12.0734 11.9844 9.38102 10.1183 8.36245 7.06257C7.34388 4.00687 8.38382 0.922681 10.6845 0.16766C12.9852 -0.587361 15.6776 1.27882 16.6962 4.33452ZM7.14445 11.8634C8.49066 14.1712 8.16301 16.8565 6.41792 17.8537C4.67282 18.8509 2.16558 17.7896 0.826489 15.4818C-0.512605 13.174 -0.192077 10.4887 1.55302 9.49145C3.29811 8.49426 5.80535 9.55556 7.14445 11.8634ZM4.92212 26.2942C8.65449 16.2297 15.2858 13.6726 18.2276 13.6726C21.1693 13.6726 27.8007 16.2297 31.533 26.2942C31.7895 26.9851 31.9034 27.7259 31.9034 28.4667V28.5807C31.9034 30.4183 30.4148 31.907 28.5771 31.907C27.7579 31.907 26.9459 31.8073 26.1553 31.6079L19.8872 30.0408C18.7974 29.7702 17.6578 29.7702 16.568 30.0408L10.2999 31.6079C9.50923 31.8073 8.69722 31.907 7.8781 31.907C6.04041 31.907 4.55173 30.4183 4.55173 28.5807V28.4667C4.55173 27.7259 4.6657 26.9851 4.92212 26.2942ZM30.0372 17.8537C28.2921 16.8565 27.9645 14.1712 29.3107 11.8634C30.6569 9.55556 33.157 8.49426 34.9021 9.49145C36.6472 10.4887 36.9749 13.174 35.6287 15.4818C34.2825 17.7896 31.7823 18.8509 30.0372 17.8537ZM22.081 11.2294C19.7804 10.4744 18.7404 7.39022 19.759 4.33452C20.7776 1.27882 23.47 -0.587361 25.7707 0.16766C28.0713 0.922681 29.1113 4.00687 28.0927 7.06257C27.0741 10.1183 24.3817 11.9844 22.081 11.2294Z" fill="white"/>
</svg>
