<svg xmlns:xlink="http://www.w3.org/1999/xlink" xmlns="http://www.w3.org/2000/svg" viewBox="0 0 130.16 148.37" width="130.16"  height="148.37" ><path d="m24.23 129.06-16.01-7.11c-1.06-.47-1.59-1.08-1.6-1.7v-11.2s23.82 0 23.82 0l33.6-14.91c2.14-.95 5.65-.95 7.79 0l33.59 14.91 23.82.08v11.11s0 .01 0 .01c-.01.62-.55 1.23-1.6 1.7l-55.81 24.77c-2.14.95-5.65.95-7.79 0l-30.04-13.34" fill="#fff"/><path d="m67.92 148.37c-1.54 0-3.07-.27-4.27-.8l-30.04-13.34c-.47-.21-.68-.76-.47-1.22.21-.47.76-.68 1.22-.47l30.04 13.34c1.91.85 5.13.85 7.03 0l55.81-24.77c.83-.37 1.05-.73 1.05-.88 0-.02 0-.04 0-.06v-10.11l-22.9-.07c-.13 0-.26-.03-.37-.08l-33.59-14.91c-1.91-.85-5.13-.85-7.03 0l-33.59 14.91c-.12.05-.25.08-.38.08h-22.89v10.27c0 .12.23.49 1.05.85l16.01 7.11c.47.21.68.76.47 1.22-.21.47-.76.68-1.22.47l-16.01-7.11c-1.84-.82-2.14-1.93-2.15-2.53v-11.22c0-.25.09-.48.27-.66.17-.17.41-.27.66-.27h23.62l33.42-14.83c2.39-1.06 6.15-1.06 8.54 0l33.42 14.83 23.62.08c.51 0 .92.42.92.93v11.08s0 .06 0 .09c-.02.6-.35 1.69-2.15 2.5l-55.81 24.77c-1.2.53-2.73.8-4.27.8z" fill="#2b2b2b"/><path d="m20.61 116 43.42 19.27c2.14.95 5.65.95 7.79 0l18.24-8.1" fill="#fff"/><path d="m67.92 136.92c-1.54 0-3.07-.27-4.27-.8l-43.42-19.27c-.47-.21-.68-.76-.47-1.22.21-.47.75-.68 1.22-.47l43.42 19.27c1.91.85 5.13.85 7.03 0l18.24-8.1c.47-.21 1.02 0 1.22.47.21.47 0 1.02-.47 1.22l-18.24 8.1c-1.2.53-2.73.8-4.27.8z" fill="#2b2b2b"/><path d="m99 123.2 28.62-12.7c2.14-.95 2.14-2.51 0-3.46l-55.81-24.77c-2.14-.95-5.64-.95-7.79 0l-55.81 24.77c-2.14.95-2.14 2.51 0 3.46l6.04 2.68" fill="#fff"/><path d="m99 124.13c-.36 0-.69-.21-.85-.55-.21-.47 0-1.02.47-1.22l28.62-12.7c.78-.34 1.06-.72 1.06-.88s-.28-.54-1.06-.88l-55.81-24.77c-1.91-.85-5.13-.85-7.03 0l-55.81 24.77c-.77.34-1.06.72-1.06.88s.28.54 1.06.88l6.04 2.68c.47.21.68.76.47 1.22-.21.47-.76.68-1.22.47l-6.04-2.68c-1.88-.83-2.16-1.97-2.16-2.58s.28-1.74 2.16-2.58l55.81-24.77c2.4-1.06 6.15-1.06 8.54 0l55.81 24.77c1.88.83 2.16 1.97 2.16 2.58s-.28 1.74-2.16 2.58l-28.62 12.7c-.12.05-.25.08-.38.08z" fill="#2b2b2b"/><path d="m93.5 8.75-6.65-.42c-.75-.05-1.38.54-1.38 1.29 0 .68.52 1.24 1.2 1.29l1.31.1v2.35s9.81-.38 9.81-.38v-1.29l2.31.16c.78.06 1.44-.56 1.44-1.34 0-.71-.55-1.29-1.25-1.34l-2.99-.19" fill="#fff"/><path d="m87.98 14.29c-.24 0-.47-.09-.64-.26-.18-.17-.28-.42-.28-.67v-1.49l-.45-.03c-1.15-.09-2.06-1.06-2.06-2.22 0-.61.26-1.2.7-1.62.45-.42 1.04-.64 1.66-.6l6.65.42c.51.03.9.47.87.98s-.48.89-.98.87l-6.65-.42c-.13 0-.23.06-.28.1-.04.04-.12.13-.12.27 0 .19.15.35.34.37l1.31.1c.48.04.86.44.86.92v1.39l7.96-.31v-.4c0-.26.11-.5.3-.68s.45-.26.7-.25l2.31.16c.16.01.26-.06.31-.11s.13-.15.13-.3c0-.22-.17-.4-.39-.41l-2.99-.19c-.51-.03-.9-.47-.87-.98s.48-.89.98-.87l2.99.19c1.19.08 2.12 1.07 2.12 2.26 0 .63-.26 1.23-.72 1.66s-1.08.65-1.71.6l-1.31-.09v.29c0 .5-.39.91-.89.93l-9.81.38s-.02 0-.04 0z" fill="#2b2b2b"/><path d="m35.08 25.73 2.49-2.55 5.63-1.89 5.88 7.2s-.04 1.82-1.33 2.03c.07.49.18 1.06.38 1.29-.04 1 .17 1.76.41 2.28.26.59.55.88.55.88l2.37 1.85-.36 4.95-4.59 2.74-3.46-3.06-.21-1.61s-.34-.33-.8-1.09c-.07-.11-.14-.25-.22-.38-.78.44-1.67.73-2.66.68-.93-.05-3.02-4.27-3.38-6.12-.16-.83-.63-2.38-.79-2.78-.41-1.51.11-4.41.11-4.41z" fill="#fff"/><path d="m46.5 45.43c-.22 0-.44-.08-.61-.23l-3.46-3.06c-.17-.15-.28-.35-.31-.57l-.18-1.33c-.13-.16-.31-.38-.51-.68-.77.31-1.55.44-2.34.4-.36-.02-1.19-.06-2.68-2.88-.76-1.43-1.38-3-1.57-3.99-.15-.79-.6-2.27-.74-2.59-.02-.04-.03-.08-.04-.11-.46-1.66.04-4.51.1-4.83.03-.18.12-.35.25-.48l2.49-2.55c.1-.1.23-.18.37-.23l5.63-1.89c.36-.12.77 0 1.01.29l5.88 7.2c.14.17.21.39.21.61-.02.75-.31 1.96-1.21 2.57.03.12.06.16.06.16.16.18.2.36.19.6-.02.7.08 1.33.33 1.87.14.31.28.5.34.57l2.3 1.79c.24.19.38.49.36.8l-.36 4.95c-.02.3-.19.57-.45.73l-4.59 2.74c-.15.09-.31.13-.48.13zm-2.59-4.45 2.69 2.38 3.59-2.14.29-3.97-1.98-1.54s-.06-.05-.08-.07c-.07-.07-.43-.45-.74-1.16-.32-.72-.49-1.53-.49-2.4-.17-.33-.28-.79-.36-1.42-.07-.5.28-.96.77-1.04.3-.05.45-.5.52-.83l-5.22-6.4-4.81 1.62-2.13 2.18c-.14.9-.34 2.71-.1 3.68.22.56.66 2.07.82 2.89.32 1.63 1.98 4.83 2.65 5.37.68.03 1.34-.18 2.02-.56.22-.12.47-.15.71-.09s.44.23.56.44c.09.16.14.26.2.35.38.63.66.91.66.91.15.14.25.34.27.54l.17 1.27z" fill="#2b2b2b"/><path d="m94.31 23.55s.4 1.95-3.61 1.39c-3.93-.55-3.21-2.48-3.21-2.48l1.27-2.16 4.42.34 1.13 2.9z" fill="#929497"/><path d="m92.02 25.97c-.44 0-.92-.04-1.44-.11-1.9-.26-3.16-.89-3.73-1.86-.42-.7-.38-1.44-.22-1.86.02-.05.04-.1.07-.15l1.27-2.16c.18-.3.52-.48.87-.45l4.42.34c.36.03.66.26.79.59l1.13 2.9s.03.1.04.15c.09.44 0 1.15-.52 1.71-.56.6-1.44.89-2.68.89zm-3.66-3.16s.01.15.09.27c.14.2.64.7 2.38.94 1.89.26 2.41-.12 2.5-.2.03-.03.05-.06.06-.09l-.86-2.21-3.26-.25-.9 1.54z"/><path d="m75.26 95.36s.57-1.43-3.29-.87c-3.04.44-2.48 1.66-2.48 1.66l.83 1.48 4.39-.43.55-1.83z" fill="#929497"/><path d="m70.32 98.55c-.33 0-.64-.18-.81-.47l-.83-1.48c-.19-.39-.25-.94.05-1.49.43-.8 1.45-1.3 3.11-1.54 2.16-.31 3.45-.1 4.06.67.38.48.38 1.04.25 1.41l-.54 1.81c-.11.36-.42.62-.8.66l-4.39.43s-.06 0-.09 0zm.11-2.63.4.72 3.17-.31.29-.97c-.27-.07-.89-.15-2.19.04-1.09.16-1.52.4-1.67.52zm3.97-.91s0 0 0 0z"/><path d="m29.52 46.71c-.8.34-1.58.68-2.28.99l1.61 4.59c1.42-.35 3.4-.86 5.29-1.59 3.49-1.34 6.84-3.19 8.13-2.82 1.08-.16.2-6.6-.89-6.67-3.7-.17-4.82 2.43-6.03 2.97-.38.17-1.53.67-2.93 1.27" fill="#fff"/><path d="m28.86 53.22c-.39 0-.74-.24-.87-.62l-1.61-4.6c-.16-.46.06-.96.51-1.16l2.28-.99c.47-.2 1.02.01 1.22.48s-.01 1.02-.48 1.22l-1.48.64 1.05 2.98c1.32-.34 2.87-.78 4.36-1.35 1.04-.4 2.05-.84 3.03-1.26 2.31-1 3.85-1.64 4.97-1.67.17-1.1-.26-3.99-.73-4.78-2.09-.03-3.08.97-3.99 1.85-.44.43-.86.83-1.36 1.05-.39.17-1.53.67-2.94 1.28-.47.2-1.02-.01-1.22-.48s.01-1.02.48-1.22c1.4-.6 2.53-1.1 2.92-1.27.2-.09.51-.39.83-.7 1.03-.99 2.59-2.49 5.62-2.36 2.03.14 2.25 5.28 2.26 5.5.03.77.11 2.82-1.27 3.02-.13.02-.26.01-.39-.03-.58-.17-2.81.8-4.44 1.5-1 .43-2.03.88-3.1 1.29-1.91.73-3.89 1.25-5.4 1.62-.07.02-.15.03-.22.03z" fill="#2b2b2b"/><path d="m17.83 49.13c2.56-.26 4.9-.43 6.78-.27.23-.11 1.28-.57 2.63-1.16 0 0 1.17-.01 1.89 2.07s-.28 2.53-.28 2.53c-.86.22-1.52.37-1.83.47-3.59 1.71-15.42.54-15.42.54s-3.35 1.56-5.18 1.56c-2.29 0-5.63-1.64-5.5-3.2.13-1.55 3.83-1.87 3.83-1.87s-1.05.04-.97-.62c.04-.38 2.48-.79 4.05-.62s3.2 1.23 3.2 1.23c1.39-.1 2.77-.25 4.13-.39" fill="#ff6e64"/><path d="m6.43 55.79c-1.99 0-4.48-1.01-5.67-2.3-.69-.76-.79-1.45-.76-1.9.11-1.36 1.58-2.05 2.86-2.39 0-.04 0-.08 0-.12.02-.19.11-.48.42-.72.77-.62 3.32-.86 4.65-.71 1.38.15 2.75.87 3.32 1.21 1.28-.1 2.55-.23 3.8-.36.52-.06.97.32 1.02.83s-.32.97-.83 1.02c-1.36.14-2.76.28-4.15.39-.2.02-.41-.04-.58-.15-.01 0-1.47-.95-2.79-1.09-.64-.07-1.43-.03-2.09.06.02.06.03.13.03.2.03.5-.34.93-.84.97-1.61.14-2.96.72-2.99 1.02 0 .08.06.26.27.49.83.91 2.84 1.7 4.3 1.7 1.33 0 3.9-1.06 4.78-1.48.15-.07.32-.1.48-.08 3.22.32 12.18.86 14.93-.45.04-.02.07-.03.11-.04.23-.07.62-.17 1.15-.3l.53-.13c.07-.15.12-.57-.16-1.38-.33-.96-.74-1.29-.94-1.4-1.46.63-2.15.94-2.3 1.02-.15.07-.32.1-.49.09-1.86-.16-4.27.04-6.61.27-.51.05-.96-.32-1.02-.83-.05-.51.32-.96.83-1.02 2.68-.27 4.86-.42 6.7-.29.58-.26 1.85-.82 2.44-1.07.11-.05.24-.08.36-.08.21-.03 1.86.06 2.78 2.69.99 2.86-.71 3.65-.78 3.68-.05.02-.1.04-.15.05l-.76.19c-.42.1-.76.18-.96.25-3.59 1.65-13.56.81-15.6.62-.86.38-3.59 1.54-5.33 1.54z" fill="#2b2b2b"/><path d="m94.66 33.43c.3 1.84.68 3.8 1.16 5.87.45 1.9-1.76 3.77-2.84 4.39-2.35 1.37-6.15 5.29-14.52 7.85-1.27.29-4.91 0-4.91 0l-4.91-6.63s1.29-1.9 2.07-3.14c2.63-1.99 8.27-1.64 8.27-1.64s4.58-1.23 9.87-2.34c-2.69-5.39-.27-15.05-.33-20.34 3-1.99 5.19.66 5.19.66s-.4 4.43.41 11.44" fill="#fff"/><path d="m76.52 52.59c-1.38 0-2.8-.11-3.04-.13-.27-.02-.51-.16-.67-.37l-4.91-6.63c-.23-.32-.24-.75-.02-1.07.01-.02 1.29-1.9 2.05-3.11.06-.1.14-.18.23-.25 2.64-2 7.76-1.87 8.74-1.83.75-.2 4.4-1.15 8.67-2.08-1.43-3.94-.87-9.26-.38-14 .22-2.11.43-4.1.41-5.65 0-.31.15-.61.41-.78 2.92-1.94 5.48-.29 6.42.85.16.19.23.43.21.67 0 .04-.38 4.43.41 11.25.06.51-.31.97-.81 1.03-.51.06-.97-.31-1.03-.81-.68-5.87-.52-9.92-.45-11.2-.5-.46-1.72-1.29-3.31-.48-.03 1.55-.22 3.39-.42 5.32-.52 4.94-1.1 10.55.66 14.07.13.26.13.56 0 .82-.12.26-.36.44-.64.5-5.2 1.1-9.77 2.32-9.82 2.33-.1.03-.2.03-.3.03-1.45-.09-5.55-.01-7.53 1.36-.52.82-1.21 1.85-1.62 2.47l4.27 5.76c1.39.09 3.47.16 4.21-.01 6.15-1.88 9.79-4.55 12.2-6.32.78-.57 1.46-1.07 2.06-1.42.88-.51 2.71-2.08 2.41-3.38-.46-1.96-.85-3.96-1.17-5.93-.08-.51.26-.98.77-1.06s.98.26 1.06.77c.31 1.93.7 3.88 1.15 5.8.57 2.44-1.9 4.6-3.28 5.4-.52.3-1.16.77-1.89 1.31-2.51 1.84-6.3 4.63-12.82 6.62-.54.13-1.37.17-2.21.17z" fill="#2b2b2b"/><path d="m73.63 71.72c-.31 4.07-.48 7.23-.21 7.91 2.91 5.71.56 11.02 1.63 19.28-.64 1.34-3.47 1.6-4.71.84.34-9.37-1.12-10.26-1.91-15.05-.55-3.4-.48-5.78-.48-5.78-1.71-5.12-5.13-11.38-5.71-19.71-.02-1 3.07-3.2 3.07-3.2s9.25-2.63 9.73-2.02c-.22 3.91-.71 9.27-1.11 14.08" fill="#fff"/><path d="m72.17 101.1c-.88 0-1.73-.19-2.33-.56-.28-.18-.45-.49-.44-.82.24-6.44-.39-8.75-1.06-11.2-.29-1.08-.6-2.19-.84-3.66-.48-2.97-.5-5.16-.49-5.78-.42-1.24-.95-2.57-1.5-3.97-1.68-4.22-3.76-9.48-4.2-15.82-.03-1.27 1.87-2.88 3.46-4.02.09-.06.18-.11.28-.14 9.84-2.8 10.31-2.22 10.71-1.71.14.18.21.4.2.63-.18 3.15-.53 7.23-.87 11.18l-.25 2.93c-.04.51-.48.89-1 .85-.51-.04-.89-.49-.85-1l.25-2.93c.31-3.56.62-7.22.81-10.19-1.55.21-5.19 1.1-8.34 1.99-1.22.89-2.37 1.96-2.55 2.38.43 6.01 2.36 10.87 4.07 15.17.59 1.48 1.14 2.88 1.59 4.22.03.1.05.21.05.32 0 .02-.06 2.34.47 5.6.23 1.38.51 2.45.79 3.48.68 2.5 1.33 4.87 1.14 11.11.53.14 1.3.16 2-.05.35-.1.63-.25.8-.41-.38-3.25-.26-6.06-.15-8.54.17-3.85.3-6.88-1.33-10.08-.29-.73-.35-2.35.12-8.4.04-.51.49-.89 1-.85s.89.49.85 1c-.42 5.41-.38 7.06-.28 7.48 1.82 3.61 1.67 7.01 1.5 10.94-.11 2.5-.23 5.34.18 8.58.02.18 0 .36-.08.52-.35.73-1.06 1.26-2.07 1.56-.52.15-1.08.23-1.63.23z" fill="#2b2b2b"/><path d="m62.24 59.21s8.72 2.64 16.22-7.67c0 0-4.46-1.56-7.14-6.03-1.16-1.92-.61-3.74-.61-3.74s-3.07 1.99-3.38 3.39c-.28.47-5.3 8.89-5.3 8.89l.21 5.17z" fill="#535359"/><path d="m64.91 60.45c-1.7 0-2.81-.32-2.94-.36-.38-.11-.64-.46-.66-.85l-.21-5.17c0-.18.04-.36.13-.51 0 0 4.58-7.68 5.24-8.78.49-1.59 2.97-3.3 3.74-3.8.33-.21.75-.2 1.06.04.31.23.44.64.33 1.01-.02.05-.4 1.48.52 3 2.47 4.11 6.61 5.62 6.66 5.63.28.1.49.32.58.6s.04.58-.14.82c-5.18 7.12-10.93 8.37-14.31 8.37zm-1.77-1.99c1.97.33 8.12.67 13.88-6.55-1.59-.79-4.49-2.59-6.49-5.92-.49-.82-.72-1.62-.82-2.32-.77.65-1.39 1.31-1.48 1.69-.02.1-.06.19-.11.28-.26.43-4.34 7.28-5.16 8.65l.17 4.18z"/><path d="m48.28 41.61c2.81-2.29.8-6.64.8-6.64l9.2-1.54s4.11 2.7 5.2 3.81c2 3.05 1.84 4.38 3.73 7.69 5.4-7.72 9.54-3.37 14.09-6.59 5.95 5.23 4.47 10.84-2.25 16.09-7.18 5.61-10.11 10.39-16.84 9.19.42-1.54-.44-2.47.03-4.42.02-.24-.29-.7-.71-1.19-.63.24-1.18.32-1.62.19-1.37-.4-6.17-1.7-6.17-1.7s-1.99.77-3.98-.21-3.74-4.91-4.67-6.03c-.93-1.13-2.15-1.58-3.15-2.74-1.92-2.21-.55-6.31-.55-6.31l1.43-1.37s.7.79 1.73 1.41" fill="#ff6e64"/><g fill="#2b2b2b"><path d="m64.24 64.75c-.69 0-1.42-.07-2.2-.21-.26-.05-.48-.2-.62-.42s-.18-.49-.11-.74c.15-.55.08-1.01-.01-1.59-.1-.67-.23-1.49-.02-2.56-.02-.04-.05-.08-.09-.14-.57.13-1.09.14-1.54 0-1.16-.34-4.87-1.35-5.89-1.63-.72.2-2.55.57-4.41-.34-1.65-.81-2.97-3.02-4.03-4.79-.37-.62-.72-1.2-.95-1.49-.39-.48-.88-.84-1.4-1.21-.55-.4-1.17-.85-1.74-1.51-2.24-2.58-.79-7.02-.73-7.21.05-.14.13-.27.24-.38l1.44-1.37c.18-.17.43-.27.68-.26s.49.12.66.31c0 0 .62.7 1.51 1.23.44.26.58.83.32 1.27s-.83.58-1.27.32c-.5-.3-.93-.63-1.25-.92l-.62.59c-.33 1.16-.76 3.82.44 5.2.42.49.91.85 1.43 1.22.59.43 1.2.87 1.74 1.53.32.39.69 1 1.11 1.71.84 1.4 2.1 3.51 3.25 4.08 1.58.77 3.23.18 3.24.17.18-.07.38-.08.57-.03.2.05 4.83 1.31 6.19 1.71.1.03.4.07 1.02-.16.36-.14.78-.03 1.04.26.72.84.98 1.37.93 1.89 0 .04-.01.08-.02.13-.2.84-.11 1.44 0 2.08.06.41.13.84.12 1.33 4.15.42 6.67-1.79 10.68-5.31 1.32-1.16 2.82-2.47 4.54-3.82 3.65-2.86 5.55-5.66 5.62-8.34.06-1.99-.92-3.96-2.9-5.85-1.74 1.01-3.41 1.12-5.02 1.23-2.65.18-5.15.35-8.21 4.72-.18.26-.49.41-.8.4-.32-.01-.61-.19-.76-.47-.91-1.59-1.37-2.77-1.78-3.8-.47-1.2-.88-2.24-1.87-3.76-.84-.82-3.42-2.59-4.68-3.43l-7.75 1.3c.48 1.63.93 4.67-1.46 6.63-.4.32-.98.27-1.31-.13-.32-.4-.27-.98.13-1.31 2.21-1.81.56-5.5.54-5.53-.12-.26-.11-.57.02-.82s.38-.43.67-.48l9.2-1.54c.23-.04.47.01.66.14.43.28 4.23 2.79 5.36 3.94.04.04.08.09.11.14 1.13 1.72 1.6 2.92 2.1 4.18.28.71.57 1.44.99 2.3 3.21-3.95 6.12-4.15 8.71-4.32 1.7-.11 3.17-.21 4.71-1.31.35-.25.82-.22 1.15.06 2.76 2.42 4.12 5.04 4.04 7.77-.09 3.26-2.23 6.54-6.33 9.75-1.68 1.32-3.16 2.61-4.46 3.75-3.77 3.3-6.63 5.82-10.91 5.82z"/><path d="m64.24 64.75c-.69 0-1.42-.07-2.2-.21-.26-.05-.48-.2-.62-.42s-.18-.49-.11-.74c.15-.55.08-1.01-.01-1.59-.11-.72-.25-1.61.04-2.81.12-.5.62-.81 1.12-.68.5.12.8.62.68 1.12-.2.84-.11 1.44 0 2.08.06.41.13.84.12 1.33 4.15.42 6.67-1.79 10.68-5.31 1.32-1.16 2.82-2.47 4.54-3.82 3.13-2.44 4.97-4.87 5.48-7.2.11-.5.6-.82 1.1-.71s.82.6.71 1.1c-.6 2.77-2.67 5.55-6.15 8.26-1.68 1.32-3.16 2.61-4.46 3.75-3.77 3.3-6.63 5.82-10.91 5.82z"/><path d="m67.89 44.95c-.2 0-.4-.06-.57-.2-.4-.32-.47-.9-.15-1.3 3.28-4.17 6.26-4.37 8.89-4.54 1.7-.11 3.17-.21 4.71-1.31.35-.25.82-.22 1.15.06 1.62 1.43 2.77 2.93 3.42 4.48.2.47-.03 1.02-.5 1.21-.47.2-1.02-.03-1.21-.5-.47-1.12-1.28-2.24-2.42-3.33-1.74 1.01-3.41 1.12-5.02 1.23-2.46.17-4.79.32-7.56 3.84-.18.23-.45.35-.73.35z"/><path d="m70.69 50.81c-.47 0-.87-.36-.92-.83-.2-1.91-1.95-2.85-2.03-2.89-.45-.24-.63-.79-.4-1.25.23-.45.79-.64 1.24-.4.11.06 2.73 1.42 3.03 4.35.05.51-.32.97-.83 1.02-.03 0-.06 0-.1 0z"/><path d="m62.53 60.16c-.18 0-.35-.02-.5-.05-1.65-.37-2.6-1.1-2.7-1.18-.4-.32-.46-.9-.15-1.3.32-.4.9-.46 1.3-.15 0 0 .72.55 1.95.82.78.16 4.66-1.31 6.44-3.96.28-.43.86-.54 1.29-.25s.54.86.25 1.29c-1.92 2.86-5.89 4.79-7.89 4.79z"/><path d="m68 53.2c-.19 0-.38-.06-.55-.18-.41-.3-.5-.88-.2-1.3 1.85-2.51.74-4.28-.25-5.4-.14-.15-.22-.27-.26-.33-1.14-1.9-1.67-3.23-2.13-4.4-.47-1.2-.88-2.24-1.87-3.76-.84-.82-3.42-2.59-4.68-3.43l-7.75 1.3c.48 1.63.93 4.67-1.46 6.63-.05.04-.1.07-.15.1-.51.27-1.05.42-1.61.46-.51.03-.95-.36-.98-.87s.36-.95.87-.98c.27-.02.53-.08.78-.21 2.1-1.83.49-5.44.47-5.47-.12-.26-.11-.57.02-.82s.38-.43.67-.48l9.2-1.54c.23-.04.47.01.66.14.43.28 4.23 2.79 5.36 3.94.04.04.08.09.11.14 1.13 1.72 1.6 2.91 2.09 4.18.45 1.16.92 2.35 1.99 4.12l.06.06c2.73 3.08 1.7 5.91.36 7.73-.18.25-.46.38-.75.38z"/><path d="m60.37 59.2c-.25 0-.49-.03-.72-.1-1.16-.34-4.87-1.35-5.89-1.63-.72.2-2.55.57-4.41-.34-1.65-.81-2.97-3.02-4.03-4.79-.37-.62-.72-1.2-.95-1.49-.39-.48-.88-.84-1.4-1.21-.55-.4-1.17-.85-1.74-1.51-2.24-2.58-.79-7.02-.73-7.21.05-.14.13-.27.24-.38l1.44-1.37c.18-.17.43-.27.68-.26s.49.12.66.31c0 0 .65.73 1.57 1.26.44.26.59.83.33 1.27s-.83.59-1.27.33c-.53-.31-.99-.67-1.33-.97l-.62.59c-.33 1.16-.77 3.82.44 5.2.42.49.91.85 1.43 1.22.59.43 1.2.87 1.74 1.53.32.39.69 1 1.11 1.71.84 1.4 2.1 3.51 3.25 4.08 1.58.77 3.23.18 3.24.17.18-.07.38-.08.57-.03.2.05 4.83 1.31 6.19 1.71.61.18 2.54-.55 5.14-3.27.35-.37.94-.39 1.31-.03.37.35.38.94.03 1.31-.92.97-3.89 3.87-6.28 3.87z"/><path d="m46.62 20.98c3.62-3.23 9.02.85 14.51.36-6.88 4.46-9.51 1.08-14.13 1.98.38-1.48-1.29-2.01-.38-2.35z"/><path d="m54.21 24.64c-1.07 0-2.03-.15-2.95-.29-1.35-.21-2.62-.4-4.08-.11-.32.06-.64-.04-.85-.27-.22-.23-.3-.56-.22-.87.09-.35-.04-.55-.29-.89-.21-.29-.52-.73-.35-1.29.1-.32.32-.56.65-.72 2.52-2.14 5.71-1.35 8.79-.59 2.01.49 4.09 1 6.14.83.42-.04.82.22.96.62s-.01.85-.37 1.08c-3.1 2.01-5.44 2.52-7.43 2.52zm-5.5-2.4c1 0 1.93.14 2.84.28 1.88.29 3.67.56 6.18-.42-1.13-.18-2.23-.45-3.26-.7-2.75-.68-5.15-1.27-6.93.04.14.22.28.5.37.84.27-.02.54-.03.8-.03zm-2.09-1.26.31.87s0 0 0 0l-.32-.87z"/><path d="m34.99 25.48c.39-.89 3.86-8.47 11.22-4.74 4.25 2.15 4.49 6.93 4.47 8.42s-1.53 3.11-2.56 2.66c-1.9-.83-.27-3.62-1.9-4.43-1.91-.85-1.75 1.31-2.17 2.64-6.91 0-9.31-3.97-9.05-4.55z"/><path d="m48.5 32.82c-.26 0-.51-.05-.75-.15-1.53-.66-1.58-2.16-1.62-3.15-.03-.87-.08-1.18-.33-1.3-.25-.11-.35-.1-.36-.1-.07.11-.2.75-.27 1.13-.07.37-.15.73-.25 1.06-.12.39-.48.65-.88.65-5.08 0-8.24-2.08-9.5-4.02-.48-.73-.61-1.35-.4-1.83.47-1.07 2.28-4.66 5.75-5.9 2.08-.75 4.35-.51 6.74.7 4.57 2.31 5 7.25 4.98 9.26-.02 1.23-.76 2.55-1.81 3.23-.43.28-.87.42-1.3.42zm-3.04-6.55c.35 0 .73.09 1.14.27 1.31.64 1.36 1.95 1.39 2.91.04 1.02.11 1.34.5 1.51.01 0 .18-.01.42-.21.48-.38.83-1.06.84-1.61.02-1.66-.32-5.74-3.96-7.58-1.92-.97-3.69-1.18-5.28-.61-2.58.92-4.07 3.6-4.58 4.69.31.69 2.28 3.22 7.38 3.44.01-.06.02-.13.04-.19.18-.92.39-1.97 1.28-2.44.25-.13.52-.19.82-.19z"/></g><path d="m77.74 16.71c1.47-3.29 2.91-6.52 2.94-6.6 0 0-.74-1.53-.34-2.9s1.14-2.83 1.75-2.82c.61 0 1.32-4.46 3.95-3.24 1.53.71 1.54 4.18.93 6.2s-2.85 4.34-2.85 4.34c-1.29 4.61-2.54 12.88-6.36 15.87-.68.59-1.57 1.27-2.57 1.99l-3.2-4.25c.86-.54 1.74-1.07 2.63-1.59.11-.25.85-1.92 1.78-4" fill="#ff6e64"/><path d="m75.19 30.48c-.28 0-.56-.13-.74-.37l-3.2-4.25c-.16-.21-.22-.47-.17-.73s.2-.48.42-.62c.79-.49 1.58-.97 2.39-1.45.26-.58.86-1.93 1.58-3.55l.08-.18c.21-.47.75-.68 1.22-.47s.68.76.47 1.22l-.08.18c-.89 1.99-1.59 3.57-1.7 3.81-.08.18-.21.33-.38.43-.59.34-1.17.69-1.75 1.05l2.04 2.7c.72-.54 1.31-1 1.77-1.4 2.86-2.25 4.22-7.86 5.31-12.36.27-1.12.52-2.16.77-3.06.04-.15.12-.28.23-.39.02-.02 2.09-2.18 2.63-3.96.6-1.96.36-4.73-.43-5.09-.77-.36-1.24.06-2.08 1.84-.35.74-.66 1.39-1.32 1.47-.21.21-.67.96-1.02 2.16-.24.83.12 1.9.28 2.24.11.23.12.49.03.73-.03.08-.46 1.05-2.96 6.65-.21.47-.76.68-1.22.47-.47-.21-.68-.76-.47-1.22 1.01-2.27 2.33-5.24 2.78-6.24-.24-.64-.58-1.91-.22-3.15.34-1.17 1.06-3.03 2.2-3.41.07-.14.17-.33.24-.49.56-1.19 1.87-3.97 4.54-2.73 2.26 1.05 2.04 5.28 1.42 7.32-.57 1.89-2.35 3.93-2.9 4.54-.23.83-.45 1.77-.7 2.78-1.15 4.79-2.59 10.75-5.93 13.36-.62.54-1.48 1.21-2.6 2.01-.16.12-.35.17-.54.17zm6.89-25.16s.01 0 .01 0z" fill="#2b2b2b"/><path d="m68.64 34.03c-2.49 1.7-4.56 3.18-4.96 3.92-.93 1.68-2.76 2.26-3.54 2.17s-2.59-.42-3.36-2.18c-.64-1.49.08-2.96 1.13-4.12 2.01-2.21 4.41-2.66 6.93-4.11 2.32-1.33 4.68-2.87 7.15-4.39 0 0 1.24-.49 2.63 1.54s.57 2.71.57 2.71c-1.04.75-2.21 1.54-3.38 2.34" fill="#fff"/><path d="m60.3 41.06c-.1 0-.19 0-.27-.01-1.97-.22-3.43-1.19-4.1-2.74-.69-1.61-.23-3.43 1.3-5.12 1.48-1.63 3.17-2.4 4.81-3.14.77-.35 1.56-.71 2.35-1.16 1.61-.92 3.22-1.93 4.92-3 .72-.46 1.46-.92 2.2-1.37.05-.03.1-.05.15-.08.2-.08 1.98-.68 3.74 1.88 1.82 2.65.54 3.82.39 3.95-1.1.79-2.27 1.59-3.46 2.39-.43.29-1 .18-1.29-.25-.29-.42-.18-1 .25-1.29 1.11-.75 2.22-1.5 3.21-2.22.02-.14 0-.61-.64-1.54-.66-.97-1.24-1.21-1.52-1.19-.69.43-1.37.86-2.05 1.28-1.72 1.08-3.34 2.1-4.99 3.04-.86.5-1.7.87-2.51 1.24-1.6.72-2.98 1.35-4.2 2.69-1.04 1.15-1.37 2.2-.97 3.13s1.28 1.48 2.61 1.63c.45.05 1.9-.37 2.63-1.7.43-.78 1.8-1.9 5.25-4.24.42-.29 1-.18 1.29.24s.18 1-.24 1.29c-1.06.72-4.3 2.93-4.67 3.6-1.03 1.88-3 2.66-4.19 2.66z" fill="#2b2b2b"/><path d="m58.72 52.76c1.83-1.4 3.69-2.86 4.67-3.74" fill="#a81c3c"/><path d="m58.72 53.68c-.28 0-.55-.13-.74-.36-.31-.41-.23-.99.17-1.3 2.24-1.72 3.8-2.96 4.62-3.7.38-.34.97-.31 1.31.07s.31.97-.07 1.31c-.86.77-2.45 2.04-4.73 3.79-.17.13-.37.19-.56.19z" fill="#2b2b2b"/><path d="m53.74 56.5s1.57-1.15 3.48-2.6" fill="#a81c3c"/><path d="m53.74 57.43c-.29 0-.57-.13-.75-.38-.3-.41-.22-.99.2-1.3 0 0 1.56-1.15 3.47-2.59.41-.31.99-.23 1.3.18s.23.99-.18 1.3c-1.92 1.45-3.49 2.61-3.49 2.61-.17.12-.36.18-.55.18z" fill="#2b2b2b"/><path d="m65.58 107.23.64 1.12-2.08 1.01c-.7.34-.96 1.2-.57 1.88.35.61 1.12.84 1.76.53l12.05-5.98c.67-.33.92-1.16.55-1.81-.34-.59-1.07-.81-1.68-.52l-1.18.57-1.18-2.04-8.3 5.24z" fill="#fff"/><path d="m64.74 112.83c-.79 0-1.55-.41-1.97-1.13-.31-.54-.39-1.2-.21-1.8s.61-1.1 1.18-1.38l1.18-.58-.15-.25c-.25-.43-.11-.98.31-1.25l8.3-5.24c.21-.14.47-.18.72-.12.24.06.45.22.58.44l.75 1.29.41-.2c1.04-.5 2.31-.11 2.89.89.31.53.38 1.17.2 1.75-.18.59-.59 1.08-1.14 1.35l-12.06 5.98c-.32.16-.66.24-1 .24zm2.09-5.29.2.34c.13.22.16.49.08.74s-.25.45-.48.56l-2.08 1.01c-.14.07-.19.19-.21.25s-.04.19.04.33c.11.19.35.26.54.16l12.05-5.98c.12-.06.17-.17.19-.22.02-.06.04-.17-.03-.29-.1-.17-.31-.23-.48-.15l-1.18.57c-.44.21-.96.05-1.21-.37l-.7-1.2z" fill="#2b2b2b"/><path d="m66.95 103.57c-1.31 1.05-2.76 2.03-3.34 2.22-1.03.35-.68 2.92-.26 3.16s2.54.04 4.28-.83c2.6-1.29 3.16-2.44 3.88-2.77.72-.32 2.59-.48 4.46-1.64.96-.59-.41-4.62-.41-4.62s-.7-1.74-.31-3.74c-1.62 1.96-4.88 1.54-5.77.78.38 1.24.64 3.91-.18 5.17-.11.17-.27.36-.47.57" fill="#ff6e64"/><path d="m64.01 109.97c-.46 0-.86-.07-1.12-.22-.89-.51-.92-2.29-.86-2.88.14-1.39.86-1.83 1.28-1.97.33-.11 1.58-.9 3.05-2.07.4-.32.98-.25 1.3.15s.25.98-.15 1.3c-.91.72-2.65 2.01-3.55 2.35-.15.25-.13 1.04-.02 1.48.66.01 2.03-.21 3.27-.83 1.55-.77 2.3-1.47 2.85-1.98.36-.33.67-.62 1.06-.8.3-.13.66-.22 1.12-.34.84-.21 1.99-.5 3.12-1.17.12-.51-.19-2.16-.68-3.6-.01-.02-.36-.91-.45-2.16-.54.23-1.14.39-1.79.44-.6.05-1.19.02-1.74-.07.15 1.39.1 3.11-.63 4.22-.14.21-.32.44-.57.7-.35.37-.94.39-1.31.04s-.39-.94-.04-1.31c.16-.17.29-.32.37-.44.58-.89.43-3.23.07-4.39-.12-.39.03-.82.38-1.05.34-.23.8-.2 1.11.07.21.18 1.1.49 2.2.39.68-.06 1.62-.29 2.25-1.06.27-.33.73-.43 1.11-.25s.6.6.52 1.01c-.33 1.69.26 3.21.27 3.22 1.08 3.18 1.09 5.1.04 5.75-1.41.88-2.83 1.23-3.76 1.47-.34.09-.67.17-.82.23-.11.05-.33.25-.56.46-.6.56-1.5 1.39-3.29 2.28-1.16.58-2.84 1.02-4.04 1.02zm-.09-3.3s0 0 0 0z" fill="#2b2b2b"/><path d="m88.14 18.05c-.02 1.57-.35 3.52-.65 4.41 1.12-1.48 5.93-.74 6.82 1.09-.4-1.81-.18-6.51.66-7.04.85-.52 1.88-.52 3.55-.91 1.66-.4 1.46-2.66.56-3.45-1.28-1.12-5.07-.44-6.27-.45-1.21 0-3.35-.52-4.47-.44-.8.07-1.97.97-1.67 2.05.17.6.57 1.19.92 1.94" fill="#ff6e64"/><path d="m94.31 24.48c-.35 0-.67-.19-.83-.52-.26-.53-1.47-1.17-3.04-1.32-1.16-.11-2 .12-2.21.39-.27.36-.77.47-1.17.26s-.59-.68-.45-1.11c.28-.83.58-2.68.6-4.13 0-.51.42-.92.93-.92h.01c.51 0 .92.43.92.94-.01.9-.12 1.88-.26 2.76.54-.09 1.15-.1 1.81-.04.81.08 1.76.29 2.59.67-.05-2.18.2-5.07 1.27-5.74.72-.44 1.49-.58 2.39-.74.42-.07.89-.16 1.44-.29.18-.04.4-.14.49-.5.12-.5-.08-1.12-.33-1.35-.68-.6-3.19-.39-4.39-.29-.53.04-.98.08-1.28.08-.61 0-1.37-.11-2.18-.23-.84-.12-1.71-.25-2.21-.21-.17.01-.55.19-.75.48-.15.21-.11.35-.09.4.08.28.25.59.44.96.14.26.29.54.43.84.21.47 0 1.02-.46 1.23-.47.21-1.02 0-1.23-.46-.12-.27-.25-.51-.38-.74-.24-.44-.46-.86-.59-1.34-.18-.66-.06-1.36.36-1.95.49-.7 1.34-1.21 2.13-1.27.72-.05 1.69.09 2.63.23.72.1 1.43.2 1.94.21.27 0 .64-.03 1.08-.07 1.9-.16 4.5-.38 5.77.75.81.71 1.19 2.05.91 3.19-.24.96-.92 1.64-1.86 1.86-.58.14-1.09.23-1.54.31-.72.13-1.26.22-1.66.44-.42.72-.69 4.43-.32 6.1.1.46-.16.92-.6 1.08-.1.04-.2.05-.31.05z" fill="#2b2b2b"/></svg>