<svg xmlns:xlink="http://www.w3.org/1999/xlink" xmlns="http://www.w3.org/2000/svg" viewBox="0 0 122.78 89.92" width="127"  height="90" ><path d="m107.65 1h-92.52c-7.8 0-14.13 6.33-14.13 14.13v48.88c0 7.8 6.33 14.13 14.13 14.13h41.42s0 10.77 0 10.77l10.27-10.77h40.83c7.8 0 14.13-6.33 14.13-14.13v-48.88c0-7.8-6.33-14.13-14.13-14.13z" fill="#fff"/><path d="m1 62.02v1.99c0 7.8 6.33 14.13 14.13 14.13h41.42s0 10.77 0 10.77l10.27-10.77h40.83c7.8 0 14.13-6.33 14.13-14.13v-39.23" fill="#fff"/><path d="m56.55 89.92c-.12 0-.25-.02-.37-.07-.38-.15-.63-.52-.63-.93v-9.77h-40.42c-8.34 0-15.13-6.79-15.13-15.13v-1.99c0-.55.45-1 1-1s1 .45 1 1v1.99c0 7.24 5.89 13.13 13.13 13.13h41.42c.55 0 1 .45 1 1v8.28l8.54-8.97c.19-.2.45-.31.72-.31h40.83c7.24 0 13.13-5.89 13.13-13.13v-39.24c0-.55.45-1 1-1s1 .45 1 1v39.24c0 8.34-6.79 15.13-15.13 15.13h-40.4l-9.97 10.46c-.19.2-.46.31-.72.31z" fill="#2b2b2b"/><path d="m121.78 15.13c0-7.8-6.33-14.13-14.13-14.13h-92.52c-7.8 0-14.13 6.33-14.13 14.13v37.24" fill="#fff"/><g fill="#2b2b2b"><path d="m1 53.37c-.55 0-1-.45-1-1v-37.24c0-8.34 6.79-15.13 15.13-15.13h92.52c8.34 0 15.13 6.79 15.13 15.13 0 .55-.45 1-1 1s-1-.45-1-1c0-7.24-5.89-13.13-13.13-13.13h-92.52c-7.24-0-13.13 5.89-13.13 13.13v37.24c0 .55-.45 1-1 1z"/><path d="m25.33 36.13v-5.15c-.43.17-.87.34-1.33.5s-.93.31-1.42.46c-.09-.26-.21-.55-.37-.87-.16-.33-.31-.57-.46-.74 1.22-.28 2.39-.66 3.52-1.14s2.17-1.04 3.1-1.67c-.61-.59-1.13-1.23-1.57-1.92-.89.89-1.85 1.63-2.88 2.22-.11-.18-.28-.4-.53-.66s-.48-.46-.69-.58c1.11-.62 2.12-1.39 3.02-2.31.91-.92 1.62-1.9 2.13-2.94l1.68.58c-.1.19-.2.38-.3.58-.11.19-.22.38-.34.58h4.74l.67.56c-.93 1.54-1.99 2.84-3.2 3.92.85.59 1.81 1.08 2.86 1.48 1.06.4 2.21.72 3.47.97-.11.13-.22.3-.34.52s-.22.44-.32.67-.18.43-.24.6c-.46-.12-.91-.24-1.35-.38-.44-.13-.88-.28-1.3-.44v5.18h-8.56zm1.52-5.82h5.57c-.49-.23-.97-.49-1.42-.77s-.9-.57-1.31-.88c-.44.3-.89.59-1.37.86-.48.28-.96.54-1.46.78zm.38 4.24h4.75v-2.66h-4.75zm2.55-8.1c.36-.31.7-.62 1.01-.94s.59-.65.83-.98h-3.47c.25.35.5.69.77 1.01s.55.62.86.91z"/><path d="m39.17 36.13c-.01-.17-.04-.37-.08-.59s-.09-.45-.14-.66c-.05-.22-.11-.39-.16-.52h.88c.21 0 .37-.03.46-.1s.14-.21.14-.41v-2.91c-.25.08-.48.15-.7.22s-.4.13-.55.18l-.43-1.87c.25-.05.51-.12.8-.19s.58-.15.88-.24v-2.74h-1.52v-1.68h1.52v-3.01h1.68v3.01h1.1v1.68h-1.1v2.22c.17-.05.33-.11.48-.16s.28-.1.38-.14l.11.96c.19-.54.37-1.14.52-1.8s.29-1.33.4-2.01.2-1.35.26-1.99.09-1.23.09-1.75l1.62.03c-.02.43-.05.85-.08 1.28s-.07.85-.13 1.28h2.02c0 1.53-.1 2.93-.3 4.22s-.54 2.47-1.02 3.54c.5.75 1.16 1.26 1.98 1.55s1.86.43 3.12.43h.39.66c.25 0 .48-.01.7-.02s.39-.03.51-.05c-.06.13-.13.31-.19.54s-.12.46-.17.7-.08.43-.1.58h-1.76c-1.44 0-2.64-.19-3.59-.56s-1.73-.94-2.33-1.71c-.63.97-1.41 1.84-2.34 2.61-.13-.15-.31-.35-.56-.59s-.46-.42-.64-.53c.53-.39 1.02-.85 1.46-1.38s.83-1.1 1.17-1.73c-.09-.23-.17-.47-.25-.72s-.15-.5-.22-.77c-.17.42-.36.82-.58 1.2-.17-.14-.4-.28-.67-.42s-.52-.25-.74-.31c.15-.21.28-.44.38-.69-.09.03-.18.07-.27.1-.1.04-.2.08-.32.12v4.24c0 .55-.16.96-.47 1.21s-.79.38-1.43.38h-.86zm6.24-6.24c.21-.62.38-1.27.5-1.94.12-.68.18-1.38.19-2.12h-.74c-.05.3-.11.59-.17.88s-.12.57-.18.85c.05.45.11.86.18 1.25.06.38.14.75.22 1.09zm2.84 2.91c-.17-.12-.4-.25-.69-.41-.29-.15-.53-.25-.74-.3.31-.52.56-1.06.74-1.62.19-.56.32-1.2.41-1.91s.13-1.57.13-2.58v-3.38h3.68v8c0 .16.09.24.27.24.15 0 .25-.09.29-.27s.07-.54.1-1.07c.15.07.37.15.66.23s.53.15.72.2c-.03.7-.1 1.25-.2 1.63s-.26.65-.46.8-.49.22-.84.22h-.98c-.73 0-1.09-.27-1.09-.82v-7.41h-.69v1.62c0 1.1-.05 2.05-.14 2.85s-.23 1.51-.42 2.14-.44 1.24-.75 1.82z"/><path d="m56.55 36.2c-.2-.17-.46-.35-.78-.54s-.6-.34-.85-.43c.29-.26.59-.57.9-.95s.6-.78.86-1.2.48-.81.64-1.18l1.7.72c-.19.41-.43.83-.7 1.27-.28.44-.57.86-.87 1.26s-.6.75-.89 1.05zm.38-4.71v-5.55h4.06v-4.48h2.02v1.58h5.92v1.65h-5.92v1.25h4.64v5.55zm2.03-1.65h6.66v-2.22h-6.66zm1.31 6.29c-.03-.31-.09-.67-.16-1.09-.08-.42-.16-.83-.26-1.24s-.19-.74-.27-1l1.73-.42c.1.26.2.59.3.99.11.41.2.82.29 1.24.08.42.15.8.19 1.13-.23.02-.54.07-.9.14-.37.07-.67.15-.92.24zm3.38-.08c-.05-.32-.14-.7-.26-1.14s-.26-.87-.4-1.29-.28-.74-.41-.98l1.66-.59c.16.33.31.7.46 1.12s.29.83.42 1.24.23.78.3 1.11c-.16.02-.35.06-.58.12s-.45.12-.66.2c-.21.07-.39.14-.53.21zm4.26.08c-.15-.33-.35-.71-.61-1.14s-.53-.84-.83-1.25-.58-.74-.85-.99l1.39-1.04c.29.29.59.63.92 1.03s.63.81.92 1.22.52.78.69 1.11c-.15.06-.33.16-.54.29s-.42.26-.62.4-.35.26-.47.37z"/><path d="m81.47 35.59c-1.11-.13-2.09-.45-2.94-.98-.85-.52-1.52-1.2-1.99-2.03s-.71-1.78-.71-2.85c0-.77.18-1.55.55-2.35s.92-1.51 1.66-2.13c-.85.14-1.7.29-2.55.45s-1.62.31-2.3.45-1.22.26-1.59.35l-.43-2.06c.35-.02.84-.07 1.46-.14s1.33-.17 2.11-.28 1.59-.23 2.43-.37 1.65-.27 2.43-.41 1.49-.27 2.11-.41c.62-.13 1.11-.25 1.46-.36l.51 1.95c-.17.01-.38.03-.62.06s-.51.07-.81.11c-.59.07-1.15.26-1.68.54-.53.29-1.01.66-1.43 1.12s-.75.98-1 1.57-.37 1.22-.37 1.9c0 .82.21 1.5.62 2.05s.98.97 1.7 1.27 1.53.51 2.42.62c-.16.16-.31.36-.46.6s-.28.48-.38.72c-.11.24-.18.44-.21.6zm1.34-6.13c-.2-.34-.47-.7-.8-1.07s-.63-.68-.91-.91l.88-.7c.16.13.35.31.58.56.22.25.45.5.66.75.22.26.39.47.5.64l-.91.74zm1.44-1.22c-.2-.33-.47-.68-.81-1.06s-.64-.67-.92-.9l.86-.72c.16.13.35.31.58.56s.46.49.68.74.39.47.51.65l-.91.72z"/><path d="m94.74 35.11c-.04-.17-.12-.37-.24-.61-.12-.23-.25-.46-.41-.68-.15-.22-.31-.4-.46-.54 1.46-.22 2.57-.7 3.34-1.43s1.17-1.59 1.21-2.58c.04-.79-.1-1.49-.43-2.11s-.78-1.12-1.35-1.5-1.2-.61-1.88-.69c-.09.99-.25 2.01-.48 3.04s-.55 2.01-.95 2.91c-.4.91-.89 1.67-1.46 2.3-.44.47-.86.74-1.27.82s-.85.02-1.3-.18c-.45-.19-.84-.5-1.18-.91s-.6-.91-.78-1.48-.26-1.18-.22-1.83c.05-.97.28-1.86.69-2.66.4-.81.95-1.5 1.63-2.09s1.47-1.03 2.35-1.33c.89-.3 1.83-.42 2.83-.37.81.04 1.57.22 2.29.54.71.32 1.34.76 1.88 1.32s.95 1.21 1.25 1.94c.29.74.41 1.54.36 2.42-.07 1.46-.59 2.69-1.54 3.67s-2.23 1.66-3.86 2.02zm-5.2-3.23c.12.09.24.13.37.13s.26-.06.38-.19c.38-.38.74-.93 1.06-1.63.33-.7.6-1.5.82-2.38.22-.89.36-1.79.42-2.7-.74.17-1.39.48-1.96.93s-1.02.99-1.35 1.62-.52 1.33-.56 2.09c-.02.5.05.94.2 1.3.15.37.36.65.62.84z"/><path d="m43.64 58.8v-4.05c-.49.34-1 .65-1.52.94-.52.28-1.05.52-1.58.7-.05-.13-.14-.28-.26-.46s-.24-.36-.36-.53-.23-.3-.33-.38c.57-.17 1.14-.41 1.73-.72s1.14-.66 1.66-1.06h-2.88v-1.3h4.32c.16-.18.3-.36.43-.53h-2.43v-4.51h1.9v-.61h-4.02v-1.3h4.02v-.98h1.78v.98h2.48v-.98h1.78v.98h3.9v1.3h-3.9v.61h1.98v4.51h-5.55c-.04.09-.09.17-.15.26s-.11.18-.17.26h8.13v1.3h-2.94c.53.36 1.11.69 1.74.99.62.3 1.21.52 1.77.67-.12.11-.25.25-.38.43-.14.18-.27.37-.38.55-.12.19-.21.35-.27.49-.44-.16-.92-.37-1.43-.64-.52-.27-1.02-.56-1.51-.9v3.97h-7.54zm.67-10.19h6.14v-.51h-6.14zm0 1.61h6.14v-.51h-6.14zm.45 3.64h5.15c-.11-.11-.21-.21-.32-.31s-.2-.21-.29-.31h-3.9c-.1.11-.2.21-.3.31-.11.1-.22.21-.34.31zm.57 1.87h4.24v-.59h-4.24zm0 1.77h4.24v-.61h-4.24zm.77-10.6h2.48v-.61h-2.48z"/><path d="m60.99 58.38c-.03-.16-.09-.36-.18-.61s-.2-.49-.33-.74-.26-.44-.38-.58c1.71.04 3.01-.16 3.91-.61s1.35-1.08 1.35-1.9c0-.48-.19-.85-.58-1.12-.38-.27-.89-.4-1.5-.4-.48 0-.99.07-1.54.22s-1.06.38-1.54.7c-.49.33-.89.76-1.22 1.3l-1.71-.75c.21-.37.4-.84.55-1.4s.28-1.14.38-1.75.17-1.18.21-1.73c.04-.54.05-.99.02-1.34l2 .24c.01.52-.03 1.14-.13 1.85s-.25 1.41-.45 2.1c.56-.37 1.16-.66 1.78-.86s1.2-.3 1.74-.3c.83 0 1.55.14 2.17.42.61.28 1.09.67 1.43 1.17s.51 1.06.51 1.7c0 .81-.23 1.54-.7 2.18-.46.65-1.17 1.16-2.13 1.54-.95.38-2.17.6-3.66.66zm2.66-10.25c-.27-.21-.58-.43-.95-.64s-.75-.42-1.16-.61-.8-.36-1.19-.5-.73-.24-1.03-.3l.96-1.66c.28.07.61.19.99.34s.79.33 1.21.52.82.38 1.2.58c.38.19.69.37.94.53l-.96 1.74z"/><path d="m75.26 58.03c-.85 0-1.54-.09-2.07-.26s-.91-.46-1.15-.86c-.24-.41-.36-.95-.36-1.65v-10.58l2.1.13c-.02.18-.04.49-.06.91-.02.43-.04.89-.05 1.38-.01.4-.02.83-.02 1.3v1.55 4.93c0 .47.13.79.39.96s.72.26 1.37.26c1.05 0 2.03-.2 2.97-.59.93-.39 1.74-.89 2.42-1.47.01.2.03.45.07.73s.08.55.13.8.09.45.12.58c-.77.55-1.66 1.01-2.68 1.36s-2.07.53-3.16.53z"/></g></svg>