<svg xmlns:xlink="http://www.w3.org/1999/xlink" xmlns="http://www.w3.org/2000/svg" viewBox="0 0 116.5 89.94" width="116.5"  height="89.94" ><path d="m113.54 81.59c2.09-2.01 1.61-3.21 1.37-3.98-10.74-35.47-47.19-57.49-85.09-52.8-2.73.34-5.32-1.24-6.16-3.72-2.95-8.78-10.66-17.98-17.18-20.19 1.53 11.18 7.61 26.97-5.59 33.15 2.75 4.18 10.86 4.32 15.29 4.07 1.79-.1 3.43.89 4.13 2.45 14.68 33.19 50.46 54.52 87.46 46.97 2.2-.45 4.41-.98 6.62-1.64 1.55-.46 1.92-3.36-.86-4.31z" fill="#46baff"/><g fill="#2b2b2b"><path d="m92.83 89.94c-8.05 0-16.09-1.27-23.81-3.8-.47-.15-.73-.66-.57-1.13.15-.47.66-.73 1.13-.57 12.28 4.02 25.43 4.79 38.01 2.23 2.4-.49 4.54-1.02 6.54-1.62.32-.1.55-.48.56-.93.01-.73-.53-1.36-1.45-1.67-.3-.1-.52-.35-.59-.65-.07-.31.03-.62.25-.84 1.61-1.55 1.37-2.31 1.17-2.97 0 0-.03-.1-.03-.1-4.67-15.42-14.29-28.64-27.82-38.21-13.14-9.3-29.39-14.48-45.77-14.57-.5 0-.9-.41-.89-.9 0-.49.4-.89.9-.89 16.74.1 33.36 5.39 46.79 14.9 13.86 9.81 23.71 23.35 28.5 39.16.25.82.66 2.14-.78 3.97 1.11.78 1.52 1.9 1.5 2.82-.02 1.24-.76 2.3-1.84 2.62-2.05.61-4.24 1.15-6.7 1.65-4.98 1.02-10.06 1.52-15.12 1.52z"/><path d="m64.18 84.3c-.11 0-.23-.02-.34-.07-2.28-.93-4.54-1.98-6.74-3.12-.44-.23-.61-.77-.38-1.21s.77-.61 1.21-.38c2.15 1.12 4.37 2.14 6.59 3.05.46.19.68.71.49 1.17-.14.35-.48.56-.83.56z"/><path d="m57.51 81.22c-.14 0-.28-.03-.41-.1-2.31-1.2-4.6-2.54-6.8-3.97-.42-.27-.53-.83-.26-1.24.27-.42.83-.53 1.24-.26 2.15 1.4 4.39 2.7 6.65 3.88.44.23.61.77.38 1.21-.16.31-.47.48-.8.48z"/><path d="m50.79 77.29c-.17 0-.34-.05-.49-.15-13.58-8.84-24.24-21.36-30.81-36.21-.54-1.23-1.84-2-3.25-1.92-4.73.27-13.12.06-16.09-4.47-.14-.22-.18-.49-.11-.74s.25-.46.48-.57c10.27-4.81 8.09-16.07 6.17-26-.42-2.19-.82-4.25-1.09-6.22-.04-.31.08-.62.32-.81.24-.2.56-.26.86-.16 2.77.94 5.78 3.06 8.72 6.13.34.36.33.93-.03 1.27s-.93.33-1.27-.03c-2.19-2.29-4.48-4.05-6.58-5.08.24 1.45.53 2.97.84 4.56 1.89 9.74 4.22 21.8-6.15 27.45 3.12 3.12 10.6 3.06 13.84 2.87 2.15-.13 4.15 1.08 5 2.98 6.43 14.53 16.85 26.79 30.14 35.43.42.27.53.83.26 1.24-.17.26-.46.41-.75.41z"/><path d="m29.08 25.76c-2.83 0-5.38-1.74-6.27-4.38-1.21-3.6-3.33-7.46-5.95-10.86-.3-.39-.23-.96.16-1.26s.96-.23 1.26.16c2.75 3.56 4.96 7.6 6.23 11.39.7 2.09 2.89 3.41 5.2 3.12.67-.08 1.34-.16 2.01-.22.5-.05.93.31.98.81.05.49-.31.93-.81.98-.65.06-1.31.14-1.97.22-.28.04-.57.05-.85.05z"/></g><path d="m81.96 82.03c.59 1.86 1.26 3.02 1.26 3.02" fill="#46baff"/><path d="m83.22 85.94c-.31 0-.61-.16-.78-.45-.03-.05-.73-1.26-1.34-3.2-.15-.47.11-.98.59-1.13.47-.15.98.11 1.13.59.54 1.73 1.17 2.82 1.18 2.83.25.43.1.98-.33 1.23-.14.08-.3.12-.45.12z" fill="#2b2b2b"/><path d="m84.01 67.04c-.78 1.35-1.5 2.9-2.11 4.7-.89 2.62-.92 5.14-.62 7.27" fill="#46baff"/><path d="m81.28 79.91c-.44 0-.83-.32-.89-.77-.38-2.69-.16-5.27.66-7.69.59-1.74 1.32-3.38 2.18-4.86.25-.43.8-.58 1.23-.33s.58.8.33 1.23c-.8 1.38-1.48 2.91-2.04 4.54-.73 2.14-.92 4.45-.58 6.86.07.49-.27.95-.76 1.01-.04 0-.08 0-.13 0z" fill="#2b2b2b"/><path d="m93.22 58.79s-3.15.91-6.37 4.38" fill="#46baff"/><path d="m86.86 64.07c-.22 0-.44-.08-.61-.24-.36-.34-.38-.91-.05-1.27 3.35-3.6 6.64-4.59 6.78-4.63.48-.14.97.14 1.11.61.14.48-.13.97-.61 1.11s-2.97.91-5.96 4.13c-.18.19-.42.29-.66.29z" fill="#2b2b2b"/><path d="m93.21 72.49c0 .88.71 1.59 1.58 1.59s1.58-.71 1.58-1.59-.71-1.59-1.58-1.59-1.58.71-1.58 1.59z" fill="#2b2b2b"/><path d="m114.22 80.86s-2.16 1.73-6.33 1.51c1.25 1.74 2.56 1.91 4.84 1.96 2.32.05 2.87-.66 2.87-.66s0-1.79-1.38-2.81z" fill="#2b2b2b"/><path d="m112.96 85.24c-.08 0-.16 0-.25 0-2.38-.05-4.05-.24-5.55-2.34-.2-.28-.22-.65-.06-.95.17-.3.48-.49.83-.47 3.74.19 5.71-1.31 5.72-1.32.32-.25.77-.26 1.09-.02 1.72 1.28 1.74 3.44 1.74 3.54 0 .2-.07.39-.19.55-.19.24-.98 1.01-3.35 1.01zm-2.63-2.06c.61.19 1.37.23 2.41.26 1 .02 1.58-.11 1.89-.23-.07-.34-.22-.81-.54-1.22-.71.4-1.98.95-3.77 1.19z" fill="#2b2b2b"/><path d="m62.78 53.28c-7.65-5.14-7.65-5.24-5.56 4.51 2.09 9.76-.7 15.24 4.87 16.28 5.56 1.04 6.36.46 6.36.46" fill="#46baff"/><path d="m67.19 75.6c-1.48 0-3.52-.31-5.27-.64-4.29-.81-4.43-3.98-4.63-8.38-.1-2.32-.23-5.22-.95-8.6l-.02-.1c-1.26-5.88-1.68-7.86-.44-8.69 1.21-.81 2.81.27 7.11 3.15l.29.2c.41.28.52.83.25 1.25-.28.41-.83.52-1.25.25l-.29-.2c-2.19-1.47-4.27-2.87-5.05-3.08-.12.86.47 3.61 1.14 6.75l.02.1c.75 3.53.89 6.5.99 8.9.21 4.67.4 6.17 3.16 6.69 4.43.83 5.63.59 5.8.54.39-.19.87-.08 1.13.28.29.4.2.96-.2 1.25-.33.24-.97.33-1.78.33zm.73-1.79s0 0 0 0zm0 0s0 0 0 0z" fill="#2b2b2b"/><path d="m71.12 67.36c1.15-.57-.06-6.24-4.77-11.1" fill="#46baff"/><path d="m71.12 68.26c-.33 0-.65-.18-.81-.5-.2-.4-.07-.87.27-1.12.33-.92-.8-5.54-4.88-9.75-.35-.36-.34-.92.02-1.27s.92-.34 1.27.02c4.23 4.37 5.71 9.28 5.38 11.22-.14.8-.54 1.15-.85 1.3-.13.06-.26.09-.4.09zm-.4-1.7s0 0 0 0z" fill="#2b2b2b"/><path d="m86.86 44.61s-1.37-11.51-6.58-17.11c-5.22-5.59-4.94 1.97-4.94 1.97s-3.3-4.88-5.91-4.43c-2.61.44-2.45 4.43-2.45 4.43s-2.31-5.32-5.65-4.03c-2.73 1.05-1.55 4.2-1.55 4.2s-2.99-4.62-5.74-.09" fill="#46baff"/><path d="m83.7 33.87c-.34 0-.67-.2-.82-.54-.96-2.17-2.06-3.93-3.26-5.22-1.85-1.99-2.54-1.78-2.61-1.75-.5.21-.82 1.8-.77 3.08.01.4-.24.76-.62.88s-.8-.02-1.02-.35c-.97-1.43-3.49-4.31-5.02-4.05-1.77.3-1.71 3.48-1.71 3.51.02.43-.28.81-.7.91s-.85-.12-1.02-.52c-.02-.05-2-4.52-4.51-3.55-1.83.7-1.12 2.81-1.03 3.05.16.43-.03.91-.44 1.11s-.91.07-1.15-.31c-.3-.47-1.31-1.67-2.31-1.67 0 0-.01 0-.02 0-.63.01-1.27.54-1.88 1.56-.26.42-.81.56-1.23.3s-.56-.81-.3-1.23c.96-1.59 2.11-2.41 3.4-2.42.8-.02 1.45.26 2.02.64.2-1.08.85-2.13 2.31-2.69 2.4-.92 4.28.69 5.45 2.24.43-1.27 1.28-2.43 2.83-2.69 1.97-.33 4.03 1.48 5.38 2.99.23-1.02.71-2.05 1.67-2.44 1.25-.52 2.76.2 4.61 2.18 1.34 1.44 2.55 3.36 3.59 5.72.2.45 0 .98-.46 1.19-.12.05-.24.08-.36.08z" fill="#2b2b2b"/><path d="m86.86 45.51c-.45 0-.84-.34-.89-.79 0-.04-.44-3.64-1.72-7.7-.15-.47.11-.98.59-1.13.47-.15.98.11 1.13.59 1.33 4.23 1.77 7.87 1.79 8.03.06.49-.29.94-.79 1-.04 0-.07 0-.11 0z" fill="#2b2b2b"/><path d="m27.38 27.46s-7.54.73-6.45 8.72" fill="#46baff"/><path d="m20.93 37.08c-.44 0-.83-.33-.89-.78-.37-2.69.14-4.93 1.5-6.65 2.14-2.71 5.61-3.07 5.76-3.09.49-.05.93.31.98.81.05.49-.31.93-.8.98-.06 0-2.89.33-4.54 2.43-1.04 1.32-1.41 3.1-1.12 5.28.07.49-.28.94-.77 1.01-.04 0-.08 0-.12 0z" fill="#2b2b2b"/><path d="m16.44 15.79c-1.09-1.25-2.42-2.3-4.02-2.87" fill="#46baff"/><path d="m16.44 16.69c-.25 0-.5-.1-.68-.31-1.1-1.26-2.33-2.14-3.65-2.61-.47-.17-.71-.68-.54-1.15s.68-.71 1.15-.54c1.61.58 3.09 1.63 4.39 3.12.33.37.29.94-.09 1.27-.17.15-.38.22-.59.22z" fill="#2b2b2b"/><path d="m20.82 25.02s-.6-2.93-2.19-5.96" fill="#46baff"/><path d="m20.82 25.92c-.42 0-.79-.29-.88-.72 0-.03-.6-2.85-2.1-5.72-.23-.44-.06-.98.38-1.21s.98-.06 1.21.38c1.63 3.1 2.25 6.07 2.27 6.19.1.49-.21.96-.7 1.06-.06.01-.12.02-.18.02z" fill="#2b2b2b"/><path d="m11.24 33.41c-.87.08-1.82.14-2.84.14" fill="#46baff"/><path d="m8.4 34.45c-.5 0-.9-.4-.9-.9s.4-.9.9-.9c.91 0 1.84-.04 2.75-.13.49-.05.93.31.98.81s-.31.93-.81.98c-.97.09-1.95.14-2.92.14z" fill="#2b2b2b"/><path d="m16.44 32.4s-1.2.42-3.19.75" fill="#46baff"/><path d="m13.24 34.05c-.43 0-.81-.31-.88-.75-.08-.49.25-.95.74-1.03 1.88-.31 3.04-.71 3.05-.71.47-.16.98.09 1.14.55.16.47-.08.98-.55 1.14-.05.02-1.3.45-3.34.79-.05 0-.1.01-.15.01z" fill="#2b2b2b"/><path d="m17.62 29.02s-4.2-.37-6.38-1.57" fill="#46baff"/><path d="m17.62 29.92s-.05 0-.08 0c-.18-.02-4.41-.4-6.73-1.67-.44-.24-.6-.78-.36-1.22s.78-.59 1.22-.36c1.99 1.09 5.99 1.46 6.03 1.46.49.04.86.48.81.97-.04.47-.43.82-.89.82z" fill="#2b2b2b"/><path d="m75.84 38.76c1.47.76 2.96 1.6 4.44 2.54" fill="#46baff"/><path d="m80.27 42.2c-.17 0-.33-.05-.48-.14-1.37-.87-2.84-1.71-4.36-2.5-.44-.23-.62-.77-.39-1.21s.77-.61 1.21-.39c1.57.81 3.09 1.68 4.51 2.58.42.27.54.82.28 1.24-.17.27-.46.42-.76.42z" fill="#2b2b2b"/><path d="m59.76 32.97s5.24 1.01 11.76 3.77" fill="#46baff"/><path d="m71.52 37.65c-.12 0-.24-.02-.35-.07-6.35-2.69-11.53-3.71-11.58-3.72-.49-.09-.81-.57-.71-1.05.09-.49.56-.81 1.05-.71.22.04 5.4 1.06 11.94 3.83.46.19.67.72.48 1.18-.15.34-.48.55-.83.55z" fill="#2b2b2b"/><path d="m68.44 67.04s-2.5-6.49-7.56-8.25" fill="#46baff"/><path d="m68.44 67.94c-.36 0-.7-.22-.84-.58-.02-.06-2.41-6.13-7.02-7.73-.47-.16-.72-.67-.55-1.14.16-.47.68-.72 1.14-.55 5.4 1.87 8 8.5 8.11 8.78.18.46-.05.98-.52 1.16-.11.04-.22.06-.32.06z" fill="#2b2b2b"/><path d="m67.48 69.35s-2.82-4.03-6.6-4.03" fill="#46baff"/><path d="m67.48 70.25c-.28 0-.56-.13-.74-.38-.03-.04-2.61-3.65-5.87-3.65-.5 0-.9-.4-.9-.9s.4-.9.9-.9c4.2 0 7.21 4.23 7.34 4.41.28.41.19.96-.22 1.25-.16.11-.34.16-.51.16z" fill="#2b2b2b"/><path d="m18.68 26.62s-2.96-4.75-6.26-4.75" fill="#46baff"/><path d="m18.68 27.52c-.3 0-.59-.15-.76-.42-.75-1.2-3.21-4.33-5.5-4.33-.5 0-.9-.4-.9-.9s.4-.9.9-.9c3.76 0 6.89 4.96 7.03 5.18.26.42.13.97-.29 1.24-.15.09-.31.14-.47.14z" fill="#2b2b2b"/><path d="m38.91 56.27c4.06 3.55 8.74 6.92 13.69 9.05" fill="#46baff"/><path d="m52.61 66.22c-.12 0-.24-.02-.36-.07-4.46-1.93-9.15-5.02-13.93-9.2-.37-.33-.41-.89-.08-1.27.33-.37.89-.41 1.27-.08 4.64 4.06 9.16 7.05 13.46 8.91.46.2.67.73.47 1.18-.15.34-.48.54-.83.54z" fill="#2b2b2b"/><path d="m25.18 41.3s4.16 5.84 10.53 12.01" fill="#46baff"/><path d="m35.71 54.21c-.23 0-.45-.08-.63-.25-6.35-6.16-10.59-12.08-10.63-12.14-.29-.4-.19-.96.21-1.25s.97-.19 1.25.21c.04.06 4.19 5.85 10.42 11.89.36.35.36.91.02 1.27-.18.18-.41.27-.64.27z" fill="#2b2b2b"/><path d="m71.52 74.54s3.77 1.22 9.61 1.22" fill="#46baff"/><path d="m81.13 76.66c-5.91 0-9.73-1.21-9.89-1.26-.47-.15-.73-.66-.58-1.13s.66-.73 1.13-.58c.04.01 3.73 1.18 9.33 1.18.5 0 .9.4.9.9s-.4.9-.9.9z" fill="#2b2b2b"/></svg>