<svg xmlns:xlink="http://www.w3.org/1999/xlink" xmlns="http://www.w3.org/2000/svg" viewBox="0 0 94.2 114" width="94.2"  height="114" ><path d="m0 0h94v114h-94z" fill="none"/><path d="m86.44 32.71v20.06c0 8.42-16.85 15.25-37.65 15.25s-37.65-6.83-37.65-15.25v-20.06" fill="#fff"/><path d="m48.8 69.02c-21.67 0-38.65-7.14-38.65-16.25v-20.06h2v20.06c0 7.72 16.78 14.25 36.65 14.25s36.65-6.52 36.65-14.25v-20.06h2v20.06c0 9.11-16.98 16.25-38.65 16.25z" fill="#2b2b2b"/><path d="m66.45 46.18c-5.27 1.13-11.27 1.78-17.65 1.78-20.79 0-37.65-6.83-37.65-15.25s16.85-15.25 37.65-15.25 37.65 6.83 37.65 15.25c0 4.72-5.3 8.95-13.63 11.74" fill="#fff"/><path d="m48.8 48.95c-21.67 0-38.65-7.14-38.65-16.25s16.98-16.25 38.65-16.25 38.65 7.14 38.65 16.25c0 5.01-5.22 9.64-14.31 12.69-.52.18-1.09-.11-1.27-.63s.11-1.09.63-1.27c8.11-2.72 12.95-6.76 12.95-10.79 0-7.72-16.78-14.25-36.65-14.25s-36.65 6.52-36.65 14.25 16.78 14.25 36.65 14.25c6.08 0 12.12-.61 17.44-1.75.54-.12 1.07.23 1.19.77s-.23 1.07-.77 1.19c-5.46 1.18-11.64 1.8-17.86 1.8z" fill="#2b2b2b"/><ellipse cx="49.12" cy="31.23" fill="#2b2b2b" rx="15.93" ry="5.35"/><path d="m49.12 37.58c-8.41 0-16.93-2.18-16.93-6.35s8.52-6.35 16.93-6.35 16.93 2.18 16.93 6.35-8.52 6.35-16.93 6.35zm0-10.69c-9.11 0-14.93 2.57-14.93 4.35s5.82 4.35 14.93 4.35 14.93-2.57 14.93-4.35-5.82-4.35-14.93-4.35z" fill="#2b2b2b"/><path d="m49.63 26.67c1.32 0 2.25-.58 2.8-1.75s.82-3.07.82-5.71c-.55.77-1.29 1.37-2.24 1.79s-2 .63-3.17.63c-1.59 0-3.01-.33-4.26-.99s-2.22-1.64-2.93-2.95-1.06-2.89-1.06-4.76.38-3.45 1.14-4.82 1.84-2.43 3.25-3.17c1.41-.75 3.07-1.12 4.98-1.12 3.68 0 6.26 1.15 7.73 3.43 1.47 2.29 2.2 5.66 2.2 10.12 0 3.24-.29 5.91-.88 8.01-.58 2.1-1.57 3.7-2.95 4.8-1.38 1.09-3.27 1.64-5.66 1.64-1.89 0-3.5-.37-4.83-1.12s-2.35-1.73-3.06-2.95-1.11-2.56-1.21-4.03h5.9c.37 1.97 1.52 2.95 3.43 2.95zm2.16-11.04c.62-.63.93-1.5.93-2.59 0-1.2-.32-2.12-.97-2.76-.65-.65-1.52-.97-2.61-.97s-1.96.33-2.59.99-.95 1.56-.95 2.71c0 1.07.32 1.93.95 2.59s1.55.99 2.74.99c1.04 0 1.88-.32 2.5-.95z" fill="#f9d400"/><g fill="#2b2b2b"><path d="m49.4 32.82c-2.06 0-3.85-.42-5.32-1.25-1.48-.83-2.64-1.95-3.44-3.32-.78-1.35-1.24-2.85-1.35-4.47-.02-.28.08-.55.27-.75s.45-.32.73-.32h5.9c.48 0 .89.34.98.81.28 1.5 1.02 2.14 2.45 2.14.93 0 1.51-.36 1.89-1.18.32-.67.53-1.67.64-2.97-.24.14-.48.27-.74.38-1.07.48-2.27.72-3.58.72-1.75 0-3.34-.37-4.72-1.11-1.42-.75-2.54-1.88-3.34-3.36-.79-1.45-1.19-3.21-1.19-5.24s.43-3.79 1.26-5.3c.85-1.53 2.08-2.74 3.65-3.57 1.55-.82 3.38-1.24 5.45-1.24 4.03 0 6.91 1.31 8.57 3.89 1.57 2.44 2.36 6.03 2.36 10.66 0 3.31-.31 6.09-.91 8.28-.64 2.3-1.75 4.09-3.29 5.31-1.56 1.23-3.67 1.86-6.28 1.86zm-7.97-8.1c.17.9.49 1.75.94 2.53.62 1.07 1.5 1.92 2.69 2.58 1.17.66 2.64.99 4.35.99 2.15 0 3.84-.48 5.03-1.43 1.21-.96 2.08-2.4 2.61-4.28.56-2.01.84-4.61.84-7.74 0-4.24-.69-7.46-2.04-9.58-1.28-2-3.54-2.97-6.89-2.97-1.74 0-3.26.34-4.52 1-1.24.66-2.17 1.57-2.84 2.78s-1.01 2.67-1.01 4.33.32 3.13.94 4.28c.62 1.14 1.44 1.97 2.52 2.54 1.09.58 2.37.87 3.79.87 1.02 0 1.95-.18 2.76-.55.79-.35 1.39-.83 1.83-1.46.25-.35.7-.51 1.12-.37.41.13.7.52.7.95 0 2.81-.3 4.82-.92 6.14-.71 1.52-2 2.33-3.71 2.33-2.11 0-3.57-1.04-4.21-2.95h-3.99zm7.86-7.13c-1.47 0-2.64-.44-3.46-1.3-.82-.85-1.23-1.95-1.23-3.29 0-1.41.41-2.55 1.23-3.4.83-.86 1.94-1.3 3.32-1.3s2.48.43 3.32 1.26 1.26 2.01 1.26 3.47c0 1.36-.41 2.47-1.22 3.29-.81.83-1.9 1.25-3.21 1.25zm-.15-7.28c-.82 0-1.43.22-1.87.68-.45.47-.67 1.13-.67 2.01 0 .81.22 1.43.67 1.9.44.46 1.1.68 2.02.68.77 0 1.36-.21 1.79-.65.44-.44.65-1.06.65-1.89 0-.93-.22-1.6-.68-2.06s-1.08-.68-1.91-.68z"/><path d="m22.72 10.05h-2.37l-3.16-4.77v4.77h-2.37v-8.53h2.37l3.16 4.83v-4.83h2.37z"/><path d="m26.02 9.71c-.54-.28-.96-.69-1.26-1.21s-.46-1.14-.46-1.85.16-1.31.47-1.84c.31-.52.73-.93 1.27-1.21s1.14-.42 1.82-.42 1.28.14 1.82.42.96.69 1.27 1.21c.31.53.47 1.14.47 1.84s-.16 1.32-.47 1.85-.74.93-1.28 1.22-1.15.42-1.83.42-1.29-.14-1.82-.42zm2.65-2c.22-.25.33-.6.33-1.06s-.11-.81-.33-1.05-.49-.36-.82-.36-.59.12-.81.36-.33.59-.33 1.05.1.82.31 1.07.48.36.81.36.61-.12.83-.37z"/><path d="m32.88 9.8c-.25-.23-.38-.52-.38-.88s.13-.65.38-.88.59-.35 1.01-.35.74.12 1 .35c.25.23.38.53.38.88s-.13.64-.38.87-.59.35-1 .35-.76-.12-1.01-.34z"/><path d="m41.88 91.83v-5.48h-6.18v-6.78h6.18v-3.25h2.09v3.25h6.18v6.78h-6.18v5.48zm-4.04-7.46h4.04v-2.93h-4.04zm6.13 0h4.07v-2.93h-4.07z"/><path d="m55.28 90.38v-12.57h14.11v12.57zm1.97-1.96h10.15v-2.54c-.18.27-.4.46-.66.55-.26.1-.59.14-.99.14h-1.45c-.69 0-1.16-.08-1.41-.26-.25-.17-.37-.48-.37-.94v-5.65h-1.23v1.02c0 .9-.05 1.67-.14 2.32s-.24 1.21-.44 1.69-.48.91-.83 1.29-.77.75-1.27 1.12c-.15-.16-.35-.34-.61-.55s-.51-.39-.75-.54v2.33zm0-2.55c.54-.4.97-.81 1.27-1.25s.51-.96.63-1.57.18-1.37.18-2.28v-1.02h-2.08v6.13zm7.72-1.26h.48c.18 0 .32-.03.43-.09.1-.06.19-.2.26-.42.07-.21.13-.54.19-.99.14.09.3.18.5.27s.39.17.59.24v-3.88h-2.93v4.46c0 .17.03.28.1.33s.2.08.39.08z"/><path d="m74.53 91.38v-14.61h14.4v14.61zm2.03-1.8h10.35v-11.08h-10.35zm.66-1.04v-1.67h3.49v-2.38h-2.81v-1.67h2.81v-1.63h-3.25v-1.69h8.53v1.69h-3.3v1.63h2.84v1.67h-1c.15.14.32.3.52.49s.38.38.55.56.29.33.37.44c-.11.08-.27.21-.46.38-.19.18-.36.34-.51.5h1.28v1.67h-9.06zm5.47-1.67h1.92c-.2-.24-.46-.5-.76-.8s-.55-.52-.74-.66l1.04-.92h-1.46z"/><path d="m35.05 98.32c.25-.46.6-.82 1.05-1.08s.98-.39 1.57-.39c.75 0 1.38.2 1.89.6s.84.94.99 1.63h-1.8c-.11-.23-.26-.4-.45-.52s-.41-.18-.66-.18c-.39 0-.69.14-.92.41-.23.28-.34.64-.34 1.1s.12.84.34 1.11c.23.28.54.41.92.41.25 0 .47-.06.66-.18s.34-.29.45-.52h1.8c-.15.69-.48 1.23-.99 1.63s-1.14.6-1.89.6c-.59 0-1.11-.13-1.57-.39s-.8-.62-1.05-1.08-.37-.99-.37-1.59.12-1.12.37-1.58z"/><path d="m46.95 96.91v6h-1.67v-2.41h-2.03v2.41h-1.67v-6h1.67v2.26h2.03v-2.26z"/><path d="m49.88 96.91v3.48c0 .32.08.57.23.75s.38.26.69.26.54-.09.69-.27c.16-.18.23-.43.23-.74v-3.48h1.67v3.48c0 .55-.12 1.02-.35 1.41s-.55.68-.95.88-.84.29-1.33.29-.92-.1-1.31-.29c-.38-.2-.68-.49-.9-.87-.22-.39-.33-.86-.33-1.41v-3.48h1.66z"/><path d="m55.11 102.48c-.45-.33-.69-.81-.72-1.43h1.78c.02.21.08.36.19.46s.25.14.42.14c.15 0 .28-.04.38-.12s.15-.18.15-.32c0-.18-.08-.31-.25-.41s-.43-.2-.8-.32c-.39-.13-.71-.26-.95-.38s-.45-.3-.63-.54-.27-.54-.27-.92.1-.72.29-.99.46-.48.8-.62.73-.21 1.16-.21c.7 0 1.26.16 1.67.49.42.33.64.78.67 1.38h-1.81c0-.18-.06-.32-.17-.41s-.24-.14-.4-.14c-.12 0-.23.04-.31.11s-.12.18-.12.32c0 .11.04.21.13.29s.2.15.33.21.32.13.58.23c.38.13.69.26.94.39s.46.31.64.54.27.52.27.87-.09.68-.27.96-.44.51-.77.67c-.34.17-.74.25-1.2.25-.7 0-1.27-.17-1.72-.5z"/><path d="m65.52 96.91v6h-1.67v-2.41h-2.03v2.41h-1.67v-6h1.67v2.26h2.03v-2.26z"/><path d="m68.49 96.91v6h-1.67v-6z"/><path d="m73.34 102.91-1.88-2.63v2.63h-1.67v-6h1.67v2.59l1.86-2.59h1.92l-2.21 2.91 2.32 3.09h-2.02z"/><path d="m77.13 102.58c-.47-.26-.84-.63-1.12-1.1-.27-.47-.41-1-.41-1.59s.14-1.12.41-1.59c.28-.47.65-.83 1.12-1.09s.99-.39 1.55-.39 1.09.13 1.55.39c.47.26.84.62 1.11 1.09s.41 1 .41 1.59-.14 1.12-.41 1.59-.64.83-1.12 1.1c-.47.26-.99.4-1.55.4s-1.08-.13-1.55-.4zm2.55-1.57c.25-.28.37-.65.37-1.12s-.12-.85-.37-1.13c-.25-.27-.58-.41-1.01-.41s-.77.14-1.01.41c-.24.28-.37.65-.37 1.13s.12.84.37 1.12c.24.28.58.41 1.01.41s.76-.14 1.01-.42z"/><path d="m86.31 102.91-1.88-2.63v2.63h-1.67v-6h1.67v2.59l1.86-2.59h1.92l-2.21 2.91 2.32 3.09h-2.02z"/><path d="m90.69 96.91v3.48c0 .32.08.57.23.75s.38.26.69.26.54-.09.69-.27c.16-.18.23-.43.23-.74v-3.48h1.67v3.48c0 .55-.12 1.02-.35 1.41s-.55.68-.95.88-.84.29-1.33.29-.92-.1-1.31-.29c-.38-.2-.68-.49-.9-.87-.22-.39-.33-.86-.33-1.41v-3.48h1.66z"/></g><path d="m27.78 89.74c0-7.07-5.73-12.81-12.81-12.81s-12.81 5.73-12.81 12.81c0 2.61.78 5.03 2.12 7.05h21.37c1.34-2.02 2.12-4.44 2.12-7.05z" fill="#f9d400"/><path d="m25.66 97.29h-21.37c-.17 0-.32-.08-.42-.22-1.44-2.18-2.2-4.71-2.2-7.33 0-7.34 5.97-13.31 13.31-13.31s13.31 5.97 13.31 13.31c0 2.61-.76 5.15-2.2 7.33-.09.14-.25.22-.42.22zm-21.1-1h20.83c1.24-1.97 1.89-4.22 1.89-6.55 0-6.79-5.52-12.31-12.31-12.31s-12.31 5.52-12.31 12.31c0 2.33.65 4.59 1.89 6.55z" fill="#2b2b2b"/><path d="m4.29 96.79c2.29 3.47 6.22 5.76 10.69 5.76s8.4-2.29 10.69-5.76z" fill="#28bc64"/><path d="m14.98 103.05c-4.48 0-8.63-2.24-11.1-5.98-.1-.15-.11-.35-.02-.51s.26-.26.44-.26h21.38c.18 0 .35.1.44.26s.08.36-.02.51c-2.48 3.75-6.63 5.98-11.1 5.98zm-9.72-5.76c2.33 3 5.89 4.76 9.71 4.76s7.39-1.76 9.71-4.76z" fill="#2b2b2b"/><path d="m19.88 96.79h-7.06v-12.71h7.06zm-7.06-8.76h-4.24v8.76h4.24" fill="#fff"/><path d="m19.88 97.29h-11.3c-.28 0-.5-.22-.5-.5v-8.76c0-.28.22-.5.5-.5h3.74v-3.46c0-.28.22-.5.5-.5h7.06c.28 0 .5.22.5.5v12.71c0 .28-.22.5-.5.5zm-6.56-1h6.06v-11.71h-6.06zm-4.24 0h3.24v-7.76h-3.24z" fill="#2b2b2b"/><path d="m18.05 94.63h-.85c-.28 0-.5-.22-.5-.5s.22-.5.5-.5h.85c.28 0 .5.22.5.5s-.22.5-.5.5zm-2.55 0h-.85c-.28 0-.5-.22-.5-.5s.22-.5.5-.5h.85c.28 0 .5.22.5.5s-.22.5-.5.5zm2.55-2.58h-.85c-.28 0-.5-.22-.5-.5s.22-.5.5-.5h.85c.28 0 .5.22.5.5s-.22.5-.5.5zm-2.55 0h-.85c-.28 0-.5-.22-.5-.5s.22-.5.5-.5h.85c.28 0 .5.22.5.5s-.22.5-.5.5zm2.55-2.59h-.85c-.28 0-.5-.22-.5-.5s.22-.5.5-.5h.85c.28 0 .5.22.5.5s-.22.5-.5.5zm-2.55 0h-.85c-.28 0-.5-.22-.5-.5s.22-.5.5-.5h.85c.28 0 .5.22.5.5s-.22.5-.5.5zm2.55-2.58h-.85c-.28 0-.5-.22-.5-.5s.22-.5.5-.5h.85c.28 0 .5.22.5.5s-.22.5-.5.5zm-2.55 0h-.85c-.28 0-.5-.22-.5-.5s.22-.5.5-.5h.85c.28 0 .5.22.5.5s-.22.5-.5.5z" fill="#2b2b2b"/></svg>