<svg xmlns:xlink="http://www.w3.org/1999/xlink" xmlns="http://www.w3.org/2000/svg" viewBox="0 0 144.78 89.92" width="145"  height="90" ><path d="m129.65 1h-114.52c-7.8 0-14.13 6.33-14.13 14.13v48.88c0 7.8 6.33 14.13 14.13 14.13h55.42v10.77l10.27-10.77h48.83c7.8 0 14.13-6.33 14.13-14.13v-48.88c0-7.8-6.33-14.13-14.13-14.13z" fill="#fff"/><path d="m1 62.02v1.99c0 7.8 6.33 14.13 14.13 14.13h55.42v10.77l10.27-10.77h48.83c7.8 0 14.13-6.33 14.13-14.13v-39.23" fill="#fff"/><path d="m70.55 89.92c-.12 0-.25-.02-.37-.07-.38-.15-.63-.52-.63-.93v-9.77h-54.42c-8.34 0-15.13-6.79-15.13-15.13v-1.99c0-.55.45-1 1-1s1 .45 1 1v1.99c0 7.24 5.89 13.13 13.13 13.13h55.42c.55 0 1 .45 1 1v8.28l8.54-8.97c.19-.2.45-.31.72-.31h48.83c7.24 0 13.13-5.89 13.13-13.13v-39.24c0-.55.45-1 1-1s1 .45 1 1v39.24c0 8.34-6.79 15.13-15.13 15.13h-48.4l-9.97 10.46c-.19.2-.46.31-.72.31z" fill="#2b2b2b"/><path d="m143.78 15.13c0-7.8-6.33-14.13-14.13-14.13h-114.52c-7.8 0-14.13 6.33-14.13 14.13v37.24" fill="#fff"/><g fill="#2b2b2b"><path d="m1 53.37c-.55 0-1-.45-1-1v-37.24c0-8.34 6.79-15.13 15.13-15.13h114.52c8.34 0 15.13 6.79 15.13 15.13 0 .55-.45 1-1 1s-1-.45-1-1c0-7.24-5.89-13.13-13.13-13.13h-114.52c-7.24-0-13.13 5.89-13.13 13.13v37.24c0 .55-.45 1-1 1z"/><path d="m21.37 26.61c-.14-.31-.31-.63-.52-.95s-.4-.57-.57-.73c1.17-.44 2.29-1 3.36-1.7 1.07-.69 2.02-1.49 2.86-2.38-.64-.45-1.25-.8-1.84-1.06l1.12-1.47c.61.28 1.26.63 1.95 1.07.28-.39.54-.8.78-1.21s.46-.83.65-1.26c-.45.02-.93.05-1.45.07-.52.03-1 .05-1.45.06-.45.02-.8.03-1.06.04-.47.71-1 1.39-1.59 2.04s-1.24 1.24-1.94 1.78c-.18-.21-.41-.46-.69-.74s-.52-.47-.74-.59c.76-.53 1.46-1.17 2.11-1.9.65-.74 1.22-1.52 1.71-2.35s.85-1.65 1.09-2.45l1.86.59c-.12.32-.25.64-.38.97-.14.33-.29.64-.45.95.47-.01.98-.02 1.52-.04s1.06-.04 1.54-.06c.48-.03.86-.06 1.11-.09l1.23.67c-.27.85-.59 1.66-.98 2.42-.38.76-.82 1.49-1.3 2.17.41.3.79.6 1.14.9s.65.59.89.86c-.14.11-.3.26-.49.45s-.37.39-.54.59-.3.38-.4.54c-.23-.28-.51-.57-.83-.87s-.66-.6-1.02-.9c-.9.98-1.91 1.85-3.03 2.61-1.13.76-2.35 1.41-3.67 1.95zm10.74-10.68c-.2-.34-.47-.7-.79-1.09-.33-.38-.62-.69-.87-.93l.88-.69c.15.13.34.32.56.57s.44.5.66.76c.21.26.38.47.5.66l-.93.72zm1.47-1.2c-.2-.33-.47-.69-.8-1.06-.33-.38-.63-.69-.9-.92l.88-.69c.15.13.34.31.57.56s.45.5.66.75.38.47.5.66z"/><path d="m40.04 26.02v-6.93c-.81.55-1.64 1.07-2.49 1.54s-1.68.89-2.49 1.24c-.09-.16-.2-.35-.35-.56s-.31-.42-.47-.62-.33-.36-.49-.48c.93-.33 1.89-.76 2.88-1.3.99-.53 1.95-1.12 2.87-1.78.92-.65 1.77-1.33 2.54-2.05s1.39-1.42 1.87-2.13l1.66 1.14c-.46.61-.99 1.21-1.59 1.8s-1.25 1.17-1.94 1.72v8.4h-2z"/><path d="m48.04 23.67c-.19-.22-.45-.47-.76-.74s-.62-.5-.9-.68c.7-.49 1.35-1.07 1.94-1.75s1.08-1.39 1.49-2.14.69-1.47.86-2.15l1.92.66c-.23.83-.57 1.67-1 2.5-.43.84-.95 1.62-1.54 2.36-.6.74-1.26 1.39-2 1.95zm10.75-.45c-.18-.47-.42-.98-.71-1.54s-.62-1.12-.98-1.67-.72-1.07-1.09-1.55-.72-.87-1.05-1.17l1.57-1.09c.37.33.76.73 1.16 1.2s.79.97 1.18 1.51.75 1.08 1.07 1.62.61 1.07.84 1.57c-.27.13-.59.29-.97.5-.38.2-.72.41-1.03.62zm-.38-6.88c-.2-.33-.47-.69-.81-1.06-.34-.38-.64-.68-.9-.9l.88-.7c.16.13.35.31.58.56.22.25.45.49.66.74.22.25.39.47.5.65l-.91.72zm1.44-1.21c-.2-.33-.47-.68-.81-1.05s-.64-.67-.92-.9l.88-.7c.16.13.35.31.58.56s.45.49.67.74.39.46.5.63l-.91.72z"/><path d="m62.54 20.73c.01-.15.02-.35.02-.61v-.77c0-.26 0-.46-.02-.61.2.01.56.02 1.08.03s1.14.02 1.86.03 1.49.02 2.31.02h2.46s1.6 0 2.33-.02c.73-.01 1.36-.02 1.9-.03.53-.01.91-.03 1.14-.05-.01.14-.02.34-.02.59v.78.6c-.27-.01-.66-.02-1.18-.03s-1.12-.02-1.81-.03-1.42-.02-2.19-.02h-2.34c-.79 0-1.54 0-2.26.02-.71.01-1.36.02-1.93.03s-1.02.03-1.35.05z"/><path d="m81.19 20.6c-.2-.17-.5-.36-.88-.57s-.78-.41-1.19-.61-.76-.34-1.05-.44l.99-1.73c.31.12.67.28 1.08.48s.81.41 1.19.62.69.4.91.54l-1.06 1.7zm-.75 5.18-1.09-1.95c.77-.17 1.57-.44 2.41-.81s1.67-.8 2.5-1.3 1.63-1.03 2.38-1.6c.76-.57 1.44-1.15 2.05-1.73s1.1-1.14 1.49-1.67c.04.18.11.41.22.67.1.27.21.53.33.78s.22.45.3.58c-.53.67-1.19 1.35-1.98 2.03-.78.68-1.65 1.34-2.58 1.98-.94.63-1.92 1.21-2.95 1.73s-2.06.95-3.08 1.29zm2.97-8.48c-.14-.13-.34-.28-.6-.46s-.55-.37-.86-.57-.61-.38-.89-.54-.51-.28-.7-.35l1.09-1.66c.21.11.47.25.76.43s.59.37.9.57c.3.2.59.39.85.57s.46.33.6.45l-1.15 1.57z"/><path d="m95.98 26.49c-.07-.16-.19-.35-.34-.56s-.31-.42-.48-.62-.33-.35-.46-.47c1.45-.54 2.5-1.25 3.16-2.1.66-.86 1.03-1.95 1.11-3.29-.84.01-1.65.02-2.42.03s-1.43.02-1.98.04-.91.03-1.09.04l-.1-1.87c.13.01.43.02.91.02s1.07 0 1.78 0c.7 0 1.47-.01 2.3-.02s1.65-.02 2.47-.03 1.59-.02 2.3-.04 1.31-.03 1.79-.05.79-.03.92-.04l.02 1.89h-2.37c-.61 0-1.27 0-1.98.02h-.54c-.1 1.74-.55 3.17-1.37 4.3s-2.02 2.05-3.62 2.78zm-.3-10.79-.11-1.89h.8c.41 0 .89 0 1.46-.02s1.16-.02 1.78-.03 1.21-.02 1.78-.04c.56-.02 1.05-.03 1.45-.04s.66-.02.78-.03l.03 1.87c-.14-.01-.41-.01-.81 0s-.87.01-1.42.02-1.13.02-1.73.03-1.18.02-1.74.04-1.03.03-1.43.05-.67.03-.82.04z"/><path d="m112.92 26.2v-5.1c-1.23.82-2.45 1.5-3.68 2.03-.12-.22-.27-.47-.45-.74s-.36-.48-.54-.62c.7-.25 1.42-.57 2.16-.96s1.45-.84 2.14-1.33 1.32-1.01 1.9-1.54c.58-.54 1.05-1.07 1.42-1.59l1.28.98c-.35.45-.75.89-1.2 1.34-.45.44-.92.87-1.42 1.27v6.27h-1.6z"/><path d="m125.4 26.69c-.2-.34-.47-.71-.81-1.1s-.69-.77-1.06-1.13-.72-.65-1.05-.89l1.22-1.1c.25.16.51.37.8.62s.58.52.88.8.57.56.82.82c.25.27.46.5.62.7z"/><path d="m33.52 44.05v-2c.35.03 1.01.05 1.98.06.97 0 2.14.01 3.52.02v-4.19c-.6 0-1.17 0-1.72.02s-1.02.02-1.42.02-.67.02-.82.04v-2c.31.03.9.05 1.78.06s1.95.02 3.21.02 2.26 0 3.14-.02c.88-.01 1.46-.03 1.75-.06v2c-.23-.02-.69-.04-1.37-.05s-1.53-.02-2.57-.03v4.18h2.41s1.34-.01 1.84-.02.83-.02 1.02-.03v2c-.34-.03-1.06-.05-2.17-.06-1.1-.01-2.48-.02-4.14-.02h-2.08c-.69 0-1.34 0-1.94.02-.6.01-1.12.02-1.54.02-.43 0-.73.02-.9.04z"/><path d="m49.66 46.95c-.07-.16-.19-.35-.34-.56s-.31-.42-.47-.63c-.17-.21-.32-.37-.46-.49 1.29-.49 2.49-1.12 3.61-1.88 1.11-.76 2.11-1.63 2.98-2.6s1.57-2.01 2.1-3.1c-.45.02-.93.05-1.43.07-.51.03-.97.05-1.38.06s-.73.02-.93.02c-.52.68-1.1 1.32-1.72 1.91s-1.28 1.12-1.98 1.59c-.1-.12-.23-.26-.41-.43s-.36-.34-.54-.51c-.19-.17-.36-.3-.52-.4.79-.46 1.54-1.03 2.24-1.72s1.33-1.43 1.87-2.24.96-1.6 1.25-2.39l1.86.66c-.13.3-.26.59-.4.88s-.29.57-.45.85c.46-.01.96-.02 1.5-.04s1.03-.04 1.48-.06c.45-.03.77-.06.96-.09l1.2.69c-.5 1.51-1.24 2.94-2.22 4.27s-2.13 2.52-3.46 3.57-2.78 1.9-4.34 2.58z"/><path d="m67.73 46.59v-6.93c-.81.55-1.64 1.07-2.49 1.54s-1.68.89-2.49 1.24c-.09-.16-.2-.35-.35-.56s-.31-.42-.47-.62-.33-.36-.49-.48c.93-.33 1.89-.76 2.88-1.3.99-.53 1.95-1.12 2.87-1.78.92-.65 1.77-1.33 2.54-2.05s1.39-1.42 1.87-2.13l1.66 1.14c-.46.61-.99 1.21-1.59 1.8s-1.25 1.17-1.94 1.72v8.4h-2z"/><path d="m77.83 47.06c-.07-.16-.19-.35-.34-.56s-.31-.42-.48-.62-.33-.35-.46-.47c1.45-.54 2.5-1.25 3.16-2.1.66-.86 1.03-1.95 1.11-3.29-.84.01-1.65.02-2.42.03s-1.43.02-1.98.04-.91.03-1.09.04l-.1-1.87c.13.01.43.02.91.02s1.07 0 1.78 0c.7 0 1.47-.01 2.3-.02s1.65-.02 2.47-.03 1.59-.02 2.3-.04 1.31-.03 1.79-.05.79-.03.92-.04l.02 1.89h-2.37c-.61 0-1.27 0-1.98.02h-.54c-.1 1.74-.55 3.17-1.37 4.3s-2.02 2.05-3.62 2.78zm-.3-10.79-.11-1.89h.8c.41 0 .89 0 1.46-.02s1.16-.02 1.78-.03 1.21-.02 1.78-.04c.56-.02 1.05-.03 1.45-.04s.66-.02.78-.03l.03 1.87c-.14-.01-.41-.01-.81 0s-.87.01-1.42.02-1.13.02-1.73.03-1.18.02-1.74.04-1.03.03-1.43.05-.67.03-.82.04z"/><path d="m94.77 46.77v-5.1c-1.23.82-2.45 1.5-3.68 2.03-.12-.22-.27-.47-.45-.74s-.36-.48-.54-.62c.7-.25 1.42-.57 2.16-.96s1.45-.84 2.14-1.33 1.32-1.01 1.9-1.54c.58-.54 1.05-1.07 1.42-1.59l1.28.98c-.35.45-.75.89-1.2 1.34-.45.44-.92.87-1.42 1.27v6.27h-1.6z"/><path d="m106.37 47.15c-1.29 0-2.28-.32-2.96-.95s-1.02-1.53-1.02-2.7c0-.62.13-1.15.4-1.6s.62-.84 1.05-1.18.89-.66 1.38-.94c-.3-.36-.56-.7-.79-1.01s-.41-.63-.54-.98-.19-.73-.19-1.17c0-.67.17-1.24.5-1.7.34-.46.77-.81 1.3-1.04s1.1-.35 1.7-.35c.71 0 1.33.13 1.85.4s.92.63 1.2 1.09.42.97.42 1.54-.13 1.1-.39 1.53-.6.81-1.02 1.14-.86.63-1.34.92c.15.18.4.48.76.9s.85.99 1.46 1.72c.31-.38.62-.8.93-1.26.31-.45.63-.93.96-1.43l1.54 1.04c-.36.54-.73 1.08-1.09 1.6s-.74 1.02-1.12 1.49l2.22 2.64h-2.46s-.14-.18-.34-.41c-.19-.23-.44-.52-.74-.87-.54.49-1.12.88-1.72 1.16s-1.26.42-1.96.42zm.12-1.82c.39 0 .79-.1 1.18-.3s.79-.49 1.18-.85c-.46-.54-.92-1.09-1.38-1.65-.46-.55-.85-1.03-1.18-1.42-.51.32-.94.67-1.3 1.04-.35.37-.53.83-.53 1.36 0 .67.17 1.14.52 1.42s.85.41 1.5.41zm.31-6.46c.52-.32.96-.66 1.33-1.02s.54-.78.54-1.27c0-.44-.14-.77-.42-1.01-.28-.23-.62-.35-1.02-.35-.43 0-.81.12-1.14.37s-.5.6-.5 1.07c0 .44.12.82.36 1.16s.52.69.84 1.05z"/><path d="m23.21 67.16v-6.93c-.81.55-1.64 1.07-2.49 1.54s-1.68.89-2.49 1.24c-.09-.16-.2-.35-.35-.56s-.31-.42-.47-.62-.33-.36-.49-.48c.93-.33 1.89-.76 2.88-1.3.99-.53 1.95-1.12 2.87-1.78.92-.65 1.77-1.33 2.54-2.05s1.39-1.42 1.87-2.13l1.66 1.14c-.46.61-.99 1.21-1.59 1.8s-1.25 1.17-1.94 1.72v8.4h-2z"/><path d="m34.54 59.4c-.14-.15-.33-.33-.58-.53s-.53-.42-.83-.64-.6-.43-.89-.62-.54-.33-.75-.42l1.28-1.62c.21.12.46.27.75.45s.58.38.89.59c.3.21.59.42.86.63s.48.39.64.55l-1.36 1.6zm-1.72 7.06-1.09-1.97c.76-.16 1.55-.42 2.39-.79s1.68-.8 2.52-1.3 1.64-1.03 2.4-1.6 1.44-1.15 2.06-1.74c.61-.59 1.11-1.15 1.5-1.68.04.18.11.41.22.67.1.27.21.53.33.78s.22.45.3.58c-.52.67-1.18 1.35-1.96 2.04s-1.65 1.35-2.6 1.98-1.94 1.21-2.98 1.74c-1.03.52-2.06.95-3.09 1.28z"/><path d="m47.33 67.52c-.07-.16-.19-.35-.34-.56s-.31-.42-.47-.63c-.17-.21-.32-.37-.46-.49 1.29-.49 2.49-1.12 3.61-1.88 1.11-.76 2.11-1.63 2.98-2.6s1.57-2.01 2.1-3.1c-.45.02-.93.05-1.43.07-.51.03-.97.05-1.38.06s-.73.02-.93.02c-.52.68-1.1 1.32-1.72 1.91s-1.28 1.12-1.98 1.59c-.1-.12-.23-.26-.41-.43s-.36-.34-.54-.51c-.19-.17-.36-.3-.52-.4.79-.46 1.54-1.03 2.24-1.72s1.33-1.43 1.87-2.24.96-1.6 1.25-2.39l1.86.66c-.13.3-.26.59-.4.88s-.29.57-.45.85c.46-.01.96-.02 1.5-.04s1.03-.04 1.48-.06c.45-.03.77-.06.96-.09l1.2.69c-.5 1.51-1.24 2.94-2.22 4.27s-2.13 2.52-3.46 3.57-2.78 1.9-4.34 2.58z"/><path d="m59.28 66.35c-.14-.23-.35-.5-.62-.8s-.53-.54-.77-.72c.89-.47 1.6-.98 2.14-1.54.54-.55.93-1.17 1.18-1.85s.38-1.43.4-2.26-.04-1.75-.18-2.77l1.87-.16c.22 1.6.25 3.03.07 4.28s-.59 2.35-1.26 3.3c-.66.95-1.61 1.79-2.83 2.51zm6.93-.37-1.04-.83c.02-.17.03-.52.04-1.06s.01-1.17.02-1.9c0-.74 0-1.48 0-2.24 0-.94 0-1.75-.02-2.45-.01-.69-.03-1.24-.05-1.63h2.05c-.02.19-.04.5-.05.92s-.02.9-.02 1.45 0 1.09 0 1.63v3.49c.46-.19.95-.43 1.48-.7s1.05-.57 1.57-.88.99-.61 1.42-.91.76-.57 1.01-.82c0 .2.02.45.06.75s.08.58.13.86c.05.27.09.47.12.58-.35.3-.81.63-1.38.99s-1.18.72-1.83 1.07-1.28.68-1.9.98c-.61.3-1.14.53-1.59.7z"/><path d="m74.87 61.87c.01-.15.02-.35.02-.61v-.77c0-.26 0-.46-.02-.61.2.01.56.02 1.08.03s1.14.02 1.86.03 1.49.02 2.31.02h2.46s1.6 0 2.33-.02c.73-.01 1.36-.02 1.9-.03.53-.01.91-.03 1.14-.05-.01.14-.02.34-.02.59v.78.6c-.27-.01-.66-.02-1.18-.03s-1.12-.02-1.81-.03-1.42-.02-2.19-.02h-2.34c-.79 0-1.54 0-2.26.02-.71.01-1.36.02-1.93.03s-1.02.03-1.35.05z"/><path d="m93.53 61.76c-.2-.17-.5-.36-.89-.58-.39-.21-.79-.42-1.2-.62s-.76-.34-1.05-.44l.99-1.73c.31.12.67.28 1.08.48s.81.41 1.19.62.69.4.91.56l-1.04 1.7zm-.77 5.18-1.09-1.97c.77-.17 1.57-.44 2.41-.81s1.67-.8 2.5-1.3 1.63-1.03 2.38-1.6c.76-.57 1.44-1.15 2.05-1.73s1.1-1.14 1.49-1.67c.04.19.11.42.22.69.1.27.21.52.33.77s.22.44.3.58c-.53.67-1.19 1.35-1.98 2.03-.78.68-1.65 1.34-2.58 1.98-.94.63-1.92 1.21-2.95 1.74-1.03.52-2.06.96-3.08 1.3zm2.98-8.5c-.13-.13-.32-.28-.58-.46s-.55-.37-.86-.57-.61-.38-.9-.54c-.28-.16-.51-.28-.7-.35l1.09-1.66c.21.11.47.25.76.43s.59.37.9.57c.3.2.59.39.85.57s.47.33.62.45l-1.17 1.57zm5.28-.99c-.22-.32-.51-.66-.86-1.02s-.67-.65-.94-.86l.82-.77c.16.13.36.31.6.54s.48.47.71.71.42.45.54.62l-.86.78zm1.36-1.29c-.22-.31-.51-.65-.87-1.01s-.67-.65-.95-.85l.82-.77c.17.12.38.29.62.52s.48.46.71.7.42.45.54.62l-.86.78z"/><path d="m106.95 66.3v-1.47c.21.01.58.02 1.1.03s1.14.02 1.86.02h3.22v-1.57h-2.47c-.55 0-1.07 0-1.57 0s-.92.01-1.28.02-.61.02-.74.03v-1.49c.22.01.59.02 1.1.03s1.11.02 1.82.02h2.28.86v-1.44h-2.65c-.55 0-1.07 0-1.57 0s-.93.01-1.29.02-.61.02-.75.03v-1.49c.22.01.59.02 1.1.03s1.11.02 1.82.02h2.3c.65 0 1.21 0 1.68-.02s.78-.03.93-.04v7.17h-4.13c-.55 0-1.08 0-1.58 0s-.93.01-1.29.02-.61.01-.74.02z"/><path d="m121.73 59.4c-.14-.15-.33-.33-.58-.53s-.53-.42-.83-.64-.6-.43-.89-.62-.54-.33-.75-.42l1.28-1.62c.21.12.46.27.75.45s.58.38.89.59c.3.21.59.42.86.63s.48.39.64.55l-1.36 1.6zm-1.71 7.06-1.09-1.97c.76-.16 1.55-.42 2.39-.79s1.68-.8 2.52-1.3 1.64-1.03 2.4-1.6 1.44-1.15 2.06-1.74c.61-.59 1.11-1.15 1.5-1.68.04.18.11.41.22.67.1.27.21.53.33.78s.22.45.3.58c-.52.67-1.18 1.35-1.96 2.04s-1.65 1.35-2.6 1.98-1.94 1.21-2.98 1.74c-1.03.52-2.06.95-3.09 1.28z"/></g></svg>