<svg xmlns:xlink="http://www.w3.org/1999/xlink" xmlns="http://www.w3.org/2000/svg" viewBox="0 0 95.11 43.67" width="95.11"  height="43.67" ><rect fill="#fff" height="41.67" rx="20.83" width="93.11" x="1" y="1"/><g fill="#2b2b2b"><path d="m73.27 43.67h-51.44c-12.04 0-21.83-9.8-21.83-21.84s9.79-21.83 21.83-21.83h51.44c12.04 0 21.83 9.79 21.83 21.83s-9.79 21.83-21.83 21.83zm-51.44-41.67c-10.93 0-19.83 8.9-19.83 19.83s8.9 19.83 19.83 19.83h51.44c10.94 0 19.83-8.9 19.83-19.83s-8.89-19.83-19.83-19.83z"/><path d="m13.75 26.13c-.65 0-1.25-.11-1.81-.32s-1.04-.51-1.45-.91c-.41-.39-.73-.85-.95-1.38s-.34-1.11-.34-1.74.11-1.21.34-1.74.55-.99.96-1.38.9-.69 1.45-.91c.56-.21 1.16-.32 1.81-.32.73 0 1.39.13 1.98.38s1.09.62 1.49 1.11l-1.26 1.15c-.28-.33-.6-.58-.95-.74-.36-.17-.74-.25-1.16-.25-.39 0-.75.07-1.08.2s-.61.32-.85.56-.43.52-.56.85-.2.69-.2 1.09.07.76.2 1.09.32.61.56.85.52.43.85.56.69.2 1.08.2c.42 0 .8-.09 1.16-.26s.67-.42.95-.75l1.26 1.15c-.4.49-.9.86-1.49 1.12s-1.26.38-1.99.38z"/><path d="m19.65 25.99v-8.4h1.96v6.82h4.19v1.58h-6.14z"/><path d="m32.01 26.13c-.66 0-1.28-.11-1.84-.32-.56-.22-1.05-.52-1.46-.91s-.74-.85-.97-1.38-.34-1.1-.34-1.73.11-1.21.34-1.73.55-.98.97-1.37.9-.7 1.46-.91 1.17-.32 1.83-.32 1.27.11 1.83.32 1.04.51 1.46.91c.42.39.74.85.97 1.38s.34 1.11.34 1.74-.11 1.2-.34 1.73-.55.99-.97 1.39c-.42.39-.9.69-1.46.91-.56.21-1.16.32-1.82.32zm-.01-1.64c.38 0 .72-.07 1.04-.2s.59-.32.83-.56.43-.53.56-.85.2-.69.2-1.09-.07-.76-.2-1.09c-.13-.32-.32-.61-.56-.85s-.52-.43-.83-.56c-.32-.13-.66-.2-1.04-.2s-.72.07-1.04.2-.6.32-.83.56c-.24.24-.42.53-.55.85s-.2.69-.2 1.09.07.76.2 1.09c.13.32.32.61.55.85.24.24.51.43.83.56s.67.2 1.04.2z"/><path d="m42 26.13c-.67 0-1.32-.09-1.94-.27s-1.12-.41-1.49-.7l.66-1.46c.35.26.78.47 1.27.63s1 .25 1.5.25c.38 0 .69-.04.93-.12s.41-.19.52-.32.17-.29.17-.46c0-.22-.09-.4-.26-.53-.18-.13-.41-.24-.7-.32s-.61-.16-.95-.24-.69-.17-1.04-.28-.67-.25-.96-.43-.52-.42-.7-.71-.26-.66-.26-1.1c0-.48.13-.92.38-1.31.26-.4.65-.71 1.17-.95s1.18-.35 1.97-.35c.53 0 1.05.06 1.57.19s.97.31 1.35.55l-.61 1.46c-.38-.22-.76-.38-1.16-.49s-.78-.16-1.15-.16-.69.04-.92.13-.4.2-.51.34-.16.3-.16.48c0 .22.09.4.26.54.18.14.41.24.7.32s.61.15.96.23.7.17 1.04.28.66.25.95.43.52.4.7.7c.18.29.27.65.27 1.09 0 .47-.13.9-.39 1.3-.26.39-.65.71-1.18.95s-1.19.36-1.98.36z"/><path d="m50.07 24.43h4.57v1.56h-6.5v-8.4h6.35v1.56h-4.42zm-.15-3.47h4.04v1.52h-4.04z"/></g><circle cx="72.41" cy="21.83" fill="#d1003b" r="12.31"/><path d="m72.41 35.15c-7.34 0-13.31-5.97-13.31-13.31s5.97-13.31 13.31-13.31 13.31 5.97 13.31 13.31-5.97 13.31-13.31 13.31zm0-24.63c-6.24 0-11.31 5.08-11.31 11.31s5.08 11.31 11.31 11.31 11.31-5.08 11.31-11.31-5.08-11.31-11.31-11.31z" fill="#2b2b2b"/><path d="m77.33 27.75c-.26 0-.51-.1-.71-.29l-9.83-9.83c-.39-.39-.39-1.02 0-1.41s1.02-.39 1.41 0l9.83 9.83c.39.39.39 1.02 0 1.41-.2.2-.45.29-.71.29z" fill="#2b2b2b"/><path d="m67.5 27.75c-.26 0-.51-.1-.71-.29-.39-.39-.39-1.02 0-1.41l9.83-9.83c.39-.39 1.02-.39 1.41 0s.39 1.02 0 1.41l-9.83 9.83c-.2.2-.45.29-.71.29z" fill="#2b2b2b"/></svg>